SplineFontDB: 3.0
FontName: Strobrod-Bold
FullName: Strobrod Bold
FamilyName: Strobrod
Weight: Bold
Copyright: CC, Aaron Christianson, Nicolas Mercier
UComments: "2017-3-27: Created with FontForge (http://fontforge.org)"
Version: 001.000
StrokeWidth: 614
ItalicAngle: 0
UnderlinePosition: -102
UnderlineWidth: 0
Ascent: 819
Descent: 205
InvalidEm: 0
LayerCount: 2
Layer: 0 0 "Back" 1
Layer: 1 0 "Fore" 0
StrokedFont: 1
XUID: [1021 68 1269985762 15680502]
StyleMap: 0x0020
FSType: 0
OS2Version: 0
OS2_WeightWidthSlopeOnly: 0
OS2_UseTypoMetrics: 1
CreationTime: 1490615230
ModificationTime: 1495885481
PfmFamily: 49
TTFWeight: 700
TTFWidth: 5
LineGap: 0
VLineGap: 0
Panose: 2 11 8 9 0 0 0 0 0 0
OS2TypoAscent: 819
OS2TypoAOffset: 0
OS2TypoDescent: -205
OS2TypoDOffset: 0
OS2TypoLinegap: 0
OS2WinAscent: 819
OS2WinAOffset: 0
OS2WinDescent: 205
OS2WinDOffset: 0
HheadAscent: 819
HheadAOffset: 0
HheadDescent: -205
HheadDOffset: 0
OS2Vendor: 'PfEd'
MacStyle: 1
MarkAttachClasses: 1
DEI: 91125
LangName: 1033
GaspTable: 2 0 1 65535 1 1
Encoding: iso8859-15
UnicodeInterp: none
NameList: AGL For New Fonts
DisplaySize: 10
AntiAlias: 1
FitToEm: 0
WinInfo: 0 61 21
BeginPrivate: 0
EndPrivate
TeXData: 1 0 0 628097 314049 209365 524288 1048576 209365 783286 444596 497025 792723 393216 433062 380633 303038 157286 324010 404750 52429 2506097 1059062 262144
BeginChars: 545 545

StartChar: exclam
Encoding: 33 33 1
Width: 614
VWidth: 0
Flags: W
HStem: 0 102<214 427> 614 0G<214 427>
VStem: 205 205<0 107 214 640>
LayerCount: 2
Back
Fore
SplineSet
205 102 m 25
 410 102 l 25
 410 0 l 25
 205 0 l 25
 205 102 l 25
205 614 m 25
 410 614 l 25
 410 205 l 25
 205 205 l 25
 205 614 l 25
EndSplineSet
EndChar

StartChar: quotedbl
Encoding: 34 34 2
Width: 614
VWidth: 0
Flags: W
HStem: 512 205<107 320 427 534>
VStem: 102 205<534 746> 410 102<534 746>
LayerCount: 2
Back
Fore
SplineSet
410 717 m 25
 512 717 l 25
 512 512 l 25
 410 512 l 25
 410 717 l 25
102 717 m 25
 307 717 l 25
 307 512 l 25
 102 512 l 25
 102 717 l 25
EndSplineSet
EndChar

StartChar: numbersign
Encoding: 35 35 3
Width: 614
VWidth: 0
Flags: W
HStem: 205 102<0 107 320 427 534 640> 410 102<0 107 320 427 534 640> 614 0G<107 320 427 534>
VStem: 102 205<107 214 320 427 534 640> 410 102<107 214 320 427 534 640>
LayerCount: 2
Back
Fore
SplineSet
307 410 m 25
 307 307 l 25
 410 307 l 25
 410 410 l 25
 307 410 l 25
102 614 m 25
 307 614 l 25
 307 512 l 25
 410 512 l 25
 410 614 l 25
 512 614 l 25
 512 512 l 25
 614 512 l 25
 614 410 l 25
 512 410 l 25
 512 307 l 25
 614 307 l 25
 614 205 l 25
 512 205 l 25
 512 102 l 25
 410 102 l 25
 410 205 l 25
 307 205 l 25
 307 102 l 25
 102 102 l 25
 102 205 l 25
 0 205 l 25
 0 307 l 25
 102 307 l 25
 102 410 l 25
 0 410 l 25
 0 512 l 25
 102 512 l 25
 102 614 l 25
EndSplineSet
EndChar

StartChar: dollar
Encoding: 36 36 4
Width: 614
VWidth: 0
Flags: W
HStem: -102 205<214 427> 0 102<107 214> 102 102<534 640> 205 102<214 427> 307 102<0 107> 410 205<214 427> 410 102<427 534>
VStem: 102 410<0 107 214 320 427 534> 205 205<-107 0 534 640>
LayerCount: 2
Back
Fore
SplineSet
102 512 m 25x03
 205 512 l 25x0280
 205 614 l 25
 410 614 l 25x0480
 410 512 l 25x0280
 512 512 l 25
 512 410 l 25x03
 205 410 l 25
 205 307 l 25x1480
 512 307 l 25
 512 205 l 25
 614 205 l 25
 614 102 l 25
 512 102 l 25x29
 512 0 l 25x41
 410 0 l 25x4080
 410 -102 l 25
 205 -102 l 25x8080
 205 0 l 25x4080
 102 0 l 25
 102 102 l 25x41
 410 102 l 25
 410 205 l 25x9080
 102 205 l 25x91
 102 307 l 25
 0 307 l 25
 0 410 l 25
 102 410 l 25x09
 102 512 l 25x03
EndSplineSet
EndChar

StartChar: percent
Encoding: 37 37 5
Width: 614
VWidth: 0
Flags: W
HStem: 102 102<427 534> 512 102<107 214>
VStem: 102 102<107 214 534 640> 410 102<107 214 534 640>
LayerCount: 2
Back
Fore
SplineSet
410 205 m 25
 512 205 l 25
 512 102 l 25
 410 102 l 25
 410 205 l 25
102 307 m 25
 205 307 l 25
 205 410 l 25
 307 410 l 25
 307 512 l 25
 410 512 l 25
 410 614 l 25
 512 614 l 25
 512 410 l 25
 410 410 l 25
 410 307 l 25
 307 307 l 25
 307 205 l 25
 205 205 l 25
 205 102 l 25
 102 102 l 25
 102 307 l 25
102 614 m 25
 205 614 l 25
 205 512 l 25
 102 512 l 25
 102 614 l 25
EndSplineSet
EndChar

StartChar: ampersand
Encoding: 38 38 6
Width: 614
VWidth: 0
Flags: W
HStem: 0 102<320 427 534 640> 102 205<107 214 427 534> 307 102<534 640> 614 102<427 534>
VStem: 102 205<107 320> 205 205<0 107 320 640> 410 102<107 320> 512 102<0 107 320 427>
LayerCount: 2
Back
Fore
SplineSet
307 717 m 25x58
 512 717 l 25
 512 614 l 25
 410 614 l 25
 410 307 l 25x55
 307 307 l 25
 307 102 l 25xb8
 410 102 l 25xb4
 410 307 l 25x54
 512 307 l 25x52
 512 410 l 25
 614 410 l 25
 614 307 l 25x31
 512 307 l 25x52
 512 102 l 25x92
 614 102 l 25
 614 0 l 25
 512 0 l 25x91
 512 102 l 25x92
 410 102 l 25
 410 0 l 25
 205 0 l 25x94
 205 102 l 25x54
 102 102 l 25
 102 307 l 25x58
 205 307 l 25
 205 614 l 25x54
 307 614 l 25
 307 717 l 25x58
EndSplineSet
EndChar

StartChar: quotesingle
Encoding: 39 39 7
Width: 614
VWidth: 0
Flags: W
HStem: 512 205<214 427>
VStem: 205 205<534 746>
LayerCount: 2
Back
Fore
SplineSet
205 717 m 25
 410 717 l 25
 410 512 l 25
 205 512 l 25
 205 717 l 25
EndSplineSet
EndChar

StartChar: parenleft
Encoding: 40 40 8
Width: 614
VWidth: 0
Flags: W
HStem: -102 102<320 427> 614 102<320 427>
VStem: 102 205<0 640> 205 205<-107 0 640 746>
LayerCount: 2
Back
Fore
SplineSet
205 717 m 25xd0
 410 717 l 25
 410 614 l 25xd0
 307 614 l 25
 307 0 l 25xe0
 410 0 l 25
 410 -102 l 25
 205 -102 l 25
 205 0 l 25xd0
 102 0 l 25
 102 614 l 25xe0
 205 614 l 25
 205 717 l 25xd0
EndSplineSet
EndChar

StartChar: parenright
Encoding: 41 41 9
Width: 614
VWidth: 0
Flags: W
HStem: -102 102<107 214> 614 102<107 214>
VStem: 102 205<-107 0 640 746> 205 205<0 640>
LayerCount: 2
Back
Fore
SplineSet
102 717 m 25xe0
 307 717 l 25
 307 614 l 25xe0
 410 614 l 25
 410 0 l 25xd0
 307 0 l 25
 307 -102 l 25
 102 -102 l 25
 102 0 l 25xe0
 205 0 l 25
 205 614 l 25xd0
 102 614 l 25
 102 717 l 25xe0
EndSplineSet
EndChar

StartChar: asterisk
Encoding: 42 42 10
Width: 614
VWidth: 0
Flags: W
HStem: 205 102<0 107 534 640> 410 102<0 107 534 640> 614 0G<214 427>
VStem: 205 205<107 214 534 640>
LayerCount: 2
Back
Fore
SplineSet
0 512 m 25
 205 512 l 25
 205 614 l 25
 410 614 l 25
 410 512 l 25
 614 512 l 25
 614 410 l 25
 512 410 l 25
 512 307 l 25
 614 307 l 25
 614 205 l 25
 410 205 l 25
 410 102 l 25
 205 102 l 25
 205 205 l 25
 0 205 l 25
 0 307 l 25
 102 307 l 25
 102 410 l 25
 0 410 l 25
 0 512 l 25
EndSplineSet
EndChar

StartChar: plus
Encoding: 43 43 11
Width: 614
VWidth: 0
Flags: W
HStem: 0 0G<214 427> 205 102<0 214 427 640> 512 0G<214 427>
VStem: 205 205<0 214 320 534>
LayerCount: 2
Back
Fore
SplineSet
205 512 m 25
 410 512 l 25
 410 307 l 25
 614 307 l 25
 614 205 l 25
 410 205 l 25
 410 0 l 25
 205 0 l 25
 205 205 l 25
 0 205 l 25
 0 307 l 25
 205 307 l 25
 205 512 l 25
EndSplineSet
EndChar

StartChar: comma
Encoding: 44 44 12
Width: 614
VWidth: 0
Flags: W
HStem: -102 102<107 214>
VStem: 205 205<0 214>
LayerCount: 2
Back
Fore
SplineSet
205 205 m 25
 410 205 l 25
 410 0 l 25
 307 0 l 25
 307 -102 l 25
 102 -102 l 25
 102 0 l 25
 205 0 l 25
 205 205 l 25
EndSplineSet
EndChar

StartChar: hyphen
Encoding: 45 45 13
Width: 614
VWidth: 0
Flags: W
HStem: 205 102<107 640>
LayerCount: 2
Back
Fore
SplineSet
102 307 m 25
 614 307 l 25
 614 205 l 25
 102 205 l 25
 102 307 l 25
EndSplineSet
EndChar

StartChar: period
Encoding: 46 46 14
Width: 614
VWidth: 0
Flags: W
HStem: 0 205<214 427>
VStem: 205 205<0 214>
LayerCount: 2
Back
Fore
SplineSet
205 205 m 25
 410 205 l 25
 410 0 l 25
 205 0 l 25
 205 205 l 25
EndSplineSet
EndChar

StartChar: slash
Encoding: 47 47 15
Width: 614
VWidth: 0
Flags: W
HStem: -102 0G<107 320> 717 0G<427 640>
VStem: 102 205<-107 107> 205 205<107 320> 307 205<320 534> 410 205<534 746>
LayerCount: 2
Back
Fore
SplineSet
102 102 m 25xe0
 205 102 l 25
 205 307 l 25xd0
 307 307 l 25
 307 512 l 25xc8
 410 512 l 25
 410 717 l 25
 614 717 l 25
 614 512 l 25xc4
 512 512 l 25
 512 307 l 25xc8
 410 307 l 25
 410 102 l 25xd0
 307 102 l 25
 307 -102 l 25
 102 -102 l 25
 102 102 l 25xe0
EndSplineSet
EndChar

StartChar: zero
Encoding: 48 48 16
Width: 614
VWidth: 0
Flags: W
HStem: 0 102<320 427> 307 102<320 427> 512 0G<427 534> 512 102<320 427>
VStem: 102 205<107 320 427 534> 205 205<0 107 534 640> 410 102<107 320 427 534>
LayerCount: 2
Back
Fore
SplineSet
102 512 m 25xd8
 205 512 l 25
 205 614 l 25
 410 614 l 25xd4
 410 512 l 25xe4
 307 512 l 25
 307 410 l 25
 410 410 l 25xda
 410 512 l 25xe4
 512 512 l 25
 512 102 l 25xe2
 410 102 l 25xe4
 410 307 l 25
 307 307 l 25
 307 102 l 25xea
 410 102 l 25
 410 0 l 25
 205 0 l 25
 205 102 l 25xe4
 102 102 l 25
 102 512 l 25xd8
EndSplineSet
EndChar

StartChar: one
Encoding: 49 49 17
Width: 614
VWidth: 0
Flags: W
HStem: 0 0G<214 427> 410 102<107 214> 614 0G<214 427>
VStem: 205 205<0 427 534 640>
LayerCount: 2
Back
Fore
SplineSet
102 512 m 25
 205 512 l 25
 205 614 l 25
 410 614 l 25
 410 0 l 25
 205 0 l 25
 205 410 l 25
 102 410 l 25
 102 512 l 25
EndSplineSet
EndChar

StartChar: two
Encoding: 50 50 18
Width: 614
VWidth: 0
Flags: W
HStem: 0 102<320 534> 410 102<107 214> 512 102<214 320>
VStem: 102 102<427 534> 205 205<214 320 534 640> 307 205<320 534>
LayerCount: 2
Back
Fore
SplineSet
102 512 m 25xd4
 205 512 l 25xd4
 205 614 l 25
 410 614 l 25
 410 512 l 25xa8
 512 512 l 25
 512 307 l 25xa4
 410 307 l 25
 410 205 l 25xa8
 307 205 l 25
 307 102 l 25
 512 102 l 25
 512 0 l 25
 102 0 l 25
 102 205 l 25xb4
 205 205 l 25
 205 307 l 25xa8
 307 307 l 25
 307 512 l 25xa4
 205 512 l 25
 205 410 l 25
 102 410 l 25
 102 512 l 25xd4
EndSplineSet
EndChar

StartChar: three
Encoding: 51 51 19
Width: 614
VWidth: 0
Flags: W
HStem: 0 102<107 320> 307 102<214 320> 512 102<107 320>
VStem: 307 205<107 320 427 534>
LayerCount: 2
Back
Fore
SplineSet
102 614 m 25
 512 614 l 25
 512 410 l 25
 410 410 l 25
 410 307 l 25
 512 307 l 25
 512 102 l 25
 410 102 l 25
 410 0 l 25
 102 0 l 25
 102 102 l 25
 307 102 l 25
 307 307 l 25
 205 307 l 25
 205 410 l 25
 307 410 l 25
 307 512 l 25
 102 512 l 25
 102 614 l 25
EndSplineSet
EndChar

StartChar: four
Encoding: 52 52 20
Width: 614
VWidth: 0
Flags: W
HStem: 0 0G<320 534> 102 102<214 320> 307 102<214 320> 614 0G<427 534>
VStem: 102 102<214 320> 307 205<0 107 214 320 427 534> 410 102<534 640>
LayerCount: 2
Back
Fore
SplineSet
410 614 m 25xfa
 512 614 l 25xfa
 512 0 l 25
 307 0 l 25
 307 102 l 25
 102 102 l 25
 102 307 l 25
 205 307 l 25
 205 205 l 25
 307 205 l 25
 307 307 l 25
 205 307 l 25
 205 410 l 25
 307 410 l 25
 307 512 l 25xfc
 410 512 l 25
 410 614 l 25xfa
EndSplineSet
EndChar

StartChar: five
Encoding: 53 53 21
Width: 614
VWidth: 0
Flags: W
HStem: 0 102<107 320> 307 307<107 320> 512 102<320 534>
VStem: 102 307<0 107 320 427> 307 205<107 320>
LayerCount: 2
Back
Fore
SplineSet
102 614 m 25xd0
 512 614 l 25
 512 512 l 25
 307 512 l 25
 307 410 l 25xa8
 410 410 l 25
 410 307 l 25xd0
 512 307 l 25
 512 102 l 25xc8
 410 102 l 25
 410 0 l 25
 102 0 l 25
 102 102 l 25xd0
 307 102 l 25
 307 307 l 25xc8
 102 307 l 25
 102 614 l 25xd0
EndSplineSet
EndChar

StartChar: six
Encoding: 54 54 22
Width: 614
VWidth: 0
Flags: W
HStem: 0 102<320 427> 307 102<320 427> 512 102<320 427>
VStem: 102 205<107 320 427 534> 205 205<0 107 534 640> 410 102<107 320>
LayerCount: 2
Back
Fore
SplineSet
205 614 m 25xe8
 410 614 l 25
 410 512 l 25xe8
 307 512 l 25
 307 410 l 25
 410 410 l 25
 410 307 l 25
 307 307 l 25
 307 102 l 25xf4
 410 102 l 25xe8
 410 307 l 25
 512 307 l 25
 512 102 l 25xe4
 410 102 l 25
 410 0 l 25
 205 0 l 25
 205 102 l 25xe8
 102 102 l 25
 102 512 l 25xf0
 205 512 l 25
 205 614 l 25xe8
EndSplineSet
EndChar

StartChar: seven
Encoding: 55 55 23
Width: 614
VWidth: 0
Flags: W
HStem: 0 0G<107 320> 512 102<107 320>
VStem: 102 205<0 214> 307 205<320 534>
LayerCount: 2
Back
Fore
SplineSet
102 614 m 25xe0
 512 614 l 25
 512 307 l 25xd0
 410 307 l 25
 410 205 l 25
 307 205 l 25
 307 0 l 25
 102 0 l 25
 102 205 l 25xe0
 205 205 l 25
 205 307 l 25
 307 307 l 25
 307 512 l 25xd0
 102 512 l 25
 102 614 l 25xe0
EndSplineSet
EndChar

StartChar: eight
Encoding: 56 56 24
Width: 614
VWidth: 0
Flags: W
HStem: 0 102<320 427> 102 205<107 214 427 534> 307 102<320 427> 410 102<107 214 427 534> 512 102<320 427>
VStem: 102 205<107 320 427 534> 205 205<0 107 320 427 534 640> 410 102<107 320 427 534>
LayerCount: 2
Back
Fore
SplineSet
205 614 m 25x0a
 410 614 l 25x0a
 410 512 l 25x12
 307 512 l 25
 307 410 l 25x2c
 410 410 l 25x2a
 410 512 l 25x12
 512 512 l 25
 512 410 l 25x11
 410 410 l 25x22
 410 307 l 25x42
 307 307 l 25
 307 102 l 25xa4
 410 102 l 25xa2
 410 307 l 25x42
 512 307 l 25
 512 102 l 25x41
 410 102 l 25
 410 0 l 25
 205 0 l 25x82
 205 102 l 25x42
 102 102 l 25
 102 307 l 25x44
 205 307 l 25
 205 410 l 25x52
 102 410 l 25
 102 512 l 25x54
 205 512 l 25x52
 205 614 l 25x0a
EndSplineSet
EndChar

StartChar: nine
Encoding: 57 57 25
Width: 614
VWidth: 0
Flags: W
HStem: 0 102<214 320> 205 102<214 320> 512 102<214 320>
VStem: 102 102<320 534> 205 205<0 107 534 640> 307 205<107 214 320 534>
LayerCount: 2
Back
Fore
SplineSet
205 614 m 25xe8
 410 614 l 25
 410 512 l 25xe8
 512 512 l 25
 512 102 l 25xe4
 410 102 l 25
 410 0 l 25
 205 0 l 25
 205 102 l 25xe8
 307 102 l 25
 307 205 l 25xe4
 205 205 l 25xe8
 205 307 l 25
 307 307 l 25
 307 512 l 25
 205 512 l 25
 205 307 l 25
 102 307 l 25
 102 512 l 25
 205 512 l 25xf4
 205 614 l 25xe8
EndSplineSet
EndChar

StartChar: colon
Encoding: 58 58 26
Width: 614
VWidth: 0
Flags: W
HStem: 102 102<214 427> 307 102<214 427>
VStem: 205 205<107 214 320 427>
LayerCount: 2
Back
Fore
SplineSet
205 205 m 25
 410 205 l 25
 410 102 l 25
 205 102 l 25
 205 205 l 25
205 410 m 25
 410 410 l 25
 410 307 l 25
 205 307 l 25
 205 410 l 25
EndSplineSet
EndChar

StartChar: semicolon
Encoding: 59 59 27
Width: 614
VWidth: 0
Flags: W
HStem: -102 102<107 214> 307 102<214 427>
VStem: 205 205<0 214 320 427>
LayerCount: 2
Back
Fore
SplineSet
205 205 m 25
 410 205 l 25
 410 0 l 25
 307 0 l 25
 307 -102 l 25
 102 -102 l 25
 102 0 l 25
 205 0 l 25
 205 205 l 25
205 410 m 25
 410 410 l 25
 410 307 l 25
 205 307 l 25
 205 410 l 25
EndSplineSet
EndChar

StartChar: less
Encoding: 60 60 28
Width: 614
VWidth: 0
Flags: W
HStem: 0 102<427 534> 205 102<107 214> 410 102<427 534>
VStem: 205 205<107 214 320 427> 307 205<0 107 427 534>
CounterMasks: 1 e0
LayerCount: 2
Back
Fore
SplineSet
102 307 m 25xf0
 205 307 l 25
 205 410 l 25xf0
 307 410 l 25
 307 512 l 25
 512 512 l 25
 512 410 l 25xe8
 410 410 l 25
 410 307 l 25xf0
 307 307 l 25
 307 205 l 25xe8
 410 205 l 25
 410 102 l 25xf0
 512 102 l 25
 512 0 l 25
 307 0 l 25
 307 102 l 25xe8
 205 102 l 25
 205 205 l 25
 102 205 l 25
 102 307 l 25xf0
EndSplineSet
EndChar

StartChar: equal
Encoding: 61 61 29
Width: 614
VWidth: 0
Flags: W
HStem: 102 102<107 534> 307 102<107 534>
LayerCount: 2
Back
Fore
SplineSet
102 205 m 25
 512 205 l 25
 512 102 l 25
 102 102 l 25
 102 205 l 25
102 410 m 25
 512 410 l 25
 512 307 l 25
 102 307 l 25
 102 410 l 25
EndSplineSet
EndChar

StartChar: greater
Encoding: 62 62 30
Width: 614
VWidth: 0
Flags: W
HStem: 0 102<107 214> 205 102<427 534> 410 102<107 214>
VStem: 102 205<0 107 427 534> 205 205<107 214 320 427>
CounterMasks: 1 e0
LayerCount: 2
Back
Fore
SplineSet
102 512 m 25xf0
 307 512 l 25
 307 410 l 25xf0
 410 410 l 25
 410 307 l 25
 512 307 l 25
 512 205 l 25
 410 205 l 25
 410 102 l 25xe8
 307 102 l 25
 307 0 l 25
 102 0 l 25
 102 102 l 25xf0
 205 102 l 25
 205 205 l 25xe8
 307 205 l 25
 307 307 l 25xf0
 205 307 l 25
 205 410 l 25xe8
 102 410 l 25
 102 512 l 25xf0
EndSplineSet
EndChar

StartChar: question
Encoding: 63 63 31
Width: 614
VWidth: 0
Flags: W
HStem: -102 102<214 427> 410 102<0 107> 512 102<107 320>
VStem: 0 102<427 534> 205 205<-107 0 107 320> 307 205<320 534>
LayerCount: 2
Back
Fore
SplineSet
205 0 m 25x98
 410 0 l 25
 410 -102 l 25
 205 -102 l 25
 205 0 l 25x98
0 410 m 25xd4
 0 512 l 25
 102 512 l 25xd4
 102 614 l 25
 410 614 l 25
 410 512 l 25xb8
 512 512 l 25
 512 307 l 25xb4
 410 307 l 25
 410 102 l 25
 205 102 l 25
 205 307 l 25xb8
 307 307 l 25
 307 512 l 25xb4
 102 512 l 25
 102 410 l 25
 0 410 l 25xd4
EndSplineSet
EndChar

StartChar: at
Encoding: 64 64 32
Width: 614
VWidth: 0
Flags: W
HStem: -102 102<320 427> 102 102<320 427> 410 102<320 427> 614 0G<427 534> 614 102<320 427>
VStem: 102 205<0 107 214 427 534 640> 205 205<-107 0 640 746> 410 102<214 427 534 640>
LayerCount: 2
Back
Fore
SplineSet
307 410 m 25xe5
 307 205 l 25
 410 205 l 25
 410 410 l 25
 307 410 l 25xe5
102 614 m 25xec
 205 614 l 25
 205 717 l 25
 410 717 l 25xea
 410 614 l 25xf2
 307 614 l 25
 307 512 l 25
 410 512 l 25xed
 410 614 l 25xf2
 512 614 l 25
 512 102 l 25
 307 102 l 25
 307 0 l 25xf5
 410 0 l 25
 410 -102 l 25
 205 -102 l 25
 205 0 l 25xf2
 102 0 l 25
 102 614 l 25xec
EndSplineSet
EndChar

StartChar: A
Encoding: 65 65 33
Width: 614
VWidth: 0
Flags: W
HStem: 0 0G<107 320 427 534> 205 102<320 427> 512 0G<427 534> 512 102<320 427>
VStem: 102 205<0 214 320 534> 410 102<0 214 320 534>
LayerCount: 2
Back
Fore
SplineSet
102 512 m 25xdc
 205 512 l 25
 205 614 l 25
 410 614 l 25xdc
 410 512 l 25xec
 307 512 l 25xdc
 307 307 l 25
 410 307 l 25
 410 512 l 25
 512 512 l 25xec
 512 0 l 25
 410 0 l 25
 410 205 l 25
 307 205 l 25
 307 0 l 25
 102 0 l 25
 102 512 l 25xdc
EndSplineSet
EndChar

StartChar: B
Encoding: 66 66 34
Width: 614
VWidth: 0
Flags: W
HStem: 0 102<320 427> 307 102<320 427> 410 102<427 534> 512 102<320 427>
VStem: 102 307<0 107 320 427 534 640> 102 205<107 320 427 534> 410 102<107 320 427 534>
LayerCount: 2
Back
Fore
SplineSet
102 614 m 25xd8
 410 614 l 25xd8
 410 512 l 25xa8
 307 512 l 25
 307 410 l 25xd4
 410 410 l 25xd8
 410 512 l 25xa8
 512 512 l 25
 512 410 l 25xa2
 410 410 l 25
 410 307 l 25xc8
 307 307 l 25
 307 102 l 25xc4
 410 102 l 25
 410 307 l 25xc8
 512 307 l 25
 512 102 l 25xc2
 410 102 l 25
 410 0 l 25
 102 0 l 25
 102 614 l 25xd8
EndSplineSet
EndChar

StartChar: C
Encoding: 67 67 35
Width: 614
VWidth: 0
Flags: W
HStem: 0 102<320 534> 512 102<320 534>
VStem: 102 205<107 534> 205 307<0 107 534 640>
LayerCount: 2
Back
Fore
SplineSet
205 614 m 25xd0
 512 614 l 25
 512 512 l 25xd0
 307 512 l 25
 307 102 l 25xe0
 512 102 l 25
 512 0 l 25
 205 0 l 25
 205 102 l 25xd0
 102 102 l 25
 102 512 l 25xe0
 205 512 l 25
 205 614 l 25xd0
EndSplineSet
EndChar

StartChar: D
Encoding: 68 68 36
Width: 614
VWidth: 0
Flags: W
HStem: 0 102<320 427> 512 0G<427 534> 512 102<320 427>
VStem: 102 307<0 107 534 640> 102 205<107 534> 410 102<107 534>
LayerCount: 2
Back
Fore
SplineSet
102 614 m 25xb0
 410 614 l 25xb0
 410 512 l 25xd0
 307 512 l 25
 307 102 l 25xa8
 410 102 l 25
 410 512 l 25xd0
 512 512 l 25
 512 102 l 25xc4
 410 102 l 25
 410 0 l 25
 102 0 l 25
 102 614 l 25xb0
EndSplineSet
EndChar

StartChar: E
Encoding: 69 69 37
Width: 614
VWidth: 0
Flags: W
HStem: 0 102<320 534> 307 102<320 427> 512 102<320 534>
VStem: 102 205<107 320 427 534>
LayerCount: 2
Back
Fore
SplineSet
102 614 m 25
 512 614 l 25
 512 512 l 25
 307 512 l 25
 307 410 l 25
 410 410 l 25
 410 307 l 25
 307 307 l 25
 307 102 l 25
 512 102 l 25
 512 0 l 25
 102 0 l 25
 102 614 l 25
EndSplineSet
EndChar

StartChar: F
Encoding: 70 70 38
Width: 614
VWidth: 0
Flags: W
HStem: 0 0G<107 320> 307 102<320 427> 512 102<320 534>
VStem: 102 205<0 320 427 534>
LayerCount: 2
Back
Fore
SplineSet
102 614 m 25
 512 614 l 25
 512 512 l 25
 307 512 l 25
 307 410 l 25
 410 410 l 25
 410 307 l 25
 307 307 l 25
 307 0 l 25
 102 0 l 25
 102 614 l 25
EndSplineSet
EndChar

StartChar: G
Encoding: 71 71 39
Width: 614
VWidth: 0
Flags: W
HStem: 0 102<320 427> 512 102<320 534>
VStem: 102 205<107 534> 205 307<0 107 534 640> 410 102<107 320>
LayerCount: 2
Back
Fore
SplineSet
205 614 m 25xd0
 512 614 l 25
 512 512 l 25xd0
 307 512 l 25
 307 102 l 25
 410 102 l 25
 410 307 l 25
 512 307 l 25xe8
 512 0 l 25
 205 0 l 25
 205 102 l 25xd0
 102 102 l 25
 102 512 l 25xe0
 205 512 l 25
 205 614 l 25xd0
EndSplineSet
EndChar

StartChar: H
Encoding: 72 72 40
Width: 614
VWidth: 0
Flags: W
HStem: 0 0G<107 320 427 534> 205 102<320 427> 614 0G<107 320 427 534>
VStem: 102 205<0 214 320 640> 410 102<0 214 320 640>
LayerCount: 2
Back
Fore
SplineSet
102 614 m 25
 307 614 l 25
 307 307 l 25
 410 307 l 25
 410 614 l 25
 512 614 l 25
 512 0 l 25
 410 0 l 25
 410 205 l 25
 307 205 l 25
 307 0 l 25
 102 0 l 25
 102 614 l 25
EndSplineSet
EndChar

StartChar: I
Encoding: 73 73 41
Width: 614
VWidth: 0
Flags: W
HStem: 0 0G<214 427> 614 0G<214 427>
VStem: 205 205<0 640>
LayerCount: 2
Back
Fore
SplineSet
205 614 m 25
 410 614 l 25
 410 0 l 25
 205 0 l 25
 205 614 l 25
EndSplineSet
EndChar

StartChar: J
Encoding: 74 74 42
Width: 614
VWidth: 0
Flags: W
HStem: 0 102<107 320> 614 0G<320 534>
VStem: 307 205<107 640>
LayerCount: 2
Back
Fore
SplineSet
307 614 m 25
 512 614 l 25
 512 102 l 25
 410 102 l 25
 410 0 l 25
 102 0 l 25
 102 102 l 25
 307 102 l 25
 307 614 l 25
EndSplineSet
EndChar

StartChar: K
Encoding: 75 75 43
Width: 614
VWidth: 0
Flags: W
HStem: 0 102<534 640> 102 102<427 534> 410 102<427 534> 512 102<534 640>
VStem: 102 307<214 427> 102 205<0 214 427 640> 410 102<107 214 427 534> 512 102<0 107 534 640>
LayerCount: 2
Back
Fore
SplineSet
102 614 m 25x94
 307 614 l 25x94
 307 410 l 25x24
 410 410 l 25x28
 410 512 l 25
 512 512 l 25x22
 512 614 l 25
 614 614 l 25
 614 512 l 25x11
 512 512 l 25
 512 410 l 25x22
 410 410 l 25
 410 205 l 25x68
 512 205 l 25x62
 512 102 l 25x82
 614 102 l 25
 614 0 l 25
 512 0 l 25x81
 512 102 l 25x82
 410 102 l 25x42
 410 205 l 25x48
 307 205 l 25x44
 307 0 l 25
 102 0 l 25
 102 614 l 25x94
EndSplineSet
EndChar

StartChar: L
Encoding: 76 76 44
Width: 614
VWidth: 0
Flags: W
HStem: 0 102<320 534> 614 0G<107 320>
VStem: 102 205<107 640>
LayerCount: 2
Back
Fore
SplineSet
102 614 m 25
 307 614 l 25
 307 102 l 25
 512 102 l 25
 512 0 l 25
 102 0 l 25
 102 614 l 25
EndSplineSet
EndChar

StartChar: M
Encoding: 77 77 45
Width: 614
VWidth: 0
Flags: W
HStem: 0 0G<0 214 534 640> 512 102<214 320 427 534>
VStem: 0 205<0 534> 307 102<320 534> 512 102<0 534>
LayerCount: 2
Back
Fore
SplineSet
0 614 m 25
 307 614 l 25
 307 512 l 25
 410 512 l 25
 410 614 l 25
 614 614 l 25
 614 0 l 25
 512 0 l 25
 512 512 l 25
 410 512 l 25
 410 307 l 25
 307 307 l 25
 307 512 l 25
 205 512 l 25
 205 0 l 25
 0 0 l 25
 0 614 l 25
EndSplineSet
EndChar

StartChar: N
Encoding: 78 78 46
Width: 614
VWidth: 0
Flags: W
HStem: 0 0G<107 320 534 640> 205 102<427 534> 307 102<320 427> 614 0G<107 320 534 640>
VStem: 102 205<0 320 427 640> 512 102<0 214 320 640>
LayerCount: 2
Back
Fore
SplineSet
102 614 m 25xbc
 307 614 l 25
 307 410 l 25
 410 410 l 25xbc
 410 307 l 25
 512 307 l 25
 512 614 l 25
 614 614 l 25
 614 0 l 25
 512 0 l 25
 512 205 l 25
 410 205 l 25
 410 307 l 25xdc
 307 307 l 25
 307 0 l 25
 102 0 l 25
 102 614 l 25xbc
EndSplineSet
EndChar

StartChar: O
Encoding: 79 79 47
Width: 614
VWidth: 0
Flags: W
HStem: 0 102<320 427> 512 0G<427 534> 512 102<320 427>
VStem: 102 205<107 534> 205 205<0 107 534 640> 410 102<107 534>
LayerCount: 2
Back
Fore
SplineSet
102 512 m 25xb0
 205 512 l 25
 205 614 l 25
 410 614 l 25xa8
 410 512 l 25xc8
 307 512 l 25
 307 102 l 25xb0
 410 102 l 25
 410 512 l 25xc8
 512 512 l 25
 512 102 l 25xc4
 410 102 l 25
 410 0 l 25
 205 0 l 25
 205 102 l 25xc8
 102 102 l 25
 102 512 l 25xb0
EndSplineSet
EndChar

StartChar: P
Encoding: 80 80 48
Width: 614
VWidth: 0
Flags: W
HStem: 0 0G<107 320> 205 102<320 427> 512 0G<427 534> 512 102<320 427>
VStem: 102 307<214 320 534 640> 102 205<0 214 320 534> 410 102<320 534>
LayerCount: 2
Back
Fore
SplineSet
102 614 m 25xd8
 410 614 l 25xd8
 410 512 l 25xe8
 307 512 l 25
 307 307 l 25xd4
 410 307 l 25
 410 512 l 25xe8
 512 512 l 25
 512 307 l 25xe2
 410 307 l 25
 410 205 l 25xe8
 307 205 l 25
 307 0 l 25
 102 0 l 25xe4
 102 614 l 25xd8
EndSplineSet
EndChar

StartChar: Q
Encoding: 81 81 49
Width: 614
VWidth: 0
Flags: W
HStem: -102 102<427 534> 512 0G<427 534> 512 102<320 427>
VStem: 102 205<107 534> 205 205<0 107 534 640> 410 102<107 534>
LayerCount: 2
Back
Fore
SplineSet
102 512 m 25xb0
 205 512 l 25
 205 614 l 25
 410 614 l 25xa8
 410 512 l 25xc8
 307 512 l 25
 307 102 l 25xb0
 410 102 l 25
 410 512 l 25xc8
 512 512 l 25
 512 102 l 25xc4
 410 102 l 25
 410 0 l 25xc8
 512 0 l 25
 512 -102 l 25
 307 -102 l 25
 307 0 l 25xd4
 205 0 l 25
 205 102 l 25xc8
 102 102 l 25
 102 512 l 25xb0
EndSplineSet
EndChar

StartChar: R
Encoding: 82 82 50
Width: 614
VWidth: 0
Flags: W
HStem: 0 102<427 534> 512 0G<427 534> 512 102<320 427>
VStem: 102 307<107 320 534 640> 102 205<0 107 320 534> 410 102<0 107 320 534>
LayerCount: 2
Back
Fore
SplineSet
102 614 m 25xb0
 410 614 l 25xb0
 410 512 l 25xd0
 307 512 l 25
 307 307 l 25xa8
 410 307 l 25
 410 512 l 25xd0
 512 512 l 25
 512 307 l 25xc4
 410 307 l 25
 410 102 l 25xd0
 512 102 l 25
 512 0 l 25
 410 0 l 25xc4
 410 102 l 25xd0
 307 102 l 25
 307 0 l 25
 102 0 l 25xc8
 102 614 l 25xb0
EndSplineSet
EndChar

StartChar: S
Encoding: 83 83 51
Width: 614
VWidth: 0
Flags: W
HStem: 0 102<107 320> 410 102<107 214> 512 102<320 534>
VStem: 307 205<107 320>
LayerCount: 2
Back
Fore
SplineSet
102 512 m 25xd0
 205 512 l 25xd0
 205 614 l 25
 512 614 l 25
 512 512 l 25
 307 512 l 25xb0
 307 410 l 25
 410 410 l 25
 410 307 l 25
 512 307 l 25
 512 102 l 25
 410 102 l 25
 410 0 l 25
 102 0 l 25
 102 102 l 25
 307 102 l 25
 307 307 l 25
 205 307 l 25
 205 410 l 25
 102 410 l 25
 102 512 l 25xd0
EndSplineSet
EndChar

StartChar: T
Encoding: 84 84 52
Width: 614
VWidth: 0
Flags: W
HStem: 0 0G<214 427> 512 102<0 214 427 640>
VStem: 205 205<0 534>
LayerCount: 2
Back
Fore
SplineSet
0 614 m 25
 614 614 l 25
 614 512 l 25
 410 512 l 25
 410 0 l 25
 205 0 l 25
 205 512 l 25
 0 512 l 25
 0 614 l 25
EndSplineSet
EndChar

StartChar: U
Encoding: 85 85 53
Width: 614
VWidth: 0
Flags: W
HStem: 0 102<320 427> 614 0G<107 320 427 534>
VStem: 102 205<107 640> 410 102<107 640>
LayerCount: 2
Back
Fore
SplineSet
102 614 m 25
 307 614 l 25
 307 102 l 25
 410 102 l 25
 410 614 l 25
 512 614 l 25
 512 0 l 25
 205 0 l 25
 205 102 l 25
 102 102 l 25
 102 614 l 25
EndSplineSet
EndChar

StartChar: V
Encoding: 86 86 54
Width: 614
VWidth: 0
Flags: W
HStem: 0 0G<107 320> 102 102<320 427> 614 0G<0 214 427 534>
VStem: 0 205<214 640> 410 102<214 640>
LayerCount: 2
Back
Fore
SplineSet
0 614 m 25
 205 614 l 25
 205 205 l 25
 410 205 l 25
 410 614 l 25
 512 614 l 25
 512 205 l 25
 410 205 l 25
 410 102 l 25
 307 102 l 25
 307 0 l 25
 102 0 l 25
 102 205 l 25
 0 205 l 25
 0 614 l 25
EndSplineSet
EndChar

StartChar: W
Encoding: 87 87 55
Width: 614
VWidth: 0
Flags: W
HStem: 0 102<214 320 427 534> 614 0G<0 214 534 640>
VStem: 0 205<107 640> 307 102<107 320> 512 102<107 640>
LayerCount: 2
Back
Fore
SplineSet
0 614 m 25
 205 614 l 25
 205 102 l 25
 307 102 l 25
 307 307 l 25
 410 307 l 25
 410 102 l 25
 512 102 l 25
 512 614 l 25
 614 614 l 25
 614 102 l 25
 512 102 l 25
 512 0 l 25
 102 0 l 25
 102 102 l 25
 0 102 l 25
 0 614 l 25
EndSplineSet
EndChar

StartChar: X
Encoding: 88 88 56
Width: 614
VWidth: 0
Flags: W
HStem: 0 205<0 107 427 534> 410 205<0 107 427 534>
VStem: 0 205<427 640> 0 102<0 214> 307 205<0 214> 410 102<427 640>
LayerCount: 2
Back
Fore
SplineSet
0 614 m 25xe0
 205 614 l 25
 205 410 l 25
 410 410 l 25
 410 614 l 25
 512 614 l 25
 512 410 l 25
 410 410 l 25
 410 205 l 25xe4
 512 205 l 25
 512 0 l 25
 307 0 l 25
 307 205 l 25
 102 205 l 25
 102 0 l 25
 0 0 l 25
 0 205 l 25
 102 205 l 25
 102 410 l 25xd8
 0 410 l 25
 0 614 l 25xe0
EndSplineSet
EndChar

StartChar: Y
Encoding: 89 89 57
Width: 614
VWidth: 0
Flags: W
HStem: 0 0G<214 427> 307 102<427 534> 410 205<0 107 534 640>
VStem: 0 205<427 640> 410 102<320 427> 512 102<427 640>
LayerCount: 2
Back
Fore
SplineSet
0 614 m 25xb8
 205 614 l 25
 205 410 l 25
 307 410 l 25xb8
 307 307 l 25
 410 307 l 25
 410 410 l 25
 512 410 l 25xd8
 512 614 l 25
 614 614 l 25
 614 410 l 25xb4
 512 410 l 25
 512 307 l 25
 410 307 l 25
 410 0 l 25
 205 0 l 25
 205 307 l 25
 102 307 l 25xd8
 102 410 l 25
 0 410 l 25
 0 614 l 25xb8
EndSplineSet
EndChar

StartChar: Z
Encoding: 90 90 58
Width: 614
VWidth: 0
Flags: W
HStem: 0 102<320 534> 512 102<107 320>
VStem: 102 205<107 320>
LayerCount: 2
Back
Fore
SplineSet
102 614 m 25
 512 614 l 25
 512 410 l 25
 410 410 l 25
 410 307 l 25
 307 307 l 25
 307 102 l 25
 512 102 l 25
 512 0 l 25
 102 0 l 25
 102 307 l 25
 205 307 l 25
 205 410 l 25
 307 410 l 25
 307 512 l 25
 102 512 l 25
 102 614 l 25
EndSplineSet
EndChar

StartChar: bracketleft
Encoding: 91 91 59
Width: 614
VWidth: 0
Flags: W
HStem: 0 102<320 427> 614 102<320 427>
VStem: 102 307<0 107 640 746> 102 205<107 640>
LayerCount: 2
Back
Fore
SplineSet
102 717 m 25xe0
 410 717 l 25
 410 614 l 25xe0
 307 614 l 25
 307 102 l 25xd0
 410 102 l 25
 410 0 l 25
 102 0 l 25
 102 717 l 25xe0
EndSplineSet
EndChar

StartChar: backslash
Encoding: 92 92 60
Width: 614
VWidth: 0
Flags: W
HStem: -102 0G<427 640> 717 0G<107 320>
VStem: 102 205<534 746> 205 205<320 534> 307 205<107 320> 410 205<-107 107>
LayerCount: 2
Back
Fore
SplineSet
102 717 m 25xe0
 307 717 l 25
 307 512 l 25xe0
 410 512 l 25
 410 307 l 25xd0
 512 307 l 25
 512 102 l 25xc8
 614 102 l 25
 614 -102 l 25
 410 -102 l 25
 410 102 l 25xc4
 307 102 l 25
 307 307 l 25xc8
 205 307 l 25
 205 512 l 25xd0
 102 512 l 25
 102 717 l 25xe0
EndSplineSet
EndChar

StartChar: bracketright
Encoding: 93 93 61
Width: 614
VWidth: 0
Flags: W
HStem: 0 102<214 320> 614 102<214 320>
VStem: 205 307<0 107 640 746> 307 205<107 640>
LayerCount: 2
Back
Fore
SplineSet
205 717 m 25xe0
 512 717 l 25
 512 0 l 25
 205 0 l 25
 205 102 l 25xe0
 307 102 l 25
 307 614 l 25xd0
 205 614 l 25
 205 717 l 25xe0
EndSplineSet
EndChar

StartChar: asciicircum
Encoding: 94 94 62
Width: 614
VWidth: 0
Flags: W
HStem: 410 102<0 107 534 640> 512 102<427 534> 614 102<320 427>
VStem: 410 102<534 640> 512 102<427 534>
LayerCount: 2
Back
Fore
SplineSet
205 717 m 25xb0
 410 717 l 25xb0
 410 614 l 25
 512 614 l 25x50
 512 512 l 25x90
 614 512 l 25
 614 410 l 25
 512 410 l 25x88
 512 512 l 25x90
 410 512 l 25
 410 614 l 25x50
 307 614 l 25x30
 307 512 l 25
 205 512 l 25x50
 205 410 l 25
 0 410 l 25
 0 512 l 25
 102 512 l 25
 102 614 l 25
 205 614 l 25
 205 717 l 25xb0
EndSplineSet
EndChar

StartChar: underscore
Encoding: 95 95 63
Width: 614
VWidth: 0
Flags: W
HStem: -102 102<107 640>
LayerCount: 2
Back
Fore
SplineSet
102 0 m 25
 614 0 l 25
 614 -102 l 25
 102 -102 l 25
 102 0 l 25
EndSplineSet
EndChar

StartChar: grave
Encoding: 96 96 64
Width: 614
VWidth: 0
Flags: W
HStem: 410 102<320 427> 717 0G<107 320>
VStem: 102 205<534 746>
LayerCount: 2
Back
Fore
SplineSet
102 717 m 25
 307 717 l 25
 307 512 l 25
 410 512 l 25
 410 410 l 25
 205 410 l 25
 205 512 l 25
 102 512 l 25
 102 717 l 25
EndSplineSet
EndChar

StartChar: a
Encoding: 97 97 65
Width: 614
VWidth: 0
Flags: W
HStem: 0 102<214 320 534 640> 410 102<214 320>
VStem: 102 102<107 427> 307 205<107 427> 512 102<0 107>
LayerCount: 2
Back
Fore
SplineSet
205 512 m 25xf0
 512 512 l 25xe8
 512 102 l 25xf0
 614 102 l 25
 614 0 l 25
 512 0 l 25xe8
 512 102 l 25
 410 102 l 25
 410 0 l 25
 205 0 l 25
 205 102 l 25
 307 102 l 25
 307 410 l 25
 205 410 l 25
 205 102 l 25
 102 102 l 25
 102 410 l 25
 205 410 l 25
 205 512 l 25xf0
EndSplineSet
EndChar

StartChar: b
Encoding: 98 98 66
Width: 614
VWidth: 0
Flags: W
HStem: 0 102<320 427> 410 102<320 427> 717 0G<107 320>
VStem: 102 307<0 107 427 534> 102 205<107 427 534 746> 410 102<107 427>
LayerCount: 2
Back
Fore
SplineSet
102 717 m 25xe8
 307 717 l 25
 307 512 l 25xe8
 410 512 l 25
 410 410 l 25xf0
 307 410 l 25
 307 102 l 25xe8
 410 102 l 25
 410 410 l 25xf0
 512 410 l 25
 512 102 l 25xe4
 410 102 l 25
 410 0 l 25
 102 0 l 25xf0
 102 717 l 25xe8
EndSplineSet
EndChar

StartChar: c
Encoding: 99 99 67
Width: 614
VWidth: 0
Flags: W
HStem: 0 102<320 534> 410 102<320 534>
VStem: 102 205<107 427> 205 307<0 107 427 534>
LayerCount: 2
Back
Fore
SplineSet
102 410 m 25xe0
 205 410 l 25
 205 512 l 25
 512 512 l 25
 512 410 l 25xd0
 307 410 l 25
 307 102 l 25xe0
 512 102 l 25
 512 0 l 25
 205 0 l 25
 205 102 l 25xd0
 102 102 l 25
 102 410 l 25xe0
EndSplineSet
EndChar

StartChar: d
Encoding: 100 100 68
Width: 614
VWidth: 0
Flags: W
HStem: 0 102<214 320> 410 102<214 320> 717 0G<320 534>
VStem: 102 102<107 427> 205 307<0 107 427 534> 307 205<107 427 534 746>
LayerCount: 2
Back
Fore
SplineSet
205 512 m 25xe8
 307 512 l 25
 307 717 l 25
 512 717 l 25xe4
 512 0 l 25
 205 0 l 25xe8
 205 102 l 25
 307 102 l 25
 307 410 l 25
 205 410 l 25
 205 102 l 25
 102 102 l 25
 102 410 l 25
 205 410 l 25xf4
 205 512 l 25xe8
EndSplineSet
EndChar

StartChar: e
Encoding: 101 101 69
Width: 614
VWidth: 0
Flags: W
HStem: 0 102<320 534> 205 102<320 427> 410 102<320 427>
VStem: 102 205<107 214 320 427> 410 102<320 427>
CounterMasks: 1 e0
LayerCount: 2
Back
Fore
SplineSet
205 512 m 25
 410 512 l 25
 410 410 l 25
 307 410 l 25
 307 307 l 25
 410 307 l 25
 410 410 l 25
 512 410 l 25
 512 205 l 25
 307 205 l 25
 307 102 l 25
 512 102 l 25
 512 0 l 25
 205 0 l 25
 205 102 l 25
 102 102 l 25
 102 410 l 25
 205 410 l 25
 205 512 l 25
EndSplineSet
EndChar

StartChar: f
Encoding: 102 102 70
Width: 614
VWidth: 0
Flags: W
HStem: 0 0G<107 320> 410 102<320 534> 614 102<320 534>
VStem: 102 205<0 427 534 640>
LayerCount: 2
Back
Fore
SplineSet
102 614 m 25
 205 614 l 25
 205 717 l 25
 512 717 l 25
 512 614 l 25
 307 614 l 25
 307 512 l 25
 512 512 l 25
 512 410 l 25
 307 410 l 25
 307 0 l 25
 102 0 l 25
 102 614 l 25
EndSplineSet
EndChar

StartChar: g
Encoding: 103 103 71
Width: 614
VWidth: 0
Flags: W
HStem: -102 102<107 320> 102 102<214 320> 410 102<214 320>
VStem: 102 102<214 427> 205 307<107 214 427 534> 307 205<0 107 214 427>
LayerCount: 2
Back
Fore
SplineSet
102 410 m 25xf4
 205 410 l 25xf4
 205 512 l 25
 512 512 l 25xe8
 512 0 l 25
 410 0 l 25
 410 -102 l 25
 102 -102 l 25
 102 0 l 25
 307 0 l 25
 307 102 l 25xf4
 205 102 l 25xe8
 205 205 l 25
 307 205 l 25
 307 410 l 25
 205 410 l 25
 205 205 l 25
 102 205 l 25
 102 410 l 25xf4
EndSplineSet
EndChar

StartChar: h
Encoding: 104 104 72
Width: 614
VWidth: 0
Flags: W
HStem: 0 0G<107 320 427 534> 410 102<320 427> 717 0G<107 320>
VStem: 102 205<0 427 534 746> 410 102<0 427>
LayerCount: 2
Back
Fore
SplineSet
102 717 m 25
 307 717 l 25
 307 512 l 25
 410 512 l 25
 410 410 l 25
 512 410 l 25
 512 0 l 25
 410 0 l 25
 410 410 l 25
 307 410 l 25
 307 0 l 25
 102 0 l 25
 102 717 l 25
EndSplineSet
EndChar

StartChar: i
Encoding: 105 105 73
Width: 614
VWidth: 0
Flags: W
HStem: 0 0G<214 427> 512 0G<214 427> 614 102<214 427>
VStem: 205 205<0 534 640 746>
LayerCount: 2
Back
Fore
SplineSet
205 512 m 25
 410 512 l 25
 410 0 l 25
 205 0 l 25
 205 512 l 25
205 717 m 25
 410 717 l 25
 410 614 l 25
 205 614 l 25
 205 717 l 25
EndSplineSet
EndChar

StartChar: j
Encoding: 106 106 74
Width: 614
VWidth: 0
Flags: W
HStem: -102 102<107 214> 512 0G<214 427> 614 102<214 427>
VStem: 205 205<0 534 640 746>
LayerCount: 2
Back
Fore
SplineSet
205 512 m 25
 410 512 l 25
 410 0 l 25
 307 0 l 25
 307 -102 l 25
 102 -102 l 25
 102 0 l 25
 205 0 l 25
 205 512 l 25
205 717 m 25
 410 717 l 25
 410 614 l 25
 205 614 l 25
 205 717 l 25
EndSplineSet
EndChar

StartChar: k
Encoding: 107 107 75
Width: 614
VWidth: 0
Flags: W
HStem: 0 102<534 640> 102 102<427 534> 307 102<427 534> 410 102<534 640> 717 0G<107 320>
VStem: 102 205<0 214 320 746> 410 102<107 214 320 427> 512 102<0 107 427 534>
LayerCount: 2
Back
Fore
SplineSet
102 717 m 25x8e
 307 717 l 25
 307 307 l 25
 410 307 l 25
 410 410 l 25
 512 410 l 25xae
 512 512 l 25
 614 512 l 25
 614 410 l 25x1d
 512 410 l 25
 512 307 l 25
 410 307 l 25
 410 205 l 25
 512 205 l 25x6e
 512 102 l 25x8e
 614 102 l 25
 614 0 l 25
 512 0 l 25x8d
 512 102 l 25x8e
 410 102 l 25
 410 205 l 25
 307 205 l 25x4e
 307 0 l 25
 102 0 l 25
 102 717 l 25x8e
EndSplineSet
EndChar

StartChar: l
Encoding: 108 108 76
Width: 614
VWidth: 0
Flags: W
HStem: 0 102<320 534> 717 0G<107 320>
VStem: 102 205<107 746>
LayerCount: 2
Back
Fore
SplineSet
102 717 m 25
 307 717 l 25
 307 102 l 25
 512 102 l 25
 512 0 l 25
 205 0 l 25
 205 102 l 25
 102 102 l 25
 102 717 l 25
EndSplineSet
EndChar

StartChar: m
Encoding: 109 109 77
Width: 614
VWidth: 0
Flags: W
HStem: 0 0G<0 214 534 640> 410 102<214 320 427 534>
VStem: 0 205<0 427> 307 102<107 427> 512 102<0 427>
LayerCount: 2
Back
Fore
SplineSet
0 512 m 25
 512 512 l 25
 512 410 l 25
 614 410 l 25
 614 0 l 25
 512 0 l 25
 512 410 l 25
 410 410 l 25
 410 102 l 25
 307 102 l 25
 307 410 l 25
 205 410 l 25
 205 0 l 25
 0 0 l 25
 0 512 l 25
EndSplineSet
EndChar

StartChar: n
Encoding: 110 110 78
Width: 614
VWidth: 0
Flags: W
HStem: 0 0G<107 320 427 534> 410 102<320 427>
VStem: 102 205<0 427> 410 102<0 427>
LayerCount: 2
Back
Fore
SplineSet
102 512 m 25
 410 512 l 25
 410 410 l 25
 512 410 l 25
 512 0 l 25
 410 0 l 25
 410 410 l 25
 307 410 l 25
 307 0 l 25
 102 0 l 25
 102 512 l 25
EndSplineSet
EndChar

StartChar: o
Encoding: 111 111 79
Width: 614
VWidth: 0
Flags: W
HStem: 0 102<320 427> 102 307<107 214 427 534> 410 102<320 427>
VStem: 102 205<107 427> 205 205<0 107 427 534> 410 102<107 427>
LayerCount: 2
Back
Fore
SplineSet
102 410 m 25x50
 205 410 l 25x48
 205 512 l 25
 410 512 l 25x28
 410 410 l 25x48
 307 410 l 25
 307 102 l 25xb0
 410 102 l 25xa8
 410 410 l 25x48
 512 410 l 25
 512 102 l 25x44
 410 102 l 25
 410 0 l 25
 205 0 l 25x88
 205 102 l 25x48
 102 102 l 25
 102 410 l 25x50
EndSplineSet
EndChar

StartChar: p
Encoding: 112 112 80
Width: 614
VWidth: 0
Flags: W
HStem: -102 0G<107 320> 102 102<320 427> 410 102<320 427>
VStem: 102 307<107 214 427 534> 102 205<-107 107 214 427> 410 102<214 427>
LayerCount: 2
Back
Fore
SplineSet
102 512 m 25xf0
 410 512 l 25
 410 410 l 25xf0
 307 410 l 25
 307 205 l 25xe8
 410 205 l 25
 410 410 l 25xf0
 512 410 l 25
 512 205 l 25xe4
 410 205 l 25
 410 102 l 25xf0
 307 102 l 25
 307 -102 l 25
 102 -102 l 25xe8
 102 512 l 25xf0
EndSplineSet
EndChar

StartChar: q
Encoding: 113 113 81
Width: 614
VWidth: 0
Flags: W
HStem: -102 0G<320 534> 102 102<214 320> 410 102<214 320>
VStem: 102 102<214 427> 205 307<107 214 427 534> 307 205<-107 107 214 427>
LayerCount: 2
Back
Fore
SplineSet
102 410 m 25xf4
 205 410 l 25xf4
 205 512 l 25
 512 512 l 25xe8
 512 -102 l 25
 307 -102 l 25
 307 102 l 25xe4
 205 102 l 25xe8
 205 205 l 25
 307 205 l 25
 307 410 l 25
 205 410 l 25
 205 205 l 25
 102 205 l 25
 102 410 l 25xf4
EndSplineSet
EndChar

StartChar: r
Encoding: 114 114 82
Width: 614
VWidth: 0
Flags: W
HStem: 0 0G<107 320> 410 102<320 534>
VStem: 102 205<0 427>
LayerCount: 2
Back
Fore
SplineSet
205 512 m 25
 512 512 l 25
 512 410 l 25
 307 410 l 25
 307 0 l 25
 102 0 l 25
 102 410 l 25
 205 410 l 25
 205 512 l 25
EndSplineSet
EndChar

StartChar: s
Encoding: 115 115 83
Width: 614
VWidth: 0
Flags: W
HStem: 0 102<107 320> 102 102<427 534> 307 102<107 214> 410 102<320 534>
LayerCount: 2
Back
Fore
SplineSet
205 512 m 25x10
 512 512 l 25
 512 410 l 25
 307 410 l 25x10
 307 307 l 25
 410 307 l 25
 410 205 l 25
 512 205 l 25
 512 102 l 25
 410 102 l 25x60
 410 0 l 25
 102 0 l 25
 102 102 l 25
 307 102 l 25x80
 307 205 l 25
 205 205 l 25
 205 307 l 25
 102 307 l 25
 102 410 l 25
 205 410 l 25x60
 205 512 l 25x10
EndSplineSet
EndChar

StartChar: t
Encoding: 116 116 84
Width: 614
VWidth: 0
Flags: W
HStem: 0 102<320 534> 410 102<320 534> 717 0G<107 320>
VStem: 102 205<107 427 534 746>
LayerCount: 2
Back
Fore
SplineSet
102 717 m 25
 307 717 l 25
 307 512 l 25
 512 512 l 25
 512 410 l 25
 307 410 l 25
 307 102 l 25
 512 102 l 25
 512 0 l 25
 205 0 l 25
 205 102 l 25
 102 102 l 25
 102 717 l 25
EndSplineSet
EndChar

StartChar: u
Encoding: 117 117 85
Width: 614
VWidth: 0
Flags: W
HStem: 0 102<214 320> 512 0G<107 214 320 534>
VStem: 102 102<107 534> 307 205<107 534>
LayerCount: 2
Back
Fore
SplineSet
102 512 m 25
 205 512 l 25
 205 102 l 25
 307 102 l 25
 307 512 l 25
 512 512 l 25
 512 0 l 25
 205 0 l 25
 205 102 l 25
 102 102 l 25
 102 512 l 25
EndSplineSet
EndChar

StartChar: v
Encoding: 118 118 86
Width: 614
VWidth: 0
Flags: W
HStem: 0 205<214 427> 205 307<0 107 427 534>
VStem: 0 205<214 534> 410 102<214 534>
LayerCount: 2
Back
Fore
SplineSet
0 512 m 25x70
 205 512 l 25x70
 205 205 l 25
 410 205 l 25xb0
 410 512 l 25
 512 512 l 25
 512 205 l 25x70
 410 205 l 25
 410 0 l 25
 102 0 l 25xb0
 102 205 l 25
 0 205 l 25
 0 512 l 25x70
EndSplineSet
EndChar

StartChar: w
Encoding: 119 119 87
Width: 614
VWidth: 0
Flags: W
HStem: 0 102<214 320 427 534> 512 0G<0 214 534 640>
VStem: 0 205<107 534> 307 102<107 427> 512 102<107 534>
LayerCount: 2
Back
Fore
SplineSet
0 512 m 25
 205 512 l 25
 205 102 l 25
 307 102 l 25
 307 410 l 25
 410 410 l 25
 410 102 l 25
 512 102 l 25
 512 512 l 25
 614 512 l 25
 614 0 l 25
 102 0 l 25
 102 102 l 25
 0 102 l 25
 0 512 l 25
EndSplineSet
EndChar

StartChar: x
Encoding: 120 120 88
Width: 614
VWidth: 0
Flags: W
HStem: 0 205<107 214 427 534> 307 205<107 214 427 534>
VStem: 102 205<320 534> 102 102<0 214> 307 205<0 214> 410 102<320 534>
LayerCount: 2
Back
Fore
SplineSet
102 512 m 25xe0
 307 512 l 25
 307 307 l 25
 410 307 l 25
 410 512 l 25
 512 512 l 25
 512 307 l 25
 410 307 l 25
 410 205 l 25xe4
 512 205 l 25
 512 0 l 25
 307 0 l 25
 307 205 l 25
 205 205 l 25
 205 0 l 25
 102 0 l 25
 102 205 l 25
 205 205 l 25
 205 307 l 25xd8
 102 307 l 25
 102 512 l 25xe0
EndSplineSet
EndChar

StartChar: y
Encoding: 121 121 89
Width: 614
VWidth: 0
Flags: W
HStem: -102 102<214 320> 102 102<214 320> 512 0G<107 214 320 534>
VStem: 102 102<214 534> 307 205<0 107 214 534>
LayerCount: 2
Back
Fore
SplineSet
102 512 m 25
 205 512 l 25
 205 205 l 25
 307 205 l 25
 307 512 l 25
 512 512 l 25
 512 0 l 25
 410 0 l 25
 410 -102 l 25
 205 -102 l 25
 205 0 l 25
 307 0 l 25
 307 102 l 25
 205 102 l 25
 205 205 l 25
 102 205 l 25
 102 512 l 25
EndSplineSet
EndChar

StartChar: z
Encoding: 122 122 90
Width: 614
VWidth: 0
Flags: W
HStem: 0 102<320 534> 410 102<107 320>
LayerCount: 2
Back
Fore
SplineSet
102 512 m 25
 512 512 l 25
 512 307 l 25
 410 307 l 25
 410 205 l 25
 307 205 l 25
 307 102 l 25
 512 102 l 25
 512 0 l 25
 102 0 l 25
 102 205 l 25
 205 205 l 25
 205 307 l 25
 307 307 l 25
 307 410 l 25
 102 410 l 25
 102 512 l 25
EndSplineSet
EndChar

StartChar: braceleft
Encoding: 123 123 91
Width: 614
VWidth: 0
Flags: W
HStem: 0 102<427 534> 307 102<107 214> 614 102<427 534>
VStem: 205 205<107 320 427 640> 307 205<0 107 640 746>
CounterMasks: 1 e0
LayerCount: 2
Back
Fore
SplineSet
102 410 m 25xf0
 205 410 l 25
 205 614 l 25xf0
 307 614 l 25
 307 717 l 25
 512 717 l 25
 512 614 l 25xe8
 410 614 l 25
 410 410 l 25xf0
 307 410 l 25
 307 307 l 25xe8
 410 307 l 25
 410 102 l 25xf0
 512 102 l 25
 512 0 l 25
 307 0 l 25
 307 102 l 25xe8
 205 102 l 25
 205 307 l 25
 102 307 l 25
 102 410 l 25xf0
EndSplineSet
EndChar

StartChar: bar
Encoding: 124 124 92
Width: 614
VWidth: 0
Flags: W
HStem: -102 0G<214 427> 614 0G<214 427>
VStem: 205 205<-107 640>
LayerCount: 2
Back
Fore
SplineSet
205 614 m 25
 410 614 l 25
 410 -102 l 25
 205 -102 l 25
 205 614 l 25
EndSplineSet
EndChar

StartChar: braceright
Encoding: 125 125 93
Width: 614
VWidth: 0
Flags: W
HStem: 0 102<107 214> 307 102<427 534> 614 102<107 214>
VStem: 102 205<0 107 640 746> 205 205<107 320 427 640>
CounterMasks: 1 e0
LayerCount: 2
Back
Fore
SplineSet
102 717 m 25xf0
 307 717 l 25
 307 614 l 25xf0
 410 614 l 25
 410 410 l 25
 512 410 l 25
 512 307 l 25
 410 307 l 25
 410 102 l 25xe8
 307 102 l 25
 307 0 l 25
 102 0 l 25
 102 102 l 25xf0
 205 102 l 25
 205 307 l 25xe8
 307 307 l 25
 307 410 l 25xf0
 205 410 l 25
 205 614 l 25xe8
 102 614 l 25
 102 717 l 25xf0
EndSplineSet
EndChar

StartChar: asciitilde
Encoding: 126 126 94
Width: 614
VWidth: 0
Flags: W
HStem: 205 102<107 214 427 534> 307 102<214 320 534 640>
VStem: 102 102<214 320> 512 102<320 427>
LayerCount: 2
Back
Fore
SplineSet
102 307 m 25xb0
 205 307 l 25xb0
 205 410 l 25
 410 410 l 25x70
 410 307 l 25
 512 307 l 25xb0
 512 410 l 25
 614 410 l 25
 614 307 l 25x70
 512 307 l 25
 512 205 l 25
 307 205 l 25xb0
 307 307 l 25x70
 205 307 l 25
 205 205 l 25
 102 205 l 25
 102 307 l 25xb0
EndSplineSet
EndChar

StartChar: currency
Encoding: 256 164 99
Width: 614
VWidth: 0
Flags: W
HStem: 0 102<0 107 534 640> 512 102<0 107 534 640>
VStem: 0 102<0 107 534 640> 512 102<0 107 534 640>
LayerCount: 2
Back
Fore
SplineSet
205 410 m 25
 205 205 l 25
 410 205 l 25
 410 410 l 25
 205 410 l 25
0 614 m 25
 102 614 l 25
 102 512 l 25
 512 512 l 25
 512 614 l 25
 614 614 l 25
 614 512 l 25
 512 512 l 25
 512 102 l 25
 614 102 l 25
 614 0 l 25
 512 0 l 25
 512 102 l 25
 102 102 l 25
 102 0 l 25
 0 0 l 25
 0 102 l 25
 102 102 l 25
 102 512 l 25
 0 512 l 25
 0 614 l 25
EndSplineSet
EndChar

StartChar: brokenbar
Encoding: 257 166 101
Width: 614
VWidth: 0
Flags: W
HStem: -102 0G<320 427> 614 0G<320 427>
VStem: 307 102<-107 640>
LayerCount: 2
Back
Fore
SplineSet
307 614 m 25
 410 614 l 25
 410 -102 l 25
 307 -102 l 25
 307 614 l 25
EndSplineSet
EndChar

StartChar: dieresis
Encoding: 258 168 103
Width: 614
VWidth: 0
Flags: W
HStem: 512 102<214 320 534 640>
VStem: 205 102<534 640> 512 102<534 640>
LayerCount: 2
Back
Fore
SplineSet
512 614 m 25
 614 614 l 25
 614 512 l 25
 512 512 l 25
 512 614 l 25
205 614 m 25
 307 614 l 25
 307 512 l 25
 205 512 l 25
 205 614 l 25
EndSplineSet
EndChar

StartChar: acute
Encoding: 259 180 114
Width: 614
VWidth: 0
Flags: W
HStem: 410 102<214 320> 717 0G<320 427>
VStem: 205 102<427 534> 307 102<534 746>
LayerCount: 2
Back
Fore
SplineSet
307 717 m 25xd0
 410 717 l 25
 410 512 l 25xd0
 307 512 l 25
 307 410 l 25
 205 410 l 25
 205 512 l 25
 307 512 l 25xe0
 307 717 l 25xd0
EndSplineSet
EndChar

StartChar: cedilla
Encoding: 260 184 118
Width: 614
VWidth: 0
Flags: W
HStem: -205 102<214 427> 0 102<320 427>
VStem: 307 102<0 107> 410 102<-107 0>
LayerCount: 2
Back
Fore
SplineSet
307 102 m 25xe0
 410 102 l 25
 410 0 l 25xe0
 512 0 l 25
 512 -205 l 25
 205 -205 l 25
 205 -102 l 25
 410 -102 l 25xd0
 410 0 l 25
 307 0 l 25
 307 102 l 25xe0
EndSplineSet
EndChar

StartChar: onequarter
Encoding: 261 188 122
Width: 614
VWidth: 0
Flags: W
HStem: -102 0G<427 534> 0 102<320 427 534 640> 102 102<0 107> 205 102<107 214 320 427> 307 102<214 320> 410 102<320 427> 512 102<427 534> 614 102<0 107>
VStem: 0 102<107 214> 102 102<214 320 427 640 746 853> 205 102<107 214 320 427> 307 102<427 534> 410 102<-107 0 107 214 320 427 534 640>
LayerCount: 2
Back
Fore
SplineSet
0 717 m 25x8580
 102 717 l 1
 102 819 l 1
 205 819 l 5
 205 410 l 1x8940
 307 410 l 25x8920
 307 512 l 25
 410 512 l 25x8410
 410 614 l 25
 512 614 l 25
 512 512 l 25x8208
 410 512 l 25
 410 410 l 25x8410
 512 410 l 25
 512 102 l 25
 614 102 l 25
 614 0 l 25
 512 0 l 25
 512 -102 l 25
 410 -102 l 25
 410 0 l 25
 205 0 l 25xc428
 205 205 l 25xd440
 307 205 l 25
 307 102 l 25
 410 102 l 25
 410 205 l 25
 307 205 l 25
 307 307 l 25
 410 307 l 25xd428
 410 410 l 25xd410
 307 410 l 25x8820
 307 307 l 25x9020
 205 307 l 25
 205 205 l 25x9040
 102 205 l 25
 102 102 l 25
 0 102 l 25
 0 205 l 25
 102 205 l 25xa080
 102 307 l 25
 205 307 l 25x9040
 205 410 l 25x8840
 102 410 l 25
 102 614 l 25x8540
 0 614 l 25
 0 717 l 25x8580
EndSplineSet
EndChar

StartChar: onehalf
Encoding: 262 189 123
Width: 614
VWidth: 0
Flags: W
HStem: 0 102<320 427 534 640> 102 102<0 107> 205 102<107 214 534 640> 307 102<214 320 427 534> 512 102<427 534> 614 102<0 107>
VStem: 0 102<107 214> 102 102<214 320 427 640 746 853> 307 102<427 534> 410 102<107 214 534 640> 512 102<214 320>
LayerCount: 2
Back
Fore
SplineSet
0 717 m 25x16
 102 717 l 1x15
 102 819 l 1
 205 819 l 5
 205 410 l 1
 307 410 l 25
 307 512 l 25
 410 512 l 25x1980
 410 614 l 25
 512 614 l 25
 512 512 l 25x1840
 410 512 l 25
 410 410 l 25
 512 410 l 25x18a0
 512 307 l 25
 614 307 l 25
 614 205 l 25x20a0
 512 205 l 25
 512 102 l 25xa040
 614 102 l 25
 614 0 l 25
 307 0 l 25
 307 102 l 25xa0a0
 410 102 l 25
 410 205 l 25
 512 205 l 25xa040
 512 307 l 25
 205 307 l 25
 205 205 l 25xa120
 102 205 l 25
 102 102 l 25
 0 102 l 25
 0 205 l 25
 102 205 l 25x42
 102 307 l 25
 205 307 l 25x21
 205 410 l 25
 102 410 l 25
 102 614 l 25x15
 0 614 l 25
 0 717 l 25x16
EndSplineSet
EndChar

StartChar: threequarters
Encoding: 263 190 124
Width: 614
VWidth: 0
Flags: W
HStem: -102 0G<427 534> 0 102<320 427 534 640> 102 102<0 107> 205 102<107 214 320 427> 410 102<0 214 320 427> 512 102<427 534> 717 102<0 107>
VStem: 0 102<107 214> 102 102<214 320> 205 102<107 214 320 427 534 640> 410 102<-107 0 107 214 320 427 534 640>
LayerCount: 2
Back
Fore
SplineSet
0 819 m 25x8720
 307 819 l 25
 307 512 l 25
 410 512 l 25x8b60
 410 614 l 25
 512 614 l 25
 512 512 l 25x8760
 410 512 l 25
 410 410 l 25
 512 410 l 25
 512 102 l 25
 614 102 l 25
 614 0 l 25
 512 0 l 25
 512 -102 l 25
 410 -102 l 25
 410 0 l 25
 205 0 l 25xcb60
 205 205 l 25xdaa0
 307 205 l 25
 307 102 l 25
 410 102 l 25
 410 205 l 25
 307 205 l 25
 307 307 l 25
 410 307 l 25
 410 410 l 25
 307 410 l 25
 307 307 l 25xda60
 205 307 l 25
 205 205 l 25xdaa0
 102 205 l 25
 102 102 l 25
 0 102 l 25
 0 205 l 25
 102 205 l 25xa320
 102 307 l 25
 205 307 l 25x92a0
 205 410 l 25
 0 410 l 25
 0 512 l 25
 205 512 l 25x9b60
 205 614 l 25x8760
 102 614 l 25
 102 717 l 25x86a0
 0 717 l 25
 0 819 l 25x8720
EndSplineSet
EndChar

StartChar: questiondown
Encoding: 191 191 125
Width: 614
VWidth: 0
Flags: W
HStem: -102 102<214 427> 0 102<427 534> 205 102<214 320> 307 102<320 427> 512 102<320 427>
VStem: 102 102<0 214> 205 102<214 320> 307 102<320 427 534 640> 410 102<0 107>
LayerCount: 2
Back
Fore
SplineSet
307 410 m 25x19
 410 410 l 25
 410 307 l 25x19
 307 307 l 25
 307 205 l 25x2a
 205 205 l 25
 205 0 l 25
 410 0 l 25xac80
 410 102 l 25
 512 102 l 25
 512 0 l 25x4c80
 410 0 l 25
 410 -102 l 25
 205 -102 l 25x8a80
 205 0 l 25x8c
 102 0 l 25
 102 205 l 25
 205 205 l 25x6c
 205 307 l 25
 307 307 l 25x6a
 307 410 l 25x19
307 614 m 25
 410 614 l 25
 410 512 l 25
 307 512 l 25
 307 614 l 25
EndSplineSet
EndChar

StartChar: Agrave
Encoding: 192 192 126
Width: 614
VWidth: 0
Flags: W
HStem: 0 0G<107 320 427 534> 205 102<320 427> 512 0G<427 534> 512 102<320 427>
VStem: 102 205<0 214 320 534> 410 102<0 214 320 534>
LayerCount: 2
Back
Fore
SplineSet
205 717 m 1
 205 819 l 29
 307 819 l 29
 307 717 l 1
 410 717 l 25
 410 614 l 25
 307 614 l 25
 307 717 l 25
 205 717 l 1
102 512 m 25xdc
 205 512 l 25
 205 614 l 25
 410 614 l 25xdc
 410 512 l 25xec
 307 512 l 25xdc
 307 307 l 25
 410 307 l 25
 410 512 l 25
 512 512 l 25xec
 512 0 l 25
 410 0 l 25
 410 205 l 25
 307 205 l 25
 307 0 l 25
 102 0 l 25
 102 512 l 25xdc
EndSplineSet
EndChar

StartChar: Aacute
Encoding: 193 193 127
Width: 614
VWidth: 0
Flags: W
HStem: 0 0G<107 320 427 534> 205 102<320 427> 512 0G<427 534> 512 102<320 427>
VStem: 102 205<0 214 320 534> 410 102<0 214 320 534>
LayerCount: 2
Back
Fore
SplineSet
205 614 m 25
 205 717 l 25
 307 717 l 1
 307 819 l 29
 410 819 l 29
 410 717 l 1
 307 717 l 25
 307 614 l 25
 205 614 l 25
102 512 m 25xdc
 205 512 l 25
 205 614 l 25
 410 614 l 25xdc
 410 512 l 25xec
 307 512 l 25xdc
 307 307 l 25
 410 307 l 25
 410 512 l 25
 512 512 l 25xec
 512 0 l 25
 410 0 l 25
 410 205 l 25
 307 205 l 25
 307 0 l 25
 102 0 l 25
 102 512 l 25xdc
EndSplineSet
EndChar

StartChar: Acircumflex
Encoding: 194 194 128
Width: 614
VWidth: 0
Flags: W
HStem: 0 0G<107 320 427 534> 205 102<320 427> 512 0G<427 534> 512 102<320 427>
VStem: 102 205<0 214 320 534> 410 102<0 214 320 534>
LayerCount: 2
Back
Fore
SplineSet
102 614 m 25
 102 717 l 25
 205 717 l 1
 205 819 l 29
 410 819 l 29
 410 717 l 1
 512 717 l 25
 512 614 l 25
 410 614 l 25
 410 717 l 25
 205 717 l 25
 205 614 l 25
 102 614 l 25
102 512 m 25xdc
 205 512 l 25
 205 614 l 25
 410 614 l 25xdc
 410 512 l 25xec
 307 512 l 25xdc
 307 307 l 25
 410 307 l 25
 410 512 l 25
 512 512 l 25xec
 512 0 l 25
 410 0 l 25
 410 205 l 25
 307 205 l 25
 307 0 l 25
 102 0 l 25
 102 512 l 25xdc
EndSplineSet
EndChar

StartChar: Atilde
Encoding: 195 195 129
Width: 614
VWidth: 0
Flags: W
HStem: 0 0G<107 320 427 534> 205 102<320 427> 512 0G<427 534> 512 102<320 427>
VStem: 102 205<0 214 320 534> 410 102<0 214 320 534>
LayerCount: 2
Back
Fore
SplineSet
102 717 m 1049
102 614 m 25,1,-1
 102 717 l 25,2,-1
 205 717 l 1,3,-1
 205 819 l 29,4,-1
 307 819 l 29,5,-1
 307 717 l 1,6,-1
 410 717 l 1,7,-1
 410 819 l 29,8,-1
 512 819 l 29,9,-1
 512 717 l 1,10,-1
 410 717 l 25,11,-1
 410 614 l 25,12,-1
 307 614 l 25,13,-1
 307 717 l 25,14,-1
 205 717 l 25,15,-1
 205 614 l 25,16,-1
 102 614 l 25,1,-1
102 512 m 25,0,-1
 205 512 l 25,1,-1
 205 614 l 25,2,-1
 410 614 l 25,3,-1
 410 512 l 25,4,-1
 307 512 l 25,5,-1
 307 307 l 25,6,-1
 410 307 l 25,7,-1
 410 512 l 25,8,-1
 512 512 l 25,9,-1
 512 0 l 25,10,-1
 410 0 l 25,11,-1
 410 205 l 25,12,-1
 307 205 l 25,13,-1
 307 0 l 25,14,-1
 102 0 l 25,15,-1
 102 512 l 25,0,-1
EndSplineSet
EndChar

StartChar: null.dup1
Encoding: 196 196 130
Width: 614
VWidth: 0
Flags: W
HStem: 0 0G<107 320 427 534> 205 102<320 427> 512 0G<427 534> 512 102<320 427>
VStem: 102 205<0 214 320 534> 410 102<0 214 320 534>
LayerCount: 2
Back
Fore
SplineSet
410 717 m 1
 410 819 l 29
 512 819 l 29
 512 717 l 1
 410 717 l 1
205 717 m 1
 205 819 l 29
 307 819 l 29
 307 717 l 1
 205 717 l 1
102 512 m 25xdc
 205 512 l 25
 205 614 l 25
 410 614 l 25xdc
 410 512 l 25xec
 307 512 l 25xdc
 307 307 l 25
 410 307 l 25
 410 512 l 25
 512 512 l 25xec
 512 0 l 25
 410 0 l 25
 410 205 l 25
 307 205 l 25
 307 0 l 25
 102 0 l 25
 102 512 l 25xdc
EndSplineSet
EndChar

StartChar: Aring
Encoding: 197 197 131
Width: 614
VWidth: 0
Flags: W
LayerCount: 2
Back
Fore
SplineSet
102 0 m 29
 102 410 l 25
 205 410 l 25
 205 512 l 25
 307 512 l 25
 307 614 l 25
 205 614 l 25
 205 717 l 25
 307 717 l 25
 307 819 l 25
 410 819 l 25
 410 717 l 25
 307 717 l 25
 307 614 l 25
 410 614 l 25
 410 717 l 25
 512 717 l 25
 512 614 l 25
 410 614 l 25
 410 410 l 25
 307 410 l 25
 307 307 l 25
 410 307 l 25
 410 410 l 25
 512 410 l 25
 512 0 l 25
 410 0 l 25
 410 205 l 25
 307 205 l 25
 307 0 l 25
 102 0 l 29
EndSplineSet
EndChar

StartChar: AE
Encoding: 198 198 132
Width: 614
VWidth: 0
Flags: W
HStem: 0 0G<-2 211 318 426> 205 102<211 318> 512 0G<318 426> 512 102<211 318>
VStem: 0 205<0 214 320 534> 307 102<0 214 320 534>
LayerCount: 2
Back
Fore
SplineSet
0 0 m 29
 0 410 l 25
 0 512 l 25
 102 512 l 25
 102 307 l 25
 205 307 l 25
 205 512 l 25
 102 512 l 25
 102 614 l 25
 512 614 l 25
 512 512 l 25
 410 512 l 25
 410 307 l 25
 512 307 l 25
 512 205 l 25
 410 205 l 25
 410 102 l 25
 512 102 l 25
 512 0 l 25
 205 0 l 25
 205 205 l 25
 102 205 l 25
 102 0 l 25
 0 0 l 29
EndSplineSet
EndChar

StartChar: Ccedilla
Encoding: 199 199 133
Width: 614
VWidth: 0
Flags: W
HStem: 0 102<320 534> 512 102<320 534>
VStem: 102 205<107 534> 205 307<0 107 534 640>
LayerCount: 2
Back
Fore
SplineSet
205 -205 m 29
 205 -102 l 25
 307 -102 l 25
 307 0 l 25
 410 0 l 25
 410 -102 l 25
 307 -102 l 25
 307 -205 l 25
 205 -205 l 29
205 614 m 25xd0
 512 614 l 25
 512 512 l 25xd0
 307 512 l 25
 307 102 l 25xe0
 512 102 l 25
 512 0 l 25
 205 0 l 25
 205 102 l 25xd0
 102 102 l 25
 102 512 l 25xe0
 205 512 l 25
 205 614 l 25xd0
EndSplineSet
EndChar

StartChar: Egrave
Encoding: 200 200 134
Width: 614
VWidth: 0
Flags: W
HStem: 0 102<320 534> 307 102<320 427> 512 102<320 534>
VStem: 102 205<107 320 427 534>
LayerCount: 2
Back
Fore
SplineSet
205 717 m 1
 205 819 l 29
 307 819 l 29
 307 717 l 1
 410 717 l 25
 410 614 l 25
 307 614 l 25
 307 717 l 25
 205 717 l 1
102 614 m 25
 512 614 l 25
 512 512 l 25
 307 512 l 25
 307 410 l 25
 410 410 l 25
 410 307 l 25
 307 307 l 25
 307 102 l 25
 512 102 l 25
 512 0 l 25
 102 0 l 25
 102 614 l 25
EndSplineSet
EndChar

StartChar: Eacute
Encoding: 201 201 135
Width: 614
VWidth: 0
Flags: W
HStem: 0 102<320 534> 307 102<320 427> 512 102<320 534>
VStem: 102 205<107 320 427 534>
LayerCount: 2
Back
Fore
SplineSet
205 717 m 25
 307 717 l 1
 307 819 l 29
 410 819 l 29
 410 717 l 1
 307 717 l 25
 307 614 l 25
 205 614 l 25
 205 717 l 25
102 614 m 17
 205 614 l 1
 512 614 l 9
 512 512 l 25
 307 512 l 25
 307 410 l 25
 410 410 l 25
 410 307 l 25
 307 307 l 25
 307 102 l 25
 512 102 l 25
 512 0 l 25
 102 0 l 25
 102 614 l 17
EndSplineSet
EndChar

StartChar: Ecircumflex
Encoding: 202 202 136
Width: 614
VWidth: 0
Flags: W
HStem: 0 102<320 534> 307 102<320 427> 512 102<320 534>
VStem: 102 205<107 320 427 534>
LayerCount: 2
Back
Fore
SplineSet
102 717 m 25
 205 717 l 1
 205 819 l 25
 410 819 l 25
 410 717 l 1
 512 717 l 25
 512 614 l 25
 410 614 l 25
 410 717 l 25
 205 717 l 25
 205 614 l 25
 102 614 l 25
 102 717 l 25
102 614 m 25
 512 614 l 25
 512 512 l 25
 307 512 l 25
 307 410 l 25
 410 410 l 25
 410 307 l 25
 307 307 l 25
 307 102 l 25
 512 102 l 25
 512 0 l 25
 102 0 l 25
 102 614 l 25
EndSplineSet
EndChar

StartChar: Edieresis
Encoding: 203 203 137
Width: 614
VWidth: 0
Flags: W
HStem: 0 102<320 534> 307 102<320 427> 512 102<320 534>
VStem: 102 205<107 320 427 534>
LayerCount: 2
Back
Fore
SplineSet
410 717 m 1
 410 819 l 29
 512 819 l 29
 512 717 l 1
 410 717 l 1
205 717 m 1
 205 819 l 29
 307 819 l 29
 307 717 l 1
 205 717 l 1
102 614 m 25
 512 614 l 25
 512 512 l 25
 307 512 l 25
 307 410 l 25
 410 410 l 25
 410 307 l 25
 307 307 l 25
 307 102 l 25
 512 102 l 25
 512 0 l 25
 102 0 l 25
 102 614 l 25
EndSplineSet
EndChar

StartChar: Igrave
Encoding: 204 204 138
Width: 614
VWidth: 0
Flags: W
HStem: 0 0G<214 427> 614 0G<214 427>
VStem: 205 205<0 640>
LayerCount: 2
Back
Fore
SplineSet
205 819 m 25
 307 819 l 25
 307 717 l 1
 410 717 l 25
 410 614 l 25
 307 614 l 25
 307 717 l 25
 205 717 l 1
 205 819 l 25
205 512 m 25
 410 512 l 25
 410 0 l 1
 205 0 l 1
 205 512 l 25
EndSplineSet
EndChar

StartChar: Iacute
Encoding: 205 205 139
Width: 614
VWidth: 0
Flags: W
HStem: 0 0G<214 427> 614 0G<214 427>
VStem: 205 205<0 640>
LayerCount: 2
Back
Fore
SplineSet
205 614 m 25
 205 717 l 25
 307 717 l 1
 307 819 l 29
 410 819 l 29
 410 717 l 1
 307 717 l 25
 307 614 l 25
 205 614 l 25
205 512 m 1
 410 512 l 1
 410 0 l 1
 205 0 l 1
 205 512 l 1
EndSplineSet
EndChar

StartChar: Icircumflex
Encoding: 206 206 140
Width: 614
VWidth: 0
Flags: W
HStem: 0 0G<214 427> 614 0G<214 427>
VStem: 205 205<0 640>
LayerCount: 2
Back
Fore
SplineSet
102 614 m 25
 102 717 l 25
 205 717 l 1
 205 819 l 29
 410 819 l 29
 410 717 l 1
 512 717 l 25
 512 614 l 25
 410 614 l 25
 410 717 l 25
 205 717 l 25
 205 614 l 25
 102 614 l 25
205 512 m 1
 410 512 l 1
 410 0 l 1
 205 0 l 1
 205 512 l 1
EndSplineSet
EndChar

StartChar: Idieresis
Encoding: 207 207 141
Width: 614
VWidth: 0
Flags: W
HStem: 0 0G<214 427> 614 0G<214 427>
VStem: 205 205<0 640>
LayerCount: 2
Back
Fore
SplineSet
410 614 m 29
 410 717 l 25
 512 717 l 25
 512 614 l 25
 410 614 l 29
205 614 m 25
 205 717 l 25
 307 717 l 25
 307 614 l 25
 205 614 l 25
205 512 m 1
 410 512 l 1
 410 0 l 1
 205 0 l 1
 205 512 l 1
EndSplineSet
EndChar

StartChar: Eth
Encoding: 208 208 142
Width: 614
VWidth: 0
Flags: W
HStem: 0 102<320 534> 307 102<107 214 320 427> 512 0G<534 640> 512 102<320 534>
VStem: 205 307<0 107 534 640> 205 102<107 320 427 534> 512 102<107 534>
LayerCount: 2
Back
Fore
SplineSet
0 410 m 1xe4
 102 410 l 1xe4
 102 614 l 1
 512 614 l 1xd8
 512 512 l 25xe8
 307 512 l 25
 307 410 l 25
 410 410 l 25
 410 307 l 25
 307 307 l 25
 307 102 l 25xd4
 512 102 l 25
 512 512 l 25xe8
 614 512 l 25
 614 102 l 25xe2
 512 102 l 25
 512 0 l 1
 102 0 l 5xe8
 102 307 l 1
 0 307 l 1
 0 410 l 1xe4
EndSplineSet
EndChar

StartChar: Ntilde
Encoding: 209 209 143
Width: 614
VWidth: 0
Flags: W
HStem: 0 0G<107 320 534 640> 205 102<427 534> 307 102<320 427> 614 0G<107 320 534 640>
VStem: 102 205<0 320 427 640> 512 102<0 214 320 640>
LayerCount: 2
Back
Fore
SplineSet
205 717 m 25
 307 717 l 25
 307 819 l 25
 410 819 l 25
 410 717 l 25
 512 717 l 25
 512 819 l 25
 614 819 l 25
 614 717 l 25
 512 717 l 25
 512 614 l 1
 410 614 l 1
 410 717 l 25
 307 717 l 25
 307 614 l 1
 205 614 l 1
 205 717 l 25
102 614 m 25xbc
 307 614 l 25
 307 410 l 25
 410 410 l 25xbc
 410 307 l 25
 512 307 l 25
 512 614 l 25
 614 614 l 25
 614 0 l 25
 512 0 l 25
 512 205 l 25
 410 205 l 25
 410 307 l 25xdc
 307 307 l 25
 307 0 l 25
 102 0 l 25
 102 614 l 25xbc
EndSplineSet
EndChar

StartChar: Ograve
Encoding: 210 210 144
Width: 614
VWidth: 0
Flags: W
HStem: 0 102<320 427> 512 0G<427 534> 512 102<320 427>
VStem: 102 205<107 534> 205 205<0 107 534 640> 410 102<107 534>
LayerCount: 2
Back
Fore
SplineSet
205 717 m 1
 205 819 l 29
 307 819 l 29
 307 717 l 1
 410 717 l 25
 410 614 l 25
 307 614 l 25
 307 717 l 25
 205 717 l 1
102 512 m 25xb0
 205 512 l 25
 205 614 l 25
 410 614 l 25xa8
 410 512 l 25xc8
 307 512 l 25
 307 102 l 25xb0
 410 102 l 25
 410 512 l 25xc8
 512 512 l 25
 512 102 l 25xc4
 410 102 l 25
 410 0 l 25
 205 0 l 25
 205 102 l 25xc8
 102 102 l 25
 102 512 l 25xb0
EndSplineSet
EndChar

StartChar: Oacute
Encoding: 211 211 145
Width: 614
VWidth: 0
Flags: W
HStem: 0 102<320 427> 512 0G<427 534> 512 102<320 427>
VStem: 102 205<107 534> 205 205<0 107 534 640> 410 102<107 534>
LayerCount: 2
Back
Fore
SplineSet
205 717 m 25
 307 717 l 1
 307 819 l 29
 410 819 l 29
 410 717 l 1
 307 717 l 25
 307 614 l 25
 205 614 l 25
 205 717 l 25
102 512 m 25xb0
 205 512 l 25
 205 614 l 25
 410 614 l 25xa8
 410 512 l 25xc8
 307 512 l 25
 307 102 l 25xb0
 410 102 l 25
 410 512 l 25xc8
 512 512 l 25
 512 102 l 25xc4
 410 102 l 25
 410 0 l 25
 205 0 l 25
 205 102 l 25xc8
 102 102 l 25
 102 512 l 25xb0
EndSplineSet
EndChar

StartChar: Ocircumflex
Encoding: 212 212 146
Width: 614
VWidth: 0
Flags: W
HStem: 0 102<320 427> 512 0G<427 534> 512 102<320 427>
VStem: 102 205<107 534> 205 205<0 107 534 640> 410 102<107 534>
LayerCount: 2
Back
Fore
SplineSet
102 614 m 25
 102 717 l 25
 205 717 l 1
 205 819 l 29
 410 819 l 29
 410 717 l 1
 512 717 l 25
 512 614 l 25
 410 614 l 25
 410 717 l 25
 205 717 l 25
 205 614 l 25
 102 614 l 25
102 512 m 25xb0
 205 512 l 25
 205 614 l 25
 410 614 l 25xa8
 410 512 l 25xc8
 307 512 l 25
 307 102 l 25xb0
 410 102 l 25
 410 512 l 25xc8
 512 512 l 25
 512 102 l 25xc4
 410 102 l 25
 410 0 l 25
 205 0 l 25
 205 102 l 25xc8
 102 102 l 25
 102 512 l 25xb0
EndSplineSet
EndChar

StartChar: Otilde
Encoding: 213 213 147
Width: 614
VWidth: 0
Flags: W
HStem: 0 102<320 427> 512 0G<427 534> 512 102<320 427>
VStem: 102 205<107 534> 205 205<0 107 534 640> 410 102<107 534>
LayerCount: 2
Back
Fore
SplineSet
102 614 m 25
 102 717 l 25
 205 717 l 1
 205 819 l 25
 307 819 l 25
 307 717 l 1
 410 717 l 1
 410 819 l 25
 512 819 l 25
 512 717 l 1
 410 717 l 25
 410 614 l 25
 307 614 l 25
 307 717 l 25
 205 717 l 25
 205 614 l 25
 102 614 l 25
102 512 m 25xb0
 205 512 l 25
 205 614 l 25
 410 614 l 25xa8
 410 512 l 25xc8
 307 512 l 25
 307 102 l 25xb0
 410 102 l 25
 410 512 l 25xc8
 512 512 l 25
 512 102 l 25xc4
 410 102 l 25
 410 0 l 25
 205 0 l 25
 205 102 l 25xc8
 102 102 l 25
 102 512 l 25xb0
EndSplineSet
EndChar

StartChar: Odieresis
Encoding: 214 214 148
Width: 614
VWidth: 0
Flags: W
HStem: 0 102<320 427> 512 0G<427 534> 512 102<320 427>
VStem: 102 205<107 534> 205 205<0 107 534 640> 410 102<107 534>
LayerCount: 2
Back
Fore
SplineSet
410 819 m 29
 512 819 l 29
 512 717 l 1
 410 717 l 1
 410 819 l 29
205 819 m 29
 307 819 l 29
 307 717 l 1
 205 717 l 1
 205 819 l 29
102 512 m 25xb0
 205 512 l 25
 205 614 l 25
 410 614 l 25xa8
 410 512 l 25xc8
 307 512 l 25
 307 102 l 25xb0
 410 102 l 25
 410 512 l 25xc8
 512 512 l 25
 512 102 l 25xc4
 410 102 l 25
 410 0 l 25
 205 0 l 25
 205 102 l 25xc8
 102 102 l 25
 102 512 l 25xb0
EndSplineSet
EndChar

StartChar: multiply
Encoding: 215 215 149
Width: 614
VWidth: 0
Flags: W
HStem: 205 102<214 320 427 534> 410 102<214 320 427 534>
VStem: 205 102<214 320 427 534> 410 102<214 320 427 534>
LayerCount: 2
Back
Fore
SplineSet
205 512 m 25
 307 512 l 25
 307 410 l 25
 410 410 l 25
 410 512 l 25
 512 512 l 25
 512 410 l 25
 410 410 l 25
 410 307 l 25
 512 307 l 25
 512 205 l 25
 410 205 l 25
 410 307 l 25
 307 307 l 25
 307 205 l 25
 205 205 l 25
 205 307 l 25
 307 307 l 25
 307 410 l 25
 205 410 l 25
 205 512 l 25
EndSplineSet
EndChar

StartChar: Oslash
Encoding: 216 216 150
Width: 614
VWidth: 0
Flags: W
HStem: 0 102<0 107 214 427> 307 102<320 427> 512 102<214 427 534 640>
VStem: 0 102<0 107> 102 102<107 214 320 534> 205 205<0 107 534 640> 410 102<107 320 427 534> 512 102<534 640>
LayerCount: 2
Back
Fore
SplineSet
0 0 m 29
 0 102 l 25
 102 102 l 25
 102 512 l 25
 205 512 l 25
 205 614 l 25
 410 614 l 25
 410 512 l 25
 307 512 l 25
 307 410 l 25
 410 410 l 25
 410 512 l 25
 512 512 l 25
 512 614 l 25
 614 614 l 25
 614 512 l 25
 512 512 l 25
 512 102 l 25
 410 102 l 25
 410 307 l 25
 307 307 l 25
 307 102 l 25
 410 102 l 25
 410 0 l 25
 205 0 l 25
 205 102 l 25
 102 102 l 25
 102 0 l 25
 0 0 l 29
EndSplineSet
EndChar

StartChar: Ugrave
Encoding: 217 217 151
Width: 614
VWidth: 0
Flags: W
HStem: 0 102<320 427> 614 0G<107 320 427 534>
VStem: 102 205<107 640> 410 102<107 640>
LayerCount: 2
Back
Fore
SplineSet
205 717 m 1
 205 819 l 29
 307 819 l 29
 307 717 l 1
 410 717 l 25
 410 614 l 25
 307 614 l 25
 307 717 l 25
 205 717 l 1
102 614 m 25
 307 614 l 25
 307 102 l 25
 410 102 l 25
 410 614 l 25
 512 614 l 25
 512 0 l 25
 205 0 l 25
 205 102 l 25
 102 102 l 25
 102 614 l 25
EndSplineSet
EndChar

StartChar: Uacute
Encoding: 218 218 152
Width: 614
VWidth: 0
Flags: W
HStem: 0 102<320 427> 614 0G<107 320 427 534>
VStem: 102 205<107 640> 410 102<107 640>
LayerCount: 2
Back
Fore
SplineSet
205 717 m 25
 307 717 l 1
 307 819 l 29
 410 819 l 29
 410 717 l 1
 307 717 l 25
 307 614 l 25
 205 614 l 25
 205 717 l 25
102 614 m 25
 307 614 l 25
 307 102 l 25
 410 102 l 25
 410 614 l 25
 512 614 l 25
 512 0 l 25
 205 0 l 25
 205 102 l 25
 102 102 l 25
 102 614 l 25
EndSplineSet
EndChar

StartChar: Ucircumflex
Encoding: 219 219 153
Width: 614
VWidth: 0
Flags: W
HStem: 0 102<320 427> 614 0G<107 320 427 534>
VStem: 102 205<107 640> 410 102<107 640>
LayerCount: 2
Back
Fore
SplineSet
102 614 m 5
 102 716 l 1
 205 717 l 1
 205 819 l 25
 410 819 l 25
 410 717 l 25
 512 717 l 25
 512 614 l 1
 410 614 l 1
 410 717 l 25
 205 717 l 25
 205 614 l 1
 102 614 l 5
102 614 m 25
 307 614 l 25
 307 102 l 25
 410 102 l 25
 410 614 l 25
 512 614 l 25
 512 0 l 25
 205 0 l 25
 205 102 l 25
 102 102 l 25
 102 614 l 25
EndSplineSet
EndChar

StartChar: Udieresis
Encoding: 220 220 154
Width: 614
VWidth: 0
Flags: W
HStem: 0 102<320 427> 614 0G<107 320 427 534>
VStem: 102 205<107 640> 410 102<107 640>
LayerCount: 2
Back
Fore
SplineSet
410 717 m 1
 410 819 l 29
 512 819 l 29
 512 717 l 1
 410 717 l 1
205 717 m 1
 205 819 l 29
 307 819 l 29
 307 717 l 1
 205 717 l 1
102 614 m 25
 307 614 l 25
 307 102 l 25
 410 102 l 25
 410 614 l 25
 512 614 l 25
 512 0 l 25
 205 0 l 25
 205 102 l 25
 102 102 l 25
 102 614 l 25
EndSplineSet
EndChar

StartChar: Yacute
Encoding: 221 221 155
Width: 614
VWidth: 0
Flags: W
HStem: 0 0G<214 427> 307 102<427 534> 410 205<0 107 534 640>
VStem: 0 205<427 640> 410 102<320 427> 512 102<427 640>
LayerCount: 2
Back
Fore
SplineSet
307 614 m 25
 307 717 l 25
 410 717 l 1
 410 819 l 29
 512 819 l 29
 512 717 l 1
 410 717 l 25
 410 614 l 25
 307 614 l 25
0 614 m 25xb8
 205 614 l 25
 205 410 l 25
 307 410 l 25xb8
 307 307 l 25
 410 307 l 25
 410 410 l 25
 512 410 l 25xd8
 512 614 l 25
 614 614 l 25
 614 410 l 25xb4
 512 410 l 25
 512 307 l 25
 410 307 l 25
 410 0 l 25
 205 0 l 25
 205 307 l 25
 102 307 l 25xd8
 102 410 l 25
 0 410 l 25
 0 614 l 25xb8
EndSplineSet
EndChar

StartChar: Thorn
Encoding: 222 222 156
Width: 614
VWidth: 0
Flags: W
HStem: -102 0G<107 214> 102 102<214 427> 410 102<214 427> 717 0G<107 214>
VStem: 102 307<107 214 427 534> 102 102<-107 107 214 427 534 746> 410 102<214 427>
LayerCount: 2
Back
Fore
SplineSet
102 717 m 1xf4
 307 717 l 1
 307 512 l 1xf4
 410 512 l 1
 410 410 l 1xf8
 307 410 l 1
 307 205 l 1xf4
 410 205 l 1
 410 410 l 25xf8
 512 410 l 25
 512 205 l 25xf2
 410 205 l 25
 410 102 l 1xf8
 307 102 l 1
 307 -102 l 5
 102 -102 l 1
 102 717 l 1xf4
EndSplineSet
EndChar

StartChar: germandbls
Encoding: 223 223 157
Width: 614
VWidth: 0
Flags: W
HStem: -102 0G<107 214> 0 102<320 427> 614 102<214 320>
VStem: 102 102<-107 640> 307 102<0 107 427 640> 410 102<107 427>
LayerCount: 2
Back
Fore
SplineSet
102 614 m 1xf8
 205 614 l 25
 205 717 l 1
 410 717 l 25xf4
 410 410 l 25xf8
 512 410 l 25
 512 102 l 25xf4
 410 102 l 25
 410 0 l 25
 307 0 l 25
 307 102 l 25
 410 102 l 25
 410 410 l 1
 307 410 l 5
 307 410 l 5
 307 -102 l 1
 102 -102 l 1
 102 614 l 1xf8
EndSplineSet
EndChar

StartChar: agrave
Encoding: 224 224 158
Width: 614
VWidth: 0
Flags: W
HStem: 0 102<214 320 534 640> 410 102<214 320>
VStem: 102 102<107 427> 307 205<107 427> 512 102<0 107>
LayerCount: 2
Back
Fore
SplineSet
205 717 m 1
 205 819 l 29
 307 819 l 29
 307 717 l 1
 410 717 l 25
 410 614 l 25
 307 614 l 25
 307 717 l 25
 205 717 l 1
205 512 m 25xf0
 512 512 l 25xe8
 512 102 l 25xf0
 614 102 l 25
 614 0 l 25
 512 0 l 25xe8
 512 102 l 25
 410 102 l 25
 410 0 l 25
 205 0 l 25
 205 102 l 25
 307 102 l 25
 307 410 l 25
 205 410 l 25
 205 102 l 25
 102 102 l 25
 102 410 l 25
 205 410 l 25
 205 512 l 25xf0
EndSplineSet
EndChar

StartChar: aacute
Encoding: 225 225 159
Width: 614
VWidth: 0
Flags: W
HStem: 0 102<214 320 534 640> 410 102<214 320>
VStem: 102 102<107 427> 307 205<107 427> 512 102<0 107>
LayerCount: 2
Back
Fore
SplineSet
205 614 m 25
 205 717 l 25
 307 717 l 1
 307 819 l 29
 410 819 l 29
 410 717 l 1
 307 717 l 25
 307 614 l 25
 205 614 l 25
205 512 m 25xf0
 512 512 l 25xe8
 512 102 l 25xf0
 614 102 l 25
 614 0 l 25
 512 0 l 25xe8
 512 102 l 25
 410 102 l 25
 410 0 l 25
 205 0 l 25
 205 102 l 25
 307 102 l 25
 307 410 l 25
 205 410 l 25
 205 102 l 25
 102 102 l 25
 102 410 l 25
 205 410 l 25
 205 512 l 25xf0
EndSplineSet
EndChar

StartChar: acircumflex
Encoding: 226 226 160
Width: 614
VWidth: 0
Flags: W
HStem: 0 102<214 320 534 640> 410 102<214 320>
VStem: 102 102<107 427> 307 205<107 427> 512 102<0 107>
LayerCount: 2
Back
Fore
SplineSet
102 614 m 25
 102 717 l 25
 205 717 l 1
 205 819 l 29
 410 819 l 29
 410 717 l 1
 512 717 l 25
 512 614 l 25
 410 614 l 25
 410 717 l 25
 205 717 l 25
 205 614 l 25
 102 614 l 25
205 512 m 25xf0
 512 512 l 25xe8
 512 102 l 25xf0
 614 102 l 25
 614 0 l 25
 512 0 l 25xe8
 512 102 l 25
 410 102 l 25
 410 0 l 25
 205 0 l 25
 205 102 l 25
 307 102 l 25
 307 410 l 25
 205 410 l 25
 205 102 l 25
 102 102 l 25
 102 410 l 25
 205 410 l 25
 205 512 l 25xf0
EndSplineSet
EndChar

StartChar: atilde
Encoding: 227 227 161
Width: 614
VWidth: 0
Flags: W
HStem: 0 102<214 320 534 640> 410 102<214 320>
VStem: 102 102<107 427> 307 205<107 427> 512 102<0 107>
LayerCount: 2
Back
Fore
SplineSet
102 614 m 25
 102 717 l 25
 205 717 l 1
 205 819 l 29
 307 819 l 29
 307 717 l 1
 410 717 l 1
 410 819 l 29
 512 819 l 29
 512 717 l 1
 410 717 l 25
 410 614 l 25
 307 614 l 25
 307 717 l 25
 205 717 l 25
 205 614 l 25
 102 614 l 25
205 512 m 25xf0
 512 512 l 25xe8
 512 102 l 25xf0
 614 102 l 25
 614 0 l 25
 512 0 l 25xe8
 512 102 l 25
 410 102 l 25
 410 0 l 25
 205 0 l 25
 205 102 l 25
 307 102 l 25
 307 410 l 25
 205 410 l 25
 205 102 l 25
 102 102 l 25
 102 410 l 25
 205 410 l 25
 205 512 l 25xf0
EndSplineSet
EndChar

StartChar: adieresis
Encoding: 228 228 162
Width: 614
VWidth: 0
Flags: W
HStem: 0 102<214 320 534 640> 410 102<214 320>
VStem: 102 102<107 427> 307 205<107 427> 512 102<0 107>
LayerCount: 2
Back
Fore
SplineSet
410 614 m 29
 410 717 l 25
 512 717 l 25
 512 614 l 25
 410 614 l 29
205 614 m 25
 205 717 l 25
 307 717 l 25
 307 614 l 25
 205 614 l 25
205 512 m 25xf0
 512 512 l 25xe8
 512 102 l 25xf0
 614 102 l 25
 614 0 l 25
 512 0 l 25xe8
 512 102 l 25
 410 102 l 25
 410 0 l 25
 205 0 l 25
 205 102 l 25
 307 102 l 25
 307 410 l 25
 205 410 l 25
 205 102 l 25
 102 102 l 25
 102 410 l 25
 205 410 l 25
 205 512 l 25xf0
EndSplineSet
EndChar

StartChar: aring
Encoding: 229 229 163
Width: 614
VWidth: 0
Flags: W
HStem: 0 102<214 320 534 640> 410 102<214 320>
VStem: 102 102<107 427> 307 205<107 427> 512 102<0 107>
LayerCount: 2
Back
Fore
SplineSet
205 614 m 5
 204 717 l 29
 306 717 l 29
 306 819 l 29
 409 819 l 29
 409 717 l 29
 511 717 l 29
 512 614 l 5
 410 614 l 5
 409 717 l 29
 306 717 l 29
 307 614 l 5
 410 614 l 5
 410 512 l 1
 307 512 l 1
 307 614 l 5
 205 614 l 5
205 512 m 25xf0
 512 512 l 25xe8
 512 102 l 25xf0
 614 102 l 25
 614 0 l 25
 512 0 l 25xe8
 512 102 l 25
 410 102 l 25
 410 0 l 25
 205 0 l 25
 205 102 l 25
 307 102 l 25
 307 410 l 25
 205 410 l 25
 205 102 l 25
 102 102 l 25
 102 410 l 25
 205 410 l 25
 205 512 l 25xf0
EndSplineSet
EndChar

StartChar: ae
Encoding: 230 230 164
Width: 614
VWidth: 0
Flags: W
HStem: 0 102<107 320 427 640> 102 102<0 107> 205 102<107 320 427 534> 410 102<107 320 427 534>
VStem: 0 102<107 214> 307 102<107 214 320 427> 512 102<320 427>
LayerCount: 2
Back
Fore
SplineSet
102 512 m 25x3e
 512 512 l 25
 512 410 l 25
 410 410 l 25
 410 307 l 25
 512 307 l 25
 512 410 l 25
 614 410 l 25
 614 205 l 25
 410 205 l 25
 410 102 l 25
 614 102 l 25
 614 0 l 25
 410 0 l 25
 410 102 l 1
 307 102 l 29
 307 0 l 1
 102 0 l 25
 102 102 l 1
 205 102 l 1
 205 205 l 1xbe
 102 205 l 1x5e
 102 102 l 25x9e
 0 102 l 25
 0 205 l 25
 102 205 l 25x5e
 102 307 l 1
 205 307 l 1
 205 410 l 1
 102 410 l 1
 102 512 l 25x3e
EndSplineSet
EndChar

StartChar: ccedilla
Encoding: 231 231 165
Width: 614
VWidth: 0
Flags: W
HStem: 0 102<320 534> 410 102<320 534>
VStem: 102 205<107 427> 205 307<0 107 427 534>
LayerCount: 2
Back
Fore
SplineSet
205 -205 m 29
 205 -102 l 25
 307 -102 l 25
 307 0 l 25
 410 0 l 25
 410 -102 l 25
 307 -102 l 25
 307 -205 l 25
 205 -205 l 29
102 410 m 25xe0
 205 410 l 25
 205 512 l 25
 512 512 l 25
 512 410 l 25xd0
 307 410 l 25
 307 102 l 25xe0
 512 102 l 25
 512 0 l 25
 205 0 l 25
 205 102 l 25xd0
 102 102 l 25
 102 410 l 25xe0
EndSplineSet
EndChar

StartChar: egrave
Encoding: 232 232 166
Width: 614
VWidth: 0
Flags: W
HStem: 0 102<320 534> 205 102<320 427> 410 102<320 427>
VStem: 102 205<107 214 320 427> 410 102<320 427>
LayerCount: 2
Back
Fore
SplineSet
205 717 m 1
 205 819 l 29
 307 819 l 29
 307 717 l 1
 410 717 l 25
 410 614 l 25
 307 614 l 25
 307 717 l 25
 205 717 l 1
205 512 m 25
 410 512 l 25
 410 410 l 25
 307 410 l 25
 307 307 l 25
 410 307 l 25
 410 410 l 25
 512 410 l 25
 512 205 l 25
 307 205 l 25
 307 102 l 25
 512 102 l 25
 512 0 l 25
 205 0 l 25
 205 102 l 25
 102 102 l 25
 102 410 l 25
 205 410 l 25
 205 512 l 25
EndSplineSet
EndChar

StartChar: eacute
Encoding: 233 233 167
Width: 614
VWidth: 0
Flags: W
HStem: 0 102<320 534> 205 102<320 427> 410 102<320 427>
VStem: 102 205<107 214 320 427> 410 102<320 427>
LayerCount: 2
Back
Fore
SplineSet
205 614 m 25
 205 717 l 25
 307 717 l 1
 307 819 l 29
 410 819 l 29
 410 717 l 1
 307 717 l 25
 307 614 l 25
 205 614 l 25
205 512 m 25
 410 512 l 25
 410 410 l 25
 307 410 l 25
 307 307 l 25
 410 307 l 25
 410 410 l 25
 512 410 l 25
 512 205 l 25
 307 205 l 25
 307 102 l 25
 512 102 l 25
 512 0 l 25
 205 0 l 25
 205 102 l 25
 102 102 l 25
 102 410 l 25
 205 410 l 25
 205 512 l 25
EndSplineSet
EndChar

StartChar: ecircumflex
Encoding: 234 234 168
Width: 614
VWidth: 0
Flags: W
HStem: 0 102<320 534> 205 102<320 427> 410 102<320 427>
VStem: 102 205<107 214 320 427> 410 102<320 427>
LayerCount: 2
Back
Fore
SplineSet
102 614 m 25
 102 717 l 25
 205 717 l 1
 205 819 l 29
 410 819 l 29
 410 717 l 1
 512 717 l 25
 512 614 l 25
 410 614 l 25
 410 717 l 25
 205 717 l 25
 205 614 l 25
 102 614 l 25
205 512 m 25
 410 512 l 25
 410 410 l 25
 307 410 l 25
 307 307 l 25
 410 307 l 25
 410 410 l 25
 512 410 l 25
 512 205 l 25
 307 205 l 25
 307 102 l 25
 512 102 l 25
 512 0 l 25
 205 0 l 25
 205 102 l 25
 102 102 l 25
 102 410 l 25
 205 410 l 25
 205 512 l 25
EndSplineSet
EndChar

StartChar: edieresis
Encoding: 235 235 169
Width: 614
VWidth: 0
Flags: W
HStem: 0 102<320 534> 205 102<320 427> 410 102<320 427>
VStem: 102 205<107 214 320 427> 410 102<320 427>
LayerCount: 2
Back
Fore
SplineSet
410 614 m 29
 410 717 l 25
 512 717 l 25
 512 614 l 25
 410 614 l 29
205 614 m 25
 205 717 l 25
 307 717 l 25
 307 614 l 25
 205 614 l 25
205 512 m 25
 410 512 l 25
 410 410 l 25
 307 410 l 25
 307 307 l 25
 410 307 l 25
 410 410 l 25
 512 410 l 25
 512 205 l 25
 307 205 l 25
 307 102 l 25
 512 102 l 25
 512 0 l 25
 205 0 l 25
 205 102 l 25
 102 102 l 25
 102 410 l 25
 205 410 l 25
 205 512 l 25
EndSplineSet
EndChar

StartChar: igrave
Encoding: 236 236 170
Width: 614
VWidth: 0
Flags: W
HStem: 0 0G<214 427> 512 0G<214 427> 614 102<214 427>
VStem: 205 205<0 534 640 746>
LayerCount: 2
Back
Fore
SplineSet
205 717 m 1
 205 819 l 29
 307 819 l 29
 307 717 l 1
 410 717 l 25
 410 614 l 25
 307 614 l 25
 307 717 l 25
 205 717 l 1
205 512 m 25
 410 512 l 25
 410 0 l 25
 205 0 l 25
 205 512 l 25
EndSplineSet
EndChar

StartChar: iacute
Encoding: 237 237 171
Width: 614
VWidth: 0
Flags: W
HStem: 0 0G<214 427> 512 0G<214 427> 614 102<214 427>
VStem: 205 205<0 534 640 746>
LayerCount: 2
Back
Fore
SplineSet
205 614 m 25
 205 717 l 25
 307 717 l 1
 307 819 l 29
 410 819 l 29
 410 717 l 1
 307 717 l 25
 307 614 l 25
 205 614 l 25
205 512 m 25
 410 512 l 25
 410 0 l 25
 205 0 l 25
 205 512 l 25
EndSplineSet
EndChar

StartChar: icircumflex
Encoding: 238 238 172
Width: 614
VWidth: 0
Flags: W
HStem: 0 0G<214 427> 512 0G<214 427> 614 102<214 427>
VStem: 205 205<0 534 640 746>
LayerCount: 2
Back
Fore
SplineSet
102 614 m 25
 102 717 l 25
 205 717 l 1
 205 819 l 5
 410 819 l 1
 410 717 l 1
 512 717 l 25
 512 614 l 25
 410 614 l 25
 410 717 l 25
 205 717 l 25
 205 614 l 25
 102 614 l 25
205 512 m 25
 410 512 l 25
 410 0 l 25
 205 0 l 25
 205 512 l 25
EndSplineSet
EndChar

StartChar: idieresis
Encoding: 239 239 173
Width: 614
VWidth: 0
Flags: W
HStem: 0 0G<214 427> 512 0G<214 427> 614 102<214 427>
VStem: 205 205<0 534 640 746>
LayerCount: 2
Back
Fore
SplineSet
410 614 m 29
 410 717 l 25
 512 717 l 25
 512 614 l 25
 410 614 l 29
102 614 m 25
 102 717 l 25
 205 717 l 25
 205 614 l 25
 102 614 l 25
205 512 m 25
 410 512 l 25
 410 0 l 25
 205 0 l 25
 205 512 l 25
EndSplineSet
EndChar

StartChar: eth
Encoding: 240 240 174
Width: 614
VWidth: 0
Flags: W
HStem: 0 102<106 318> 102 102<-2 106> 205 102<106 318> 410 102<211 318> 512 102<426 531> 614 102<211 318>
VStem: 0 102<107 214> 205 102<640 746> 307 102<107 214 320 427>
LayerCount: 2
Back
Fore
SplineSet
205 717 m 25x37
 307 717 l 25
 307 614 l 1x37
 512 614 l 5
 512 512 l 1
 512 307 l 1
 512 102 l 1x4a80
 307 102 l 1
 307 205 l 1xa280
 102 205 l 25x4280
 102 102 l 1
 410 102 l 1
 410 0 l 1
 102 0 l 1
 102 102 l 25x8280
 0 102 l 25
 0 205 l 25
 102 205 l 25x4280
 102 307 l 25
 307 307 l 1
 307 410 l 25x3280
 205 410 l 1
 205 512 l 25x33
 307 512 l 25x3280
 307 614 l 25
 205 614 l 25
 205 717 l 25x37
EndSplineSet
EndChar

StartChar: ntilde
Encoding: 241 241 175
Width: 614
VWidth: 0
Flags: W
HStem: 0 0G<107 320 427 534> 410 102<320 427>
VStem: 102 205<0 427> 410 102<0 427>
LayerCount: 2
Back
Fore
SplineSet
102 614 m 25
 102 717 l 25
 205 717 l 1
 205 819 l 29
 307 819 l 29
 307 717 l 1
 410 717 l 1
 410 819 l 29
 512 819 l 29
 512 717 l 1
 410 717 l 25
 410 614 l 25
 307 614 l 25
 307 717 l 25
 205 717 l 25
 205 614 l 25
 102 614 l 25
102 512 m 25
 410 512 l 25
 410 410 l 25
 512 410 l 25
 512 0 l 25
 410 0 l 25
 410 410 l 25
 307 410 l 25
 307 0 l 25
 102 0 l 25
 102 512 l 25
EndSplineSet
EndChar

StartChar: ograve
Encoding: 242 242 176
Width: 614
VWidth: 0
Flags: W
HStem: 0 102<320 427> 102 307<107 214 427 534> 410 102<320 427>
VStem: 102 205<107 427> 205 205<0 107 427 534> 410 102<107 427>
LayerCount: 2
Back
Fore
SplineSet
205 717 m 1
 205 819 l 29
 307 819 l 29
 307 717 l 1
 410 717 l 25
 410 614 l 25
 307 614 l 25
 307 717 l 25
 205 717 l 1
102 410 m 25x50
 205 410 l 25x48
 205 512 l 25
 410 512 l 25x28
 410 410 l 25x48
 307 410 l 25
 307 102 l 25xb0
 410 102 l 25xa8
 410 410 l 25x48
 512 410 l 25
 512 102 l 25x44
 410 102 l 25
 410 0 l 25
 205 0 l 25x88
 205 102 l 25x48
 102 102 l 25
 102 410 l 25x50
EndSplineSet
EndChar

StartChar: oacute
Encoding: 243 243 177
Width: 614
VWidth: 0
Flags: W
HStem: 0 102<320 427> 102 307<107 214 427 534> 410 102<320 427>
VStem: 102 205<107 427> 205 205<0 107 427 534> 410 102<107 427>
LayerCount: 2
Back
Fore
SplineSet
205 614 m 25
 205 717 l 25
 307 717 l 1
 307 819 l 29
 410 819 l 29
 410 717 l 1
 307 717 l 25
 307 614 l 25
 205 614 l 25
102 410 m 25x50
 205 410 l 25x48
 205 512 l 25
 410 512 l 25x28
 410 410 l 25x48
 307 410 l 25
 307 102 l 25xb0
 410 102 l 25xa8
 410 410 l 25x48
 512 410 l 25
 512 102 l 25x44
 410 102 l 25
 410 0 l 25
 205 0 l 25x88
 205 102 l 25x48
 102 102 l 25
 102 410 l 25x50
EndSplineSet
EndChar

StartChar: ocircumflex
Encoding: 244 244 178
Width: 614
VWidth: 0
Flags: W
HStem: 0 102<320 427> 102 307<107 214 427 534> 410 102<320 427>
VStem: 102 205<107 427> 205 205<0 107 427 534> 410 102<107 427>
LayerCount: 2
Back
Fore
SplineSet
102 614 m 25
 102 717 l 25
 205 717 l 1
 205 819 l 29
 410 819 l 29
 410 717 l 1
 512 717 l 25
 512 614 l 25
 410 614 l 25
 410 717 l 25
 205 717 l 25
 205 614 l 25
 102 614 l 25
102 410 m 25x50
 205 410 l 25x48
 205 512 l 25
 410 512 l 25x28
 410 410 l 25x48
 307 410 l 25
 307 102 l 25xb0
 410 102 l 25xa8
 410 410 l 25x48
 512 410 l 25
 512 102 l 25x44
 410 102 l 25
 410 0 l 25
 205 0 l 25x88
 205 102 l 25x48
 102 102 l 25
 102 410 l 25x50
EndSplineSet
EndChar

StartChar: otilde
Encoding: 245 245 179
Width: 614
VWidth: 0
Flags: W
HStem: 0 102<320 427> 102 307<107 214 427 534> 410 102<320 427>
VStem: 102 205<107 427> 205 205<0 107 427 534> 410 102<107 427>
LayerCount: 2
Back
Fore
SplineSet
102 614 m 25
 102 717 l 25
 205 717 l 1
 205 819 l 29
 307 819 l 29
 307 717 l 1
 410 717 l 1
 410 819 l 29
 512 819 l 29
 512 717 l 1
 410 717 l 25
 410 614 l 25
 307 614 l 25
 307 717 l 25
 205 717 l 25
 205 614 l 25
 102 614 l 25
102 410 m 25x50
 205 410 l 25x48
 205 512 l 25
 410 512 l 25x28
 410 410 l 25x48
 307 410 l 25
 307 102 l 25xb0
 410 102 l 25xa8
 410 410 l 25x48
 512 410 l 25
 512 102 l 25x44
 410 102 l 25
 410 0 l 25
 205 0 l 25x88
 205 102 l 25x48
 102 102 l 25
 102 410 l 25x50
EndSplineSet
EndChar

StartChar: odieresis
Encoding: 246 246 180
Width: 614
VWidth: 0
Flags: W
HStem: 0 102<320 427> 102 307<107 214 427 534> 410 102<320 427>
VStem: 102 205<107 427> 205 205<0 107 427 534> 410 102<107 427>
LayerCount: 2
Back
Fore
SplineSet
410 614 m 29
 410 717 l 25
 512 717 l 25
 512 614 l 25
 410 614 l 29
205 614 m 25
 205 717 l 25
 307 717 l 25
 307 614 l 25
 205 614 l 25
102 410 m 25x50
 205 410 l 25x48
 205 512 l 25
 410 512 l 25x28
 410 410 l 25x48
 307 410 l 25
 307 102 l 25xb0
 410 102 l 25xa8
 410 410 l 25x48
 512 410 l 25
 512 102 l 25x44
 410 102 l 25
 410 0 l 25
 205 0 l 25x88
 205 102 l 25x48
 102 102 l 25
 102 410 l 25x50
EndSplineSet
EndChar

StartChar: divide
Encoding: 247 247 181
Width: 614
VWidth: 0
Flags: W
HStem: 102 102<320 427> 307 102<107 640> 512 102<320 427>
VStem: 307 102<107 214 534 640>
LayerCount: 2
Back
Fore
SplineSet
307 205 m 25
 410 205 l 25
 410 102 l 25
 307 102 l 25
 307 205 l 25
102 410 m 25
 614 410 l 25
 614 307 l 25
 102 307 l 25
 102 410 l 25
307 614 m 25
 410 614 l 25
 410 512 l 25
 307 512 l 25
 307 614 l 25
EndSplineSet
EndChar

StartChar: oslash
Encoding: 248 248 182
Width: 614
VWidth: 0
Flags: W
HStem: 0 102<320 427> 102 307<107 214 427 534> 410 102<320 427>
VStem: 102 205<107 427> 205 205<0 107 427 534> 410 102<107 427>
LayerCount: 2
Back
Fore
SplineSet
0 0 m 29
 0 102 l 25
 102 102 l 25
 102 410 l 25
 205 410 l 25
 205 512 l 25
 410 512 l 25
 410 410 l 25
 307 410 l 25
 307 307 l 25
 410 307 l 25
 410 410 l 25
 512 410 l 25
 512 512 l 25
 614 512 l 25
 614 410 l 25
 512 410 l 25
 512 102 l 25
 410 102 l 25
 410 205 l 25
 307 205 l 25
 307 102 l 25
 410 102 l 25
 410 0 l 25
 205 0 l 25
 205 102 l 25
 102 102 l 25
 102 0 l 25
 0 0 l 29
EndSplineSet
EndChar

StartChar: ugrave
Encoding: 249 249 183
Width: 614
VWidth: 0
Flags: W
HStem: 0 102<214 320> 512 0G<107 214 320 534>
VStem: 102 102<107 534> 307 205<107 534>
LayerCount: 2
Back
Fore
SplineSet
205 717 m 1
 205 819 l 1
 307 819 l 5
 307 717 l 1
 410 717 l 25
 410 614 l 25
 307 614 l 25
 307 717 l 25
 205 717 l 1
102 512 m 25
 205 512 l 25
 205 102 l 25
 307 102 l 25
 307 512 l 25
 512 512 l 25
 512 0 l 25
 205 0 l 25
 205 102 l 25
 102 102 l 25
 102 512 l 25
EndSplineSet
EndChar

StartChar: uacute
Encoding: 250 250 184
Width: 614
VWidth: 0
Flags: W
HStem: 0 102<214 320> 512 0G<107 214 320 534>
VStem: 102 102<107 534> 307 205<107 534>
LayerCount: 2
Back
Fore
SplineSet
205 614 m 25
 205 717 l 25
 307 717 l 1
 307 819 l 1
 410 819 l 5
 410 717 l 1
 307 717 l 25
 307 614 l 25
 205 614 l 25
102 512 m 25
 205 512 l 25
 205 102 l 25
 307 102 l 25
 307 512 l 25
 512 512 l 25
 512 0 l 25
 205 0 l 25
 205 102 l 25
 102 102 l 25
 102 512 l 25
EndSplineSet
EndChar

StartChar: ucircumflex
Encoding: 251 251 185
Width: 614
VWidth: 0
Flags: W
HStem: 0 102<214 320> 512 0G<107 214 320 534>
VStem: 102 102<107 534> 307 205<107 534>
LayerCount: 2
Back
Fore
SplineSet
102 614 m 25
 102 717 l 25
 205 717 l 1
 205 819 l 1
 410 819 l 5
 410 717 l 1
 512 717 l 25
 512 614 l 25
 410 614 l 25
 410 717 l 25
 205 717 l 25
 205 614 l 25
 102 614 l 25
102 512 m 25
 205 512 l 25
 205 102 l 25
 307 102 l 25
 307 512 l 25
 512 512 l 25
 512 0 l 25
 205 0 l 25
 205 102 l 25
 102 102 l 25
 102 512 l 25
EndSplineSet
EndChar

StartChar: udieresis
Encoding: 252 252 186
Width: 614
VWidth: 0
Flags: W
HStem: 0 102<214 320> 512 0G<107 214 320 534>
VStem: 102 102<107 534> 307 205<107 534>
LayerCount: 2
Back
Fore
SplineSet
307 614 m 29
 307 717 l 25
 410 717 l 25
 410 614 l 25
 307 614 l 29
102 614 m 25
 102 717 l 25
 205 717 l 25
 205 614 l 25
 102 614 l 25
102 512 m 25
 205 512 l 25
 205 102 l 25
 307 102 l 25
 307 512 l 25
 512 512 l 25
 512 0 l 25
 205 0 l 25
 205 102 l 25
 102 102 l 25
 102 512 l 25
EndSplineSet
EndChar

StartChar: yacute
Encoding: 253 253 187
Width: 614
VWidth: 0
Flags: W
HStem: -102 102<214 320> 102 102<214 320> 512 0G<107 214 320 534>
VStem: 102 102<214 534> 307 205<0 107 214 534>
LayerCount: 2
Back
Fore
SplineSet
205 614 m 25
 205 717 l 25
 307 717 l 1
 307 819 l 1
 410 819 l 5
 410 717 l 1
 307 717 l 25
 307 614 l 25
 205 614 l 25
102 512 m 25
 205 512 l 25
 205 205 l 25
 307 205 l 25
 307 512 l 25
 512 512 l 25
 512 0 l 25
 410 0 l 25
 410 -102 l 25
 205 -102 l 25
 205 0 l 25
 307 0 l 25
 307 102 l 25
 205 102 l 25
 205 205 l 25
 102 205 l 25
 102 512 l 25
EndSplineSet
EndChar

StartChar: thorn
Encoding: 254 254 188
Width: 614
VWidth: 0
Flags: W
HStem: -102 0G<107 214> 102 102<214 427> 205 102<427 534> 614 0G<107 214>
VStem: 102 307<107 214 320 427> 102 102<-107 107 214 320 427 640> 410 102<214 320>
LayerCount: 2
Back
Fore
SplineSet
102 614 m 1xd4
 307 614 l 1
 307 410 l 1xd4
 410 410 l 1
 410 307 l 1xb8
 307 307 l 1xb4
 307 205 l 1xd4
 410 205 l 1xd8
 410 307 l 25xb8
 512 307 l 25
 512 205 l 25xb2
 410 205 l 25
 410 102 l 1xd8
 307 102 l 1
 307 -102 l 5
 102 -102 l 1
 102 614 l 1xd4
EndSplineSet
EndChar

StartChar: ydieresis
Encoding: 255 255 189
Width: 614
VWidth: 0
Flags: W
HStem: -102 102<214 320> 102 102<214 320> 512 0G<107 214 320 534>
VStem: 102 102<214 534> 307 205<0 107 214 534>
LayerCount: 2
Back
Fore
SplineSet
307 614 m 29
 307 717 l 25
 410 717 l 25
 410 614 l 25
 307 614 l 29
102 614 m 25
 102 717 l 25
 205 717 l 25
 205 614 l 25
 102 614 l 25
102 512 m 25
 205 512 l 25
 205 205 l 25
 307 205 l 25
 307 512 l 25
 512 512 l 25
 512 0 l 25
 410 0 l 25
 410 -102 l 25
 205 -102 l 25
 205 0 l 25
 307 0 l 25
 307 102 l 25
 205 102 l 25
 205 205 l 25
 102 205 l 25
 102 512 l 25
EndSplineSet
EndChar

StartChar: Euro
Encoding: 164 8364 256
Width: 614
VWidth: 0
Flags: W
HStem: 0 0<32 64> 0 0<11 22 32 53>
VStem: 0 0<11 22 43 53> 0 0<0 11 53 64>
LayerCount: 2
Fore
SplineSet
0 0 m 25xd0
 0 0 l 25
 0 0 l 25
 0 0 l 25
 0 0 l 25
 0 0 l 25
 0 0 l 25
 0 0 l 25
 0 0 l 25xe0
 0 102 l 25
 102 102 l 25
 102 0 l 25xd0
 0 0 l 25
 0 0 l 25
 0 0 l 25
 0 0 l 25
 0 0 l 25
 0 0 l 25xe0
 102 0 l 25
 102 0 l 25
 0 0 l 25xd0
EndSplineSet
EndChar

StartChar: uni0185
Encoding: 270 389 270
Width: 614
VWidth: 0
Flags: W
LayerCount: 2
Back
SplineSet
0 8.2998046875 m 29
 6.2001953125 8.2998046875 l 25
 6.2001953125 -2.099609375 l 25
 0 -2.099609375 l 25
 0 8.2998046875 l 29
EndSplineSet
EndChar

StartChar: pi
Encoding: 401 960 401
Width: 614
VWidth: 0
Flags: W
HStem: 0 102<428 534> 410 102<0 106 214 320 428 534>
VStem: 102 102<0 428> 308 102<106 428> 410 102<0 106>
LayerCount: 2
Back
Fore
SplineSet
0 512 m 25xf0
 512 512 l 25
 512 410 l 25xe8
 410 410 l 25
 410 102 l 25xf0
 512 102 l 25
 512 0 l 25
 410 0 l 25xe8
 410 102 l 25
 308 102 l 25
 308 410 l 25
 206 410 l 25
 206 0 l 25
 102 0 l 25
 102 410 l 25
 0 410 l 25
 0 512 l 25xf0
EndSplineSet
EndChar

StartChar: arrowup
Encoding: 402 8593 402
Width: 614
VWidth: 0
Flags: W
HStem: 0 0G<320 428> 410 102<106 214 534 640> 512 102<214 320 428 534> 717 0G<320 428>
VStem: 102 102<428 534> 308 102<0 534 640 746> 512 102<428 534>
CounterMasks: 1 0e
LayerCount: 2
Back
Fore
SplineSet
102 512 m 25xde
 206 512 l 25xde
 206 614 l 25
 308 614 l 25
 308 717 l 25
 410 717 l 25
 410 614 l 25
 512 614 l 25xbe
 512 512 l 25
 614 512 l 25
 614 410 l 25
 512 410 l 25
 512 512 l 25xde
 410 512 l 25
 410 0 l 25
 308 0 l 25
 308 512 l 25xbe
 206 512 l 25
 206 410 l 25
 102 410 l 25
 102 512 l 25xde
EndSplineSet
EndChar

StartChar: arrowdown
Encoding: 403 8595 403
Width: 614
VWidth: 0
Flags: W
HStem: 0 0G<320 428> 102 102<214 320 428 534> 206 102<106 214 534 640> 717 0G<320 428>
VStem: 102 102<214 320> 308 102<0 106 214 746> 512 102<214 320>
CounterMasks: 1 0e
LayerCount: 2
Back
Fore
SplineSet
308 717 m 25xde
 410 717 l 25
 410 206 l 25
 512 206 l 25xde
 512 308 l 25
 614 308 l 25
 614 206 l 25xbe
 512 206 l 25
 512 102 l 25
 410 102 l 25
 410 0 l 25
 308 0 l 25
 308 102 l 25
 206 102 l 25
 206 206 l 25xde
 102 206 l 25
 102 308 l 25
 206 308 l 25xbe
 206 206 l 25
 308 206 l 25
 308 717 l 25xde
EndSplineSet
EndChar

StartChar: lessequal
Encoding: 404 8804 404
Width: 614
VWidth: 0
Flags: W
HStem: -206 102<214 320> -102 102<106 214> 0 102<0 106 320 428> 102 102<214 320> 206 102<106 214> 410 102<106 214> 512 102<214 320> 614 102<320 428>
VStem: 0 102<0 106 320 428> 102 102<-106 0 214 320 428 534> 206 102<-214 -106 106 214 534 640> 308 102<0 106 640 746>
LayerCount: 2
Back
Fore
SplineSet
0 102 m 25x2080
 102 102 l 25x2080
 102 0 l 25x4080
 206 0 l 25x4040
 206 -102 l 25x8040
 308 -102 l 25
 308 -206 l 25
 206 -206 l 25x8020
 206 -102 l 25x8040
 102 -102 l 25x4040
 102 0 l 25x4080
 0 0 l 25
 0 102 l 25x2080
308 717 m 25x0110
 410 717 l 25
 410 614 l 25x0110
 308 614 l 25
 308 512 l 25x0220
 206 512 l 25
 206 410 l 25x0440
 102 410 l 25
 102 308 l 25x0c80
 206 308 l 25x0c40
 206 206 l 25x1040
 308 206 l 25x1020
 308 102 l 25x2020
 410 102 l 25
 410 0 l 25
 308 0 l 25x2010
 308 102 l 25x2020
 206 102 l 25x1020
 206 206 l 25x1040
 102 206 l 25x0840
 102 308 l 25
 0 308 l 25
 0 410 l 25
 102 410 l 25x0c80
 102 512 l 25
 206 512 l 25x0c40
 206 614 l 25
 308 614 l 25x0220
 308 717 l 25x0110
EndSplineSet
EndChar

StartChar: greaterequal
Encoding: 405 8805 405
Width: 614
VWidth: 0
Flags: W
HStem: -206 102<214 320> -102 102<320 428> 0 102<106 214 428 534> 102 102<214 320> 206 102<320 428> 410 102<320 428> 512 102<214 320> 614 102<106 214>
VStem: 102 102<0 106 640 746> 206 102<-214 -106 106 214 534 640> 308 102<-106 0 214 320 428 534> 410 102<0 106 320 428>
LayerCount: 2
Back
Fore
SplineSet
410 102 m 25x2010
 512 102 l 25
 512 0 l 25x2010
 410 0 l 25
 410 -102 l 25x4020
 308 -102 l 25
 308 -206 l 25
 206 -206 l 25
 206 -102 l 25
 308 -102 l 25x8040
 308 0 l 25
 410 0 l 25x4020
 410 102 l 25x2010
102 717 m 25x0180
 206 717 l 25x0180
 206 614 l 25x0280
 308 614 l 25x0240
 308 512 l 25x0440
 410 512 l 25
 410 410 l 25x0420
 512 410 l 25
 512 308 l 25x0c10
 410 308 l 25
 410 206 l 25x0c20
 308 206 l 25
 308 102 l 25x1040
 206 102 l 25
 206 0 l 25
 102 0 l 25
 102 102 l 25
 206 102 l 25x2080
 206 206 l 25
 308 206 l 25x1040
 308 308 l 25
 410 308 l 25
 410 410 l 25
 308 410 l 25x0c20
 308 512 l 25x0c40
 206 512 l 25x0240
 206 614 l 25x0280
 102 614 l 25
 102 717 l 25x0180
EndSplineSet
EndChar

StartChar: SF100000
Encoding: 406 9472 406
Width: 614
VWidth: 0
Flags: W
HStem: 308 102<0 640>
LayerCount: 2
Back
Fore
SplineSet
0 410 m 25
 614 410 l 25
 614 308 l 25
 0 308 l 25
 0 410 l 25
EndSplineSet
EndChar

StartChar: uni2501
Encoding: 407 9473 407
Width: 614
VWidth: 0
Flags: W
HStem: 206 206<0 640>
LayerCount: 2
Back
Fore
SplineSet
0 410 m 25
 614 410 l 25
 614 206 l 25
 0 206 l 25
 0 410 l 25
EndSplineSet
EndChar

StartChar: SF110000
Encoding: 408 9474 408
Width: 614
VWidth: 0
Flags: W
VStem: 206 102<-214 854>
LayerCount: 2
Back
Fore
SplineSet
205 819 m 1
 307 819 l 5
 308 -206 l 1
 206 -206 l 1
 205 819 l 1
EndSplineSet
EndChar

StartChar: uni2503
Encoding: 409 9475 409
Width: 614
VWidth: 0
Flags: W
VStem: 206 206<-214 854>
LayerCount: 2
Back
Fore
SplineSet
205 819 m 1
 410 819 l 5
 410 -206 l 1
 206 -206 l 1
 205 819 l 1
EndSplineSet
EndChar

StartChar: uni2504
Encoding: 410 9476 410
Width: 614
VWidth: 0
Flags: W
HStem: 308 102<0 106 214 320 428 534>
VStem: 0 102<320 428> 206 102<320 428> 410 102<320 428>
CounterMasks: 1 70
LayerCount: 2
Back
Fore
SplineSet
512 308 m 25
 410 308 l 25
 410 410 l 25
 512 410 l 25
 512 308 l 25
308 410 m 25
 308 308 l 25
 206 308 l 25
 206 410 l 25
 308 410 l 25
0 410 m 25
 102 410 l 25
 102 308 l 25
 0 308 l 25
 0 410 l 25
EndSplineSet
EndChar

StartChar: uni2505
Encoding: 411 9477 411
Width: 614
VWidth: 0
Flags: W
HStem: 206 206<0 106 214 320 428 534>
VStem: 0 102<214 428> 206 102<214 428> 410 102<214 428>
CounterMasks: 1 70
LayerCount: 2
Back
Fore
SplineSet
410 410 m 25
 512 410 l 25
 512 206 l 25
 410 206 l 25
 410 410 l 25
206 410 m 25
 308 410 l 25
 308 206 l 25
 206 206 l 25
 206 410 l 25
0 410 m 25
 102 410 l 25
 102 206 l 25
 0 206 l 25
 0 410 l 25
EndSplineSet
EndChar

StartChar: uni2506
Encoding: 412 9478 412
Width: 614
VWidth: 0
Flags: W
HStem: 0 0G<214 320> 512 0G<214 320> 614 0G<214 320>
VStem: 206 102<-214 0 106 534 640 854>
LayerCount: 2
Back
Fore
SplineSet
206 0 m 25
 308 0 l 25
 308 -206 l 25
 206 -206 l 25
 206 0 l 25
206 512 m 25
 308 512 l 25
 308 102 l 25
 206 102 l 25
 206 512 l 25
205 819 m 1
 307 819 l 5
 308 614 l 1
 206 614 l 1
 205 819 l 1
EndSplineSet
EndChar

StartChar: uni2507
Encoding: 413 9479 413
Width: 614
VWidth: 0
Flags: W
HStem: -206 206<214 428> 512 0G<214 428> 614 206<214 428>
VStem: 206 206<-214 0 106 534 640 854>
LayerCount: 2
Back
Fore
SplineSet
206 0 m 25
 410 0 l 25
 410 -206 l 25
 206 -206 l 25
 206 0 l 25
206 512 m 25
 410 512 l 25
 410 102 l 25
 206 102 l 25
 206 512 l 25
205 819 m 1
 410 819 l 5
 410 614 l 1
 206 614 l 1
 205 819 l 1
EndSplineSet
EndChar

StartChar: uni2508
Encoding: 414 9480 414
Width: 614
VWidth: 0
Flags: W
HStem: 308 102<0 106 214 320 428 534>
VStem: 0 102<320 428> 206 102<320 428> 410 102<320 428>
CounterMasks: 1 70
LayerCount: 2
Back
Fore
SplineSet
410 410 m 25
 512 410 l 25
 512 308 l 25
 410 308 l 25
 410 410 l 25
206 410 m 25
 308 410 l 25
 308 308 l 25
 206 308 l 25
 206 410 l 25
0 410 m 25
 102 410 l 25
 102 308 l 25
 0 308 l 25
 0 410 l 25
EndSplineSet
EndChar

StartChar: uni2509
Encoding: 415 9481 415
Width: 614
VWidth: 0
Flags: W
HStem: 206 206<0 106 214 320 428 534>
VStem: 0 102<214 428> 206 102<214 428> 410 102<214 428>
CounterMasks: 1 70
LayerCount: 2
Back
Fore
SplineSet
410 410 m 25
 512 410 l 25
 512 206 l 25
 410 206 l 25
 410 410 l 25
206 410 m 25
 308 410 l 25
 308 206 l 25
 206 206 l 25
 206 410 l 25
0 410 m 25
 102 410 l 25
 102 206 l 25
 0 206 l 25
 0 410 l 25
EndSplineSet
EndChar

StartChar: uni250A
Encoding: 416 9482 416
Width: 614
VWidth: 0
Flags: W
HStem: -206 102<214 320> 0 0G<214 320> 512 0G<214 320> 614 0G<214 320>
VStem: 206 102<-214 -106 0 214 320 534 640 854>
LayerCount: 2
Back
Fore
SplineSet
206 -102 m 25
 308 -102 l 25
 308 -206 l 25
 206 -206 l 25
 206 -102 l 25
206 206 m 25
 308 206 l 25
 308 0 l 25
 206 0 l 25
 206 206 l 25
206 512 m 25
 308 512 l 25
 308 308 l 25
 206 308 l 25
 206 512 l 25
205 819 m 1
 307 819 l 5
 308 614 l 1
 206 614 l 1
 205 819 l 1
EndSplineSet
EndChar

StartChar: uni250B
Encoding: 417 9483 417
Width: 614
VWidth: 0
Flags: W
HStem: -206 102<214 428> 0 206<214 428> 308 206<214 428> 614 206<214 428>
VStem: 206 206<-214 -106 0 214 320 534 640 854>
LayerCount: 2
Back
Fore
SplineSet
206 -102 m 25
 410 -102 l 25
 410 -206 l 25
 206 -206 l 25
 206 -102 l 25
206 206 m 25
 410 206 l 25
 410 0 l 25
 206 0 l 25
 206 206 l 25
206 512 m 25
 410 512 l 25
 410 308 l 25
 206 308 l 25
 206 512 l 25
205 819 m 1
 410 819 l 5
 410 614 l 1
 206 614 l 1
 205 819 l 1
EndSplineSet
EndChar

StartChar: SF010000
Encoding: 418 9484 418
Width: 614
VWidth: 0
Flags: W
HStem: 308 102<320 640>
VStem: 206 102<-214 320>
LayerCount: 2
Back
Fore
SplineSet
206 410 m 25
 614 410 l 25
 614 308 l 25
 308 308 l 25
 308 -206 l 25
 206 -206 l 25
 206 410 l 25
EndSplineSet
EndChar

StartChar: uni250D
Encoding: 419 9485 419
Width: 614
VWidth: 0
Flags: W
HStem: 206 206<320 640>
VStem: 206 102<-214 214>
LayerCount: 2
Back
Fore
SplineSet
206 410 m 25
 614 410 l 25
 614 206 l 25
 308 206 l 25
 308 -206 l 25
 206 -206 l 25
 206 410 l 25
EndSplineSet
EndChar

StartChar: uni250E
Encoding: 420 9486 420
Width: 614
VWidth: 0
Flags: W
HStem: 308 102<428 640>
VStem: 206 206<-214 320>
LayerCount: 2
Back
Fore
SplineSet
206 410 m 25
 614 410 l 25
 614 308 l 25
 410 308 l 25
 410 -206 l 25
 206 -206 l 25
 206 410 l 25
EndSplineSet
EndChar

StartChar: uni250F
Encoding: 421 9487 421
Width: 614
VWidth: 0
Flags: W
HStem: 206 206<428 640>
VStem: 206 206<-214 214>
LayerCount: 2
Back
Fore
SplineSet
206 410 m 25
 614 410 l 25
 614 206 l 25
 410 206 l 25
 410 -206 l 25
 206 -206 l 25
 206 410 l 25
EndSplineSet
EndChar

StartChar: SF030000
Encoding: 422 9488 422
Width: 614
VWidth: 0
Flags: W
HStem: 308 102<0 214>
VStem: 206 102<-214 320>
LayerCount: 2
Back
Fore
SplineSet
0 410 m 25
 308 410 l 25
 308 -206 l 25
 206 -206 l 25
 206 308 l 25
 0 308 l 25
 0 410 l 25
EndSplineSet
EndChar

StartChar: uni2511
Encoding: 423 9489 423
Width: 614
VWidth: 0
Flags: W
HStem: 206 206<0 214>
VStem: 0 308<214 428> 206 102<-214 214>
LayerCount: 2
Back
Fore
SplineSet
0 410 m 25xc0
 308 410 l 25xc0
 308 -206 l 25
 206 -206 l 25
 206 206 l 25xa0
 0 206 l 25
 0 410 l 25xc0
EndSplineSet
EndChar

StartChar: uni2512
Encoding: 424 9490 424
Width: 614
VWidth: 0
Flags: W
HStem: 308 102<0 214>
VStem: 206 206<-214 320>
LayerCount: 2
Back
Fore
SplineSet
0 410 m 25
 410 410 l 25
 410 -206 l 25
 206 -206 l 25
 206 308 l 25
 0 308 l 25
 0 410 l 25
EndSplineSet
EndChar

StartChar: uni2513
Encoding: 425 9491 425
Width: 614
VWidth: 0
Flags: W
HStem: 206 206<0 214>
VStem: 206 206<-214 214>
LayerCount: 2
Back
Fore
SplineSet
0 410 m 25
 410 410 l 25
 410 -206 l 25
 206 -206 l 25
 206 206 l 25
 0 206 l 25
 0 410 l 25
EndSplineSet
EndChar

StartChar: SF020000
Encoding: 426 9492 426
Width: 614
VWidth: 0
Flags: W
HStem: 308 102<320 640>
VStem: 206 102<428 854>
LayerCount: 2
Back
Fore
SplineSet
205 819 m 5
 307 819 l 1
 308 410 l 1
 614 410 l 25
 614 308 l 25
 206 308 l 1
 205 819 l 5
EndSplineSet
EndChar

StartChar: uni2515
Encoding: 427 9493 427
Width: 614
VWidth: 0
Flags: W
HStem: 206 206<320 640>
VStem: 206 102<428 854>
LayerCount: 2
Back
Fore
SplineSet
205 819 m 1
 307 819 l 5
 308 410 l 1
 614 410 l 25
 614 206 l 25
 206 206 l 1
 205 819 l 1
EndSplineSet
EndChar

StartChar: uni2516
Encoding: 428 9494 428
Width: 614
VWidth: 0
Flags: W
HStem: 308 102<428 640>
VStem: 206 206<428 854>
LayerCount: 2
Back
Fore
SplineSet
205 819 m 1
 410 819 l 5
 410 410 l 1
 614 410 l 25
 614 308 l 25
 206 308 l 1
 205 819 l 1
EndSplineSet
EndChar

StartChar: uni2517
Encoding: 429 9495 429
Width: 614
VWidth: 0
Flags: W
HStem: 206 206<428 640>
VStem: 206 206<428 854>
LayerCount: 2
Back
Fore
SplineSet
205 819 m 1
 410 819 l 5
 410 410 l 1
 614 410 l 25
 614 206 l 25
 206 206 l 1
 205 819 l 1
EndSplineSet
EndChar

StartChar: SF040000
Encoding: 430 9496 430
Width: 614
VWidth: 0
Flags: W
HStem: 308 102<0 214>
VStem: 206 102<428 854>
LayerCount: 2
Back
Fore
SplineSet
205 819 m 1
 307 819 l 5
 308 308 l 1
 0 308 l 25
 0 410 l 25
 206 410 l 1
 205 819 l 1
EndSplineSet
EndChar

StartChar: uni2519
Encoding: 431 9497 431
Width: 614
VWidth: 0
Flags: W
HStem: 206 206<0 214>
VStem: 0 308<214 428> 206 102<428 854>
LayerCount: 2
Back
Fore
SplineSet
205 819 m 1xa0
 307 819 l 5xa0
 308 206 l 1
 0 206 l 25
 0 410 l 25xc0
 206 410 l 1
 205 819 l 1xa0
EndSplineSet
EndChar

StartChar: uni251A
Encoding: 432 9498 432
Width: 614
VWidth: 0
Flags: W
HStem: 308 102<0 214>
VStem: 206 206<428 854>
LayerCount: 2
Back
Fore
SplineSet
205 819 m 1
 410 819 l 5
 410 308 l 1
 0 308 l 25
 0 410 l 25
 206 410 l 1
 205 819 l 1
EndSplineSet
EndChar

StartChar: uni251B
Encoding: 433 9499 433
Width: 614
VWidth: 0
Flags: W
HStem: 206 206<0 214>
VStem: 206 206<428 854>
LayerCount: 2
Back
Fore
SplineSet
205 819 m 5
 410 819 l 1
 410 206 l 1
 0 206 l 25
 0 410 l 25
 206 410 l 1
 205 819 l 5
EndSplineSet
EndChar

StartChar: SF080000
Encoding: 434 9500 434
Width: 614
VWidth: 0
Flags: W
HStem: 308 102<320 640>
VStem: 206 102<-214 320 428 854>
LayerCount: 2
Back
Fore
SplineSet
205 819 m 1
 307 819 l 5
 308 410 l 1
 614 410 l 25
 614 308 l 25
 308 308 l 25
 308 -206 l 25
 206 -206 l 1
 205 819 l 1
EndSplineSet
EndChar

StartChar: uni251D
Encoding: 435 9501 435
Width: 614
VWidth: 0
Flags: W
HStem: 206 206<320 640>
VStem: 206 102<-214 214 428 854>
LayerCount: 2
Back
Fore
SplineSet
205 819 m 1
 307 819 l 5
 308 410 l 1
 614 410 l 25
 614 206 l 25
 308 206 l 25
 308 -206 l 25
 206 -206 l 1
 205 819 l 1
EndSplineSet
EndChar

StartChar: uni251E
Encoding: 436 9502 436
Width: 614
VWidth: 0
Flags: W
HStem: 308 102<428 640>
VStem: 206 206<428 854> 206 102<-214 320>
LayerCount: 2
Back
Fore
SplineSet
205 819 m 1xc0
 410 819 l 5
 410 410 l 1xc0
 614 410 l 25
 614 308 l 25
 308 308 l 25
 308 -206 l 25
 206 -206 l 1xa0
 205 819 l 1xc0
EndSplineSet
EndChar

StartChar: uni251F
Encoding: 437 9503 437
Width: 614
VWidth: 0
Flags: W
HStem: 308 102<428 640>
VStem: 206 206<-214 320> 206 102<428 854>
LayerCount: 2
Back
Fore
SplineSet
205 819 m 1xa0
 307 819 l 5
 308 410 l 1xa0
 614 410 l 25
 614 308 l 25
 410 308 l 25
 410 -206 l 25
 206 -206 l 1xc0
 205 819 l 1xa0
EndSplineSet
EndChar

StartChar: uni2520
Encoding: 438 9504 438
Width: 614
VWidth: 0
Flags: W
HStem: 308 102<428 640>
VStem: 206 206<-214 320 428 854>
LayerCount: 2
Back
Fore
SplineSet
205 819 m 1
 410 819 l 5
 410 410 l 1
 614 410 l 25
 614 308 l 25
 410 308 l 25
 410 -206 l 25
 206 -206 l 1
 205 819 l 1
EndSplineSet
EndChar

StartChar: uni2521
Encoding: 439 9505 439
Width: 614
VWidth: 0
Flags: W
HStem: 206 206<428 640>
VStem: 206 206<428 854> 206 102<-214 214>
LayerCount: 2
Back
Fore
SplineSet
205 819 m 1xc0
 410 819 l 5
 410 410 l 1xc0
 614 410 l 25
 614 206 l 25
 308 206 l 25
 308 -206 l 25
 206 -206 l 1xa0
 205 819 l 1xc0
EndSplineSet
EndChar

StartChar: uni2522
Encoding: 440 9506 440
Width: 614
VWidth: 0
Flags: W
HStem: 206 206<428 640>
VStem: 206 206<-214 214> 206 102<428 854>
LayerCount: 2
Back
Fore
SplineSet
205 819 m 1xa0
 307 819 l 5
 308 410 l 1xa0
 614 410 l 25
 614 206 l 25
 410 206 l 25
 410 -206 l 25
 206 -206 l 1xc0
 205 819 l 1xa0
EndSplineSet
EndChar

StartChar: uni2523
Encoding: 441 9507 441
Width: 614
VWidth: 0
Flags: W
HStem: 206 206<428 640>
VStem: 206 206<-214 214 428 854>
LayerCount: 2
Back
Fore
SplineSet
205 819 m 29
 409 819 l 29
 410 410 l 1
 614 410 l 25
 614 206 l 25
 410 206 l 25
 410 -206 l 25
 206 -206 l 1
 205 819 l 29
EndSplineSet
EndChar

StartChar: SF090000
Encoding: 442 9508 442
Width: 614
VWidth: 0
Flags: W
HStem: 308 102<0 214>
VStem: 206 102<-214 320 428 854>
LayerCount: 2
Back
Fore
SplineSet
205 819 m 1
 307 819 l 5
 308 -206 l 1
 206 -206 l 25
 206 308 l 25
 0 308 l 25
 0 410 l 25
 206 410 l 1
 205 819 l 1
EndSplineSet
EndChar

StartChar: uni2525
Encoding: 443 9509 443
Width: 614
VWidth: 0
Flags: W
HStem: 206 206<0 214>
VStem: 0 308<214 428> 206 102<-214 214 428 854>
LayerCount: 2
Back
Fore
SplineSet
205 819 m 1xa0
 307 819 l 5
 308 -206 l 1
 206 -206 l 25
 206 206 l 25xa0
 0 206 l 25
 0 410 l 25xc0
 206 410 l 1
 205 819 l 1xa0
EndSplineSet
EndChar

StartChar: uni2526
Encoding: 444 9510 444
Width: 614
VWidth: 0
Flags: W
HStem: 308 102<0 214>
VStem: 206 206<428 854> 206 102<-214 320>
LayerCount: 2
Back
Fore
SplineSet
205 819 m 1xc0
 410 819 l 5
 410 410 l 1xc0
 308 410 l 25
 308 -206 l 25
 206 -206 l 25
 206 308 l 25xa0
 0 308 l 25
 0 410 l 25
 206 410 l 1
 205 819 l 1xc0
EndSplineSet
EndChar

StartChar: uni2527
Encoding: 445 9511 445
Width: 614
VWidth: 0
Flags: W
HStem: 308 102<0 214>
VStem: 206 206<-214 320> 206 102<428 854>
LayerCount: 2
Back
Fore
SplineSet
205 819 m 1xa0
 307 819 l 5
 308 308 l 1xa0
 410 308 l 25
 410 -206 l 25
 206 -206 l 25
 206 308 l 25xc0
 0 308 l 25
 0 410 l 25
 206 410 l 1
 205 819 l 1xa0
EndSplineSet
EndChar

StartChar: uni2528
Encoding: 446 9512 446
Width: 614
VWidth: 0
Flags: W
HStem: 308 102<0 214>
VStem: 206 206<-214 320 428 854>
LayerCount: 2
Back
Fore
SplineSet
205 819 m 1
 410 819 l 5
 410 -206 l 1
 206 -206 l 25
 206 308 l 25
 0 308 l 25
 0 410 l 25
 206 410 l 1
 205 819 l 1
EndSplineSet
EndChar

StartChar: uni2529
Encoding: 447 9513 447
Width: 614
VWidth: 0
Flags: W
HStem: 206 206<0 214>
VStem: 206 206<428 854> 206 102<-214 214>
LayerCount: 2
Back
Fore
SplineSet
205 819 m 1xc0
 410 819 l 5
 410 206 l 1xc0
 308 206 l 25
 308 -206 l 25
 206 -206 l 25
 206 206 l 25xa0
 0 206 l 25
 0 410 l 25
 206 410 l 1
 205 819 l 1xc0
EndSplineSet
EndChar

StartChar: uni252A
Encoding: 448 9514 448
Width: 614
VWidth: 0
Flags: W
HStem: 206 206<0 214>
VStem: 206 206<-214 214> 206 102<428 854>
LayerCount: 2
Back
Fore
SplineSet
205 819 m 29xa0
 307 819 l 29
 308 410 l 1xa0
 410 410 l 25
 410 -206 l 25
 206 -206 l 25
 206 206 l 25xc0
 0 206 l 25
 0 410 l 25
 206 410 l 1
 205 819 l 29xa0
EndSplineSet
EndChar

StartChar: uni252B
Encoding: 449 9515 449
Width: 614
VWidth: 0
Flags: W
HStem: 206 206<0 214>
VStem: 206 206<-214 214 428 854>
LayerCount: 2
Back
Fore
SplineSet
206 819 m 29
 410 819 l 29
 410 -206 l 1
 206 -206 l 25
 206 206 l 25
 0 206 l 25
 0 410 l 25
 206 410 l 1
 206 819 l 29
EndSplineSet
EndChar

StartChar: SF060000
Encoding: 450 9516 450
Width: 614
VWidth: 0
Flags: W
HStem: 308 102<0 214 320 640>
VStem: 206 102<-214 320>
LayerCount: 2
Back
Fore
SplineSet
0 410 m 25
 614 410 l 25
 614 308 l 25
 308 308 l 25
 308 -206 l 25
 206 -206 l 25
 206 308 l 25
 0 308 l 25
 0 410 l 25
EndSplineSet
EndChar

StartChar: uni252D
Encoding: 451 9517 451
Width: 614
VWidth: 0
Flags: W
HStem: 206 206<0 214> 308 102<320 640>
VStem: 206 102<-214 214>
LayerCount: 2
Back
Fore
SplineSet
0 410 m 25xa0
 614 410 l 25
 614 308 l 25
 308 308 l 25x60
 308 -206 l 25
 206 -206 l 25
 206 206 l 25
 0 206 l 25
 0 410 l 25xa0
EndSplineSet
EndChar

StartChar: uni252E
Encoding: 452 9518 452
Width: 614
VWidth: 0
Flags: W
HStem: 206 206<320 640> 308 102<0 214>
VStem: 206 102<-214 214>
LayerCount: 2
Back
Fore
SplineSet
0 410 m 25x60
 614 410 l 25
 614 206 l 25
 308 206 l 25xa0
 308 -206 l 25
 206 -206 l 25
 206 308 l 25
 0 308 l 25
 0 410 l 25x60
EndSplineSet
EndChar

StartChar: uni252F
Encoding: 453 9519 453
Width: 614
VWidth: 0
Flags: W
HStem: 206 206<0 214 320 640>
VStem: 206 102<-214 214>
LayerCount: 2
Back
Fore
SplineSet
0 410 m 25
 614 410 l 25
 614 206 l 25
 308 206 l 25
 308 -206 l 25
 206 -206 l 25
 206 206 l 25
 0 206 l 25
 0 410 l 25
EndSplineSet
EndChar

StartChar: uni2530
Encoding: 454 9520 454
Width: 614
VWidth: 0
Flags: W
HStem: 308 102<0 214 428 640>
VStem: 206 206<-214 320>
LayerCount: 2
Back
Fore
SplineSet
0 410 m 25
 614 410 l 25
 614 308 l 25
 410 308 l 25
 410 -206 l 25
 206 -206 l 25
 206 308 l 25
 0 308 l 25
 0 410 l 25
EndSplineSet
EndChar

StartChar: uni2531
Encoding: 455 9521 455
Width: 614
VWidth: 0
Flags: W
HStem: 206 206<0 214> 308 102<428 640>
VStem: 206 206<-214 214>
LayerCount: 2
Back
Fore
SplineSet
0 410 m 25xa0
 614 410 l 25
 614 308 l 25
 410 308 l 25x60
 410 -206 l 25
 206 -206 l 25
 206 206 l 25
 0 206 l 25
 0 410 l 25xa0
EndSplineSet
EndChar

StartChar: uni2532
Encoding: 456 9522 456
Width: 614
VWidth: 0
Flags: W
HStem: 206 206<428 640> 308 102<0 214>
VStem: 206 206<-214 214>
LayerCount: 2
Back
Fore
SplineSet
0 410 m 1x60
 614 410 l 1
 614 206 l 1
 410 206 l 1xa0
 410 -206 l 1
 206 -206 l 1
 206 308 l 1
 0 308 l 1
 0 410 l 1x60
EndSplineSet
EndChar

StartChar: uni2533
Encoding: 457 9523 457
Width: 614
VWidth: 0
Flags: W
HStem: 206 206<0 214 428 640>
VStem: 206 206<-214 214>
LayerCount: 2
Back
Fore
SplineSet
0 410 m 25
 614 410 l 25
 614 206 l 25
 410 206 l 25
 410 -206 l 25
 206 -206 l 25
 206 206 l 25
 0 206 l 25
 0 410 l 25
EndSplineSet
EndChar

StartChar: SF070000
Encoding: 458 9524 458
Width: 614
VWidth: 0
Flags: W
HStem: 308 102<0 214 320 640>
VStem: 206 102<428 854>
LayerCount: 2
Back
Fore
SplineSet
0 410 m 25
 206 410 l 1
 205 819 l 29
 307 819 l 29
 308 410 l 1
 614 410 l 25
 614 308 l 25
 0 308 l 25
 0 410 l 25
EndSplineSet
EndChar

StartChar: uni2535
Encoding: 459 9525 459
Width: 614
VWidth: 0
Flags: W
HStem: 206 206<0 214> 308 102<320 640>
VStem: 206 102<428 854>
LayerCount: 2
Back
Fore
SplineSet
205 819 m 29xa0
 307 819 l 29
 308 410 l 1
 614 410 l 25
 614 308 l 25
 206 308 l 25x60
 206 206 l 25
 0 206 l 25
 0 410 l 25
 206 410 l 1
 205 819 l 29xa0
EndSplineSet
EndChar

StartChar: uni2536
Encoding: 460 9526 460
Width: 614
VWidth: 0
Flags: W
HStem: 206 206<320 640> 308 102<0 214>
VStem: 206 102<428 854>
LayerCount: 2
Back
Fore
SplineSet
205 819 m 1x60
 307 819 l 5
 308 410 l 1
 614 410 l 25
 614 206 l 25
 308 206 l 25xa0
 308 308 l 25
 0 308 l 25
 0 410 l 25
 206 410 l 1
 205 819 l 1x60
EndSplineSet
EndChar

StartChar: uni2537
Encoding: 461 9527 461
Width: 614
VWidth: 0
Flags: W
HStem: 206 206<0 214 320 640>
VStem: 206 102<428 854>
LayerCount: 2
Back
Fore
SplineSet
205 819 m 29
 307 819 l 29
 308 410 l 1
 614 410 l 25
 614 206 l 25
 0 206 l 25
 0 410 l 25
 206 410 l 1
 205 819 l 29
EndSplineSet
EndChar

StartChar: uni2538
Encoding: 462 9528 462
Width: 614
VWidth: 0
Flags: W
HStem: 308 102<0 214 428 640>
VStem: 206 206<428 854>
LayerCount: 2
Back
Fore
SplineSet
206 819 m 29
 410 819 l 29
 410 410 l 1
 614 410 l 25
 614 308 l 25
 0 308 l 25
 0 410 l 25
 206 410 l 1
 206 819 l 29
EndSplineSet
EndChar

StartChar: uni2539
Encoding: 463 9529 463
Width: 614
VWidth: 0
Flags: W
HStem: 206 206<0 214> 308 102<428 640>
VStem: 206 206<428 854>
LayerCount: 2
Back
Fore
SplineSet
206 819 m 29xa0
 410 819 l 29
 410 410 l 1
 614 410 l 25
 614 308 l 25
 308 308 l 25x60
 308 206 l 25
 0 206 l 25
 0 410 l 25
 206 410 l 1
 206 819 l 29xa0
EndSplineSet
EndChar

StartChar: uni253A
Encoding: 464 9530 464
Width: 614
VWidth: 0
Flags: W
HStem: 206 206<428 640> 308 102<0 214>
VStem: 206 206<428 854>
LayerCount: 2
Back
Fore
SplineSet
205 819 m 1x60
 410 819 l 5
 410 410 l 1
 614 410 l 25
 614 206 l 25
 308 206 l 25xa0
 308 308 l 25
 0 308 l 25
 0 410 l 25
 206 410 l 1
 205 819 l 1x60
EndSplineSet
EndChar

StartChar: uni253B
Encoding: 465 9531 465
Width: 614
VWidth: 0
Flags: W
HStem: 206 206<0 214 428 640>
VStem: 206 206<428 854>
LayerCount: 2
Back
Fore
SplineSet
205 819 m 1
 410 819 l 5
 410 410 l 1
 614 410 l 25
 614 206 l 25
 0 206 l 25
 0 410 l 25
 206 410 l 1
 205 819 l 1
EndSplineSet
EndChar

StartChar: SF050000
Encoding: 466 9532 466
Width: 614
VWidth: 0
Flags: W
HStem: 308 102<0 214 320 640>
VStem: 206 102<-214 320 428 854>
LayerCount: 2
Back
Fore
SplineSet
205 819 m 1
 307 819 l 5
 308 410 l 1
 614 410 l 25
 614 308 l 25
 308 308 l 25
 308 -206 l 25
 206 -206 l 25
 206 308 l 25
 0 308 l 25
 0 410 l 25
 206 410 l 1
 205 819 l 1
EndSplineSet
EndChar

StartChar: uni253D
Encoding: 467 9533 467
Width: 614
VWidth: 0
Flags: W
HStem: 206 206<0 214> 308 102<320 640>
VStem: 206 102<-214 214 428 854>
LayerCount: 2
Back
Fore
SplineSet
205 819 m 1xa0
 307 819 l 5
 308 410 l 1
 614 410 l 25
 614 308 l 25
 308 308 l 25x60
 308 -206 l 25
 206 -206 l 25
 206 206 l 25
 0 206 l 25
 0 410 l 25
 206 410 l 1
 205 819 l 1xa0
EndSplineSet
EndChar

StartChar: uni253E
Encoding: 468 9534 468
Width: 614
VWidth: 0
Flags: W
HStem: 206 206<320 640> 308 102<0 214>
VStem: 206 102<-214 214 428 854>
LayerCount: 2
Back
Fore
SplineSet
205 819 m 1x60
 307 819 l 5
 308 410 l 1
 614 410 l 25
 614 206 l 25
 308 206 l 25xa0
 308 -206 l 25
 206 -206 l 25
 206 308 l 25
 0 308 l 25
 0 410 l 25
 206 410 l 1
 205 819 l 1x60
EndSplineSet
EndChar

StartChar: uni253F
Encoding: 469 9535 469
Width: 614
VWidth: 0
Flags: W
HStem: 206 206<0 214 320 640>
VStem: 206 102<-214 214 428 854>
LayerCount: 2
Back
Fore
SplineSet
205 819 m 1
 307 819 l 5
 308 410 l 1
 614 410 l 25
 614 206 l 25
 308 206 l 25
 308 -206 l 25
 206 -206 l 25
 206 206 l 25
 0 206 l 25
 0 410 l 25
 206 410 l 1
 205 819 l 1
EndSplineSet
EndChar

StartChar: uni2540
Encoding: 470 9536 470
Width: 614
VWidth: 0
Flags: W
HStem: 308 102<0 214 428 640>
VStem: 206 206<428 854> 206 102<-214 320>
LayerCount: 2
Back
Fore
SplineSet
205 819 m 1xc0
 410 819 l 5
 410 410 l 1xc0
 614 410 l 25
 614 308 l 25
 308 308 l 25
 308 -206 l 25
 206 -206 l 25
 206 308 l 25xa0
 0 308 l 25
 0 410 l 25
 206 410 l 1
 205 819 l 1xc0
EndSplineSet
EndChar

StartChar: uni2541
Encoding: 471 9537 471
Width: 614
VWidth: 0
Flags: W
HStem: 308 102<0 214 428 640>
VStem: 206 206<-214 320> 206 102<428 854>
LayerCount: 2
Back
Fore
SplineSet
205 819 m 1xa0
 307 819 l 5
 308 410 l 1xa0
 614 410 l 25
 614 308 l 25
 410 308 l 25
 410 -206 l 25
 206 -206 l 25
 206 308 l 25xc0
 0 308 l 25
 0 410 l 25
 206 410 l 1
 205 819 l 1xa0
EndSplineSet
EndChar

StartChar: uni2542
Encoding: 472 9538 472
Width: 614
VWidth: 0
Flags: W
HStem: 308 102<0 214 428 640>
VStem: 206 206<-214 320 428 854>
LayerCount: 2
Back
Fore
SplineSet
205 819 m 1
 410 819 l 5
 410 410 l 1
 614 410 l 25
 614 308 l 25
 410 308 l 25
 410 -206 l 25
 206 -206 l 25
 206 308 l 25
 0 308 l 25
 0 410 l 25
 206 410 l 1
 205 819 l 1
EndSplineSet
EndChar

StartChar: uni2543
Encoding: 473 9539 473
Width: 614
VWidth: 0
Flags: W
HStem: 206 206<0 214> 308 102<428 640>
VStem: 206 206<428 854> 206 102<-214 214>
LayerCount: 2
Back
Fore
SplineSet
205 819 m 1xa0
 410 819 l 5
 410 410 l 1x60
 614 410 l 25
 614 308 l 25
 308 308 l 25x50
 308 -206 l 25
 206 -206 l 25
 206 206 l 25x90
 0 206 l 25
 0 410 l 25
 206 410 l 1
 205 819 l 1xa0
EndSplineSet
EndChar

StartChar: uni2544
Encoding: 474 9540 474
Width: 614
VWidth: 0
Flags: W
HStem: 206 206<428 640> 308 102<0 214>
VStem: 206 206<428 854> 206 102<-214 214>
LayerCount: 2
Back
Fore
SplineSet
205 819 m 1x60
 410 819 l 5
 410 410 l 1xa0
 614 410 l 25
 614 206 l 25
 308 206 l 25x90
 308 -206 l 25
 206 -206 l 25
 206 308 l 25x50
 0 308 l 25
 0 410 l 25
 206 410 l 1
 205 819 l 1x60
EndSplineSet
EndChar

StartChar: uni2545
Encoding: 475 9541 475
Width: 614
VWidth: 0
Flags: W
HStem: 206 206<0 214> 308 102<428 640>
VStem: 206 206<-214 214> 206 102<428 854>
LayerCount: 2
Back
Fore
SplineSet
205 819 m 1x90
 307 819 l 5
 308 410 l 1x50
 614 410 l 25
 614 308 l 25
 410 308 l 25x60
 410 -206 l 25
 206 -206 l 25
 206 206 l 25xa0
 0 206 l 25
 0 410 l 25
 206 410 l 1
 205 819 l 1x90
EndSplineSet
EndChar

StartChar: uni2546
Encoding: 476 9542 476
Width: 614
VWidth: 0
Flags: W
HStem: 206 206<428 640> 308 102<0 214>
VStem: 206 206<-214 214> 206 102<428 854>
LayerCount: 2
Back
Fore
SplineSet
205 819 m 1x50
 307 819 l 5
 308 410 l 1x50
 614 410 l 25
 614 206 l 25
 410 206 l 25
 410 -206 l 25
 206 -206 l 25xa0
 206 308 l 25
 0 308 l 25
 0 410 l 25
 206 410 l 1
 205 819 l 1x50
EndSplineSet
EndChar

StartChar: uni2547
Encoding: 477 9543 477
Width: 614
VWidth: 0
Flags: W
HStem: 206 206<0 214 428 640>
VStem: 206 206<428 854> 206 102<-214 214>
LayerCount: 2
Back
Fore
SplineSet
205 819 m 1xc0
 410 819 l 5
 410 410 l 1xc0
 614 410 l 25
 614 206 l 25
 308 206 l 25
 308 -206 l 25
 206 -206 l 25
 206 206 l 25xa0
 0 206 l 25
 0 410 l 25
 206 410 l 1
 205 819 l 1xc0
EndSplineSet
EndChar

StartChar: uni2548
Encoding: 478 9544 478
Width: 614
VWidth: 0
Flags: W
HStem: 206 206<0 214 428 640>
VStem: 206 206<-214 214> 206 102<428 854>
LayerCount: 2
Back
Fore
SplineSet
205 819 m 1xa0
 307 819 l 5
 308 410 l 1xa0
 614 410 l 25
 614 206 l 25
 410 206 l 25
 410 -206 l 25
 206 -206 l 25
 206 206 l 25xc0
 0 206 l 25
 0 410 l 25
 206 410 l 1
 205 819 l 1xa0
EndSplineSet
EndChar

StartChar: uni2549
Encoding: 479 9545 479
Width: 614
VWidth: 0
Flags: W
HStem: 206 206<0 214> 308 102<428 640>
VStem: 206 206<-214 214 428 854>
LayerCount: 2
Back
Fore
SplineSet
205 819 m 1xa0
 410 819 l 5
 410 410 l 1
 614 410 l 25
 614 308 l 25
 410 308 l 25x60
 410 -206 l 25
 206 -206 l 25
 206 206 l 25
 0 206 l 25
 0 410 l 25
 206 410 l 1
 205 819 l 1xa0
EndSplineSet
EndChar

StartChar: uni254A
Encoding: 480 9546 480
Width: 614
VWidth: 0
Flags: W
HStem: 206 206<428 640> 308 102<0 214>
VStem: 206 206<-214 214 428 854>
LayerCount: 2
Back
Fore
SplineSet
205 819 m 1x60
 410 819 l 5
 410 410 l 1
 614 410 l 25
 614 206 l 25
 410 206 l 25xa0
 410 -206 l 25
 206 -206 l 25
 206 308 l 25
 0 308 l 25
 0 410 l 25
 206 410 l 1
 205 819 l 1x60
EndSplineSet
EndChar

StartChar: uni254B
Encoding: 481 9547 481
Width: 614
VWidth: 0
Flags: W
HStem: 206 206<0 214 428 640>
VStem: 206 206<-214 214 428 854>
LayerCount: 2
Back
Fore
SplineSet
205 819 m 1
 410 819 l 5
 410 410 l 1
 614 410 l 25
 614 206 l 25
 410 206 l 25
 410 -206 l 25
 206 -206 l 25
 206 206 l 25
 0 206 l 25
 0 410 l 25
 206 410 l 1
 205 819 l 1
EndSplineSet
EndChar

StartChar: uni254C
Encoding: 482 9548 482
Width: 614
VWidth: 0
Flags: W
HStem: 308 102<0 214 428 640>
LayerCount: 2
Back
Fore
SplineSet
410 410 m 25
 614 410 l 25
 614 308 l 25
 410 308 l 25
 410 410 l 25
0 410 m 25
 206 410 l 25
 206 308 l 25
 0 308 l 25
 0 410 l 25
EndSplineSet
EndChar

StartChar: uni254D
Encoding: 483 9549 483
Width: 614
VWidth: 0
Flags: W
HStem: 206 206<0 214 428 640>
VStem: 0 206<214 428> 410 206<214 428>
LayerCount: 2
Back
Fore
SplineSet
410 410 m 25
 614 410 l 25
 614 206 l 25
 410 206 l 25
 410 410 l 25
0 410 m 25
 206 410 l 25
 206 206 l 25
 0 206 l 25
 0 410 l 25
EndSplineSet
EndChar

StartChar: uni254E
Encoding: 484 9550 484
Width: 614
VWidth: 0
Flags: W
VStem: 206 102<-214 214 428 854>
LayerCount: 2
Back
Fore
SplineSet
206 206 m 25
 308 206 l 25
 308 -206 l 25
 206 -206 l 25
 206 206 l 25
205 819 m 1
 307 819 l 5
 308 410 l 1
 206 410 l 1
 205 819 l 1
EndSplineSet
EndChar

StartChar: uni254F
Encoding: 485 9551 485
Width: 614
VWidth: 0
Flags: W
VStem: 206 206<-214 214 428 854>
LayerCount: 2
Back
Fore
SplineSet
206 206 m 25
 410 206 l 25
 410 -206 l 25
 206 -206 l 25
 206 206 l 25
205 819 m 1
 410 819 l 5
 410 410 l 1
 206 410 l 1
 205 819 l 1
EndSplineSet
EndChar

StartChar: SF430000
Encoding: 486 9552 486
Width: 614
VWidth: 0
Flags: W
HStem: 206 102<0 640> 410 102<0 640>
LayerCount: 2
Back
Fore
SplineSet
0 308 m 25
 614 308 l 25
 614 206 l 25
 0 206 l 25
 0 308 l 25
0 512 m 25
 614 512 l 25
 614 410 l 25
 0 410 l 25
 0 512 l 25
EndSplineSet
EndChar

StartChar: SF240000
Encoding: 487 9553 487
Width: 614
VWidth: 0
Flags: W
VStem: 102 102<-214 854> 308 102<-214 854>
LayerCount: 2
Back
Fore
SplineSet
308 819 m 29
 410 819 l 29
 410 -206 l 1
 308 -206 l 1
 308 819 l 29
102 819 m 29
 206 819 l 29
 206 -206 l 1
 102 -206 l 1
 102 819 l 29
EndSplineSet
EndChar

StartChar: SF510000
Encoding: 488 9554 488
Width: 614
VWidth: 0
Flags: W
HStem: 206 102<320 640> 410 102<320 640>
VStem: 206 102<-214 214 320 428>
LayerCount: 2
Back
Fore
SplineSet
206 512 m 25
 614 512 l 25
 614 410 l 25
 308 410 l 25
 308 308 l 25
 614 308 l 25
 614 206 l 25
 308 206 l 25
 308 -206 l 25
 206 -206 l 25
 206 512 l 25
EndSplineSet
EndChar

StartChar: SF520000
Encoding: 489 9555 489
Width: 614
VWidth: 0
Flags: W
HStem: 308 102<214 320 428 640>
VStem: 102 102<-214 320> 308 102<-214 320>
LayerCount: 2
Back
Fore
SplineSet
102 410 m 25
 614 410 l 25
 614 308 l 25
 410 308 l 25
 410 -206 l 25
 308 -206 l 25
 308 308 l 25
 206 308 l 25
 206 -206 l 25
 102 -206 l 25
 102 410 l 25
EndSplineSet
EndChar

StartChar: SF390000
Encoding: 490 9556 490
Width: 614
VWidth: 0
Flags: W
HStem: 206 102<428 640> 410 102<214 640>
VStem: 102 102<-214 428> 308 102<-214 214>
LayerCount: 2
Back
Fore
SplineSet
308 308 m 25
 614 308 l 25
 614 206 l 25
 410 206 l 25
 410 -206 l 25
 308 -206 l 25
 308 308 l 25
102 512 m 25
 614 512 l 25
 614 410 l 25
 206 410 l 25
 206 -206 l 25
 102 -206 l 25
 102 512 l 25
EndSplineSet
EndChar

StartChar: SF220000
Encoding: 491 9557 491
Width: 614
VWidth: 0
Flags: W
HStem: 206 102<0 214> 410 102<0 214>
VStem: 0 308<214 320 428 534> 206 102<-214 214 320 428>
LayerCount: 2
Back
Fore
SplineSet
0 512 m 25xe0
 308 512 l 25xe0
 308 -206 l 25
 206 -206 l 25
 206 206 l 25xd0
 0 206 l 25
 0 308 l 25xe0
 206 308 l 25
 206 410 l 25xd0
 0 410 l 25
 0 512 l 25xe0
EndSplineSet
EndChar

StartChar: SF210000
Encoding: 492 9558 492
Width: 614
VWidth: 0
Flags: W
HStem: 308 102<0 106 214 320>
VStem: 102 102<-214 320> 308 102<-214 320>
LayerCount: 2
Back
Fore
SplineSet
0 410 m 25
 410 410 l 25
 410 -206 l 25
 308 -206 l 25
 308 308 l 25
 206 308 l 25
 206 -206 l 25
 102 -206 l 25
 102 308 l 25
 0 308 l 25
 0 410 l 25
EndSplineSet
EndChar

StartChar: SF250000
Encoding: 493 9559 493
Width: 614
VWidth: 0
Flags: W
HStem: 206 102<0 106> 410 102<0 320>
VStem: 102 102<-214 214> 308 102<-214 428>
LayerCount: 2
Back
Fore
SplineSet
0 308 m 25
 206 308 l 25
 206 -206 l 25
 102 -206 l 25
 102 206 l 25
 0 206 l 25
 0 308 l 25
0 512 m 25
 410 512 l 25
 410 -206 l 25
 308 -206 l 25
 308 410 l 25
 0 410 l 25
 0 512 l 25
EndSplineSet
EndChar

StartChar: SF500000
Encoding: 494 9560 494
Width: 614
VWidth: 0
Flags: W
HStem: 206 102<320 640> 410 102<320 640>
VStem: 206 102<320 428 534 854>
LayerCount: 2
Back
Fore
SplineSet
205 819 m 1
 307 819 l 5
 308 512 l 1
 614 512 l 25
 614 410 l 25
 308 410 l 25
 308 308 l 25
 614 308 l 25
 614 206 l 25
 206 206 l 1
 205 819 l 1
EndSplineSet
EndChar

StartChar: SF490000
Encoding: 495 9561 495
Width: 614
VWidth: 0
Flags: W
HStem: 308 102<214 320 428 640>
VStem: 102 102<428 854> 308 102<428 854>
LayerCount: 2
Back
Fore
SplineSet
102 819 m 1
 205 819 l 1
 206 410 l 1
 308 410 l 1
 307 819 l 1
 410 819 l 5
 410 410 l 1
 614 410 l 25
 614 308 l 25
 102 308 l 1
 102 819 l 1
EndSplineSet
EndChar

StartChar: SF380000
Encoding: 496 9562 496
Width: 614
VWidth: 0
Flags: W
HStem: 206 102<214 640> 410 102<428 640>
VStem: 102 102<320 854> 308 102<534 854>
LayerCount: 2
Back
Fore
SplineSet
308 819 m 29
 410 819 l 29
 410 512 l 1
 614 512 l 25
 614 410 l 25
 308 410 l 1
 308 819 l 29
102 819 m 29
 206 819 l 29
 206 308 l 1
 614 308 l 25
 614 206 l 25
 102 206 l 1
 102 819 l 29
EndSplineSet
EndChar

StartChar: SF280000
Encoding: 497 9563 497
Width: 614
VWidth: 0
Flags: W
HStem: 206 102<0 214> 410 102<0 214>
VStem: 0 308<214 320 428 534> 206 102<320 428 534 854>
LayerCount: 2
Back
Fore
SplineSet
205 819 m 29xd0
 307 819 l 29xd0
 308 206 l 1
 0 206 l 25
 0 308 l 25xe0
 206 308 l 25
 206 410 l 25xd0
 0 410 l 25
 0 512 l 25xe0
 206 512 l 1
 205 819 l 29xd0
EndSplineSet
EndChar

StartChar: SF270000
Encoding: 498 9564 498
Width: 614
VWidth: 0
Flags: W
HStem: 308 102<614 720 828 934>
VStem: 716 102<428 854> 922 102<428 854>
LayerCount: 2
Back
Fore
SplineSet
102 819 m 29
 206 819 l 29
 206 410 l 1
 308 410 l 1
 308 819 l 29
 410 819 l 29
 410 308 l 1
 0 308 l 25
 0 410 l 25
 102 410 l 1
 102 819 l 29
EndSplineSet
EndChar

StartChar: SF260000
Encoding: 499 9565 499
Width: 614
VWidth: 0
Flags: W
HStem: 206 102<0 320> 410 102<0 106>
VStem: 102 102<534 854> 308 102<320 854>
LayerCount: 2
Back
Fore
SplineSet
307 819 m 1
 410 819 l 5
 410 206 l 1
 0 206 l 25
 0 308 l 25
 308 308 l 1
 307 819 l 1
102 819 m 1
 205 819 l 1
 206 410 l 1
 0 410 l 25
 0 512 l 25
 102 512 l 1
 102 819 l 1
EndSplineSet
EndChar

StartChar: SF360000
Encoding: 500 9566 500
Width: 614
VWidth: 0
Flags: W
HStem: 206 102<320 640> 410 102<320 640>
VStem: 206 102<-214 214 320 428 534 854>
LayerCount: 2
Back
Fore
SplineSet
205 819 m 1
 307 819 l 5
 308 512 l 1
 614 512 l 25
 614 410 l 25
 308 410 l 25
 308 308 l 25
 614 308 l 25
 614 206 l 25
 308 206 l 25
 308 -206 l 25
 206 -206 l 1
 205 819 l 1
EndSplineSet
EndChar

StartChar: SF370000
Encoding: 501 9567 501
Width: 614
VWidth: 0
Flags: W
HStem: 308 102<428 640>
VStem: 102 102<-214 854> 308 102<-214 320 428 854>
LayerCount: 2
Back
Fore
SplineSet
307 819 m 1
 410 819 l 5
 410 410 l 1
 614 410 l 25
 614 308 l 25
 410 308 l 25
 410 -206 l 25
 308 -206 l 1
 307 819 l 1
102 819 m 1
 205 819 l 1
 206 -206 l 1
 102 -206 l 1
 102 819 l 1
EndSplineSet
EndChar

StartChar: SF420000
Encoding: 502 9568 502
Width: 614
VWidth: 0
Flags: W
HStem: 206 102<428 640> 410 102<428 640>
VStem: 102 102<-214 854> 308 308<214 320 428 534> 308 102<-214 214 534 854>
LayerCount: 2
Back
Fore
SplineSet
308 308 m 25xf0
 614 308 l 25
 614 206 l 25xf0
 410 206 l 25
 410 -206 l 25
 308 -206 l 25xe8
 308 308 l 25xf0
308 819 m 29xe8
 410 819 l 29
 410 512 l 1xe8
 614 512 l 25
 614 410 l 25
 308 410 l 1xf0
 308 819 l 29xe8
102 819 m 29
 206 819 l 29
 206 -206 l 1
 102 -206 l 1
 102 819 l 29
EndSplineSet
EndChar

StartChar: SF190000
Encoding: 503 9569 503
Width: 614
VWidth: 0
Flags: W
HStem: 206 102<0 214> 410 102<0 214>
VStem: 0 308<214 320 428 534> 206 102<-214 214 320 428 534 854>
LayerCount: 2
Back
Fore
SplineSet
0 512 m 25xe0
 206 512 l 1
 205 819 l 29
 307 819 l 29
 308 -206 l 1
 206 -206 l 25
 206 206 l 25xd0
 0 206 l 25
 0 308 l 25xe0
 206 308 l 25
 206 410 l 25xd0
 0 410 l 25
 0 512 l 25xe0
EndSplineSet
EndChar

StartChar: SF200000
Encoding: 504 9570 504
Width: 614
VWidth: 0
Flags: W
HStem: 308 102<0 106>
VStem: 102 102<-214 320 428 854> 308 102<-214 854>
LayerCount: 2
Back
Fore
SplineSet
308 819 m 29
 410 819 l 29
 410 -206 l 1
 308 -206 l 1
 308 819 l 29
102 819 m 29
 206 819 l 29
 206 -206 l 1
 102 -206 l 25
 102 308 l 25
 0 308 l 25
 0 410 l 25
 102 410 l 1
 102 819 l 29
EndSplineSet
EndChar

StartChar: SF230000
Encoding: 505 9571 505
Width: 614
VWidth: 0
Flags: W
HStem: 206 102<0 106> 410 102<0 106>
VStem: 0 206<214 320 428 534> 102 102<-214 214 534 854> 308 102<-214 854>
LayerCount: 2
Back
Fore
SplineSet
308 819 m 29xc8
 410 819 l 29
 410 -206 l 1
 308 -206 l 1
 308 819 l 29xc8
0 308 m 25xe8
 206 308 l 25xe8
 206 -206 l 25
 102 -206 l 25
 102 206 l 25xd8
 0 206 l 25
 0 308 l 25xe8
102 819 m 29xd8
 206 819 l 29xd8
 206 410 l 1
 0 410 l 25
 0 512 l 25xe8
 102 512 l 1
 102 819 l 29xd8
EndSplineSet
EndChar

StartChar: SF470000
Encoding: 506 9572 506
Width: 614
VWidth: 0
Flags: W
HStem: 206 102<0 214 320 640> 410 102<0 640>
VStem: 206 102<-214 214>
LayerCount: 2
Back
Fore
SplineSet
0 308 m 25
 614 308 l 25
 614 206 l 25
 308 206 l 25
 308 -206 l 25
 206 -206 l 25
 206 206 l 25
 0 206 l 25
 0 308 l 25
0 512 m 25
 614 512 l 25
 614 410 l 25
 0 410 l 25
 0 512 l 25
EndSplineSet
EndChar

StartChar: SF480000
Encoding: 507 9573 507
Width: 614
VWidth: 0
Flags: W
HStem: 308 102<0 106 214 320 428 640>
VStem: 102 102<-214 320> 308 102<-214 320>
LayerCount: 2
Back
Fore
SplineSet
0 410 m 25
 614 410 l 25
 614 308 l 25
 410 308 l 25
 410 -206 l 25
 308 -206 l 25
 308 308 l 25
 206 308 l 25
 206 -206 l 25
 102 -206 l 25
 102 308 l 25
 0 308 l 25
 0 410 l 25
EndSplineSet
EndChar

StartChar: SF410000
Encoding: 508 9574 508
Width: 614
VWidth: 0
Flags: W
HStem: 206 102<0 106 428 640> 410 102<0 640>
VStem: 102 102<-214 214> 308 102<-214 214>
LayerCount: 2
Back
Fore
SplineSet
308 308 m 25
 614 308 l 25
 614 206 l 25
 410 206 l 25
 410 -206 l 25
 308 -206 l 25
 308 308 l 25
0 308 m 25
 206 308 l 25
 206 -206 l 25
 102 -206 l 25
 102 206 l 25
 0 206 l 25
 0 308 l 25
0 512 m 25
 614 512 l 25
 614 410 l 25
 0 410 l 25
 0 512 l 25
EndSplineSet
EndChar

StartChar: SF450000
Encoding: 509 9575 509
Width: 614
VWidth: 0
Flags: W
HStem: 206 102<0 640> 410 102<0 214 320 640>
VStem: 206 102<534 854>
LayerCount: 2
Back
Fore
SplineSet
0 308 m 25
 614 308 l 25
 614 206 l 25
 0 206 l 25
 0 308 l 25
0 512 m 25
 206 512 l 1
 205 819 l 29
 307 819 l 29
 308 512 l 1
 614 512 l 25
 614 410 l 25
 0 410 l 25
 0 512 l 25
EndSplineSet
EndChar

StartChar: SF460000
Encoding: 510 9576 510
Width: 614
VWidth: 0
Flags: W
HStem: 308 102<0 106 214 320 428 640>
VStem: 102 102<428 854> 308 102<428 854>
LayerCount: 2
Back
Fore
SplineSet
0 410 m 25
 102 410 l 1
 102 819 l 29
 206 819 l 29
 206 410 l 1
 308 410 l 1
 308 819 l 29
 410 819 l 29
 410 410 l 1
 614 410 l 25
 614 308 l 25
 0 308 l 25
 0 410 l 25
EndSplineSet
EndChar

StartChar: SF400000
Encoding: 511 9577 511
Width: 614
VWidth: 0
Flags: W
HStem: 206 102<0 640> 410 102<0 106 428 640>
VStem: 102 102<534 854> 308 102<534 854>
LayerCount: 2
Back
Fore
SplineSet
0 308 m 25
 614 308 l 25
 614 206 l 25
 0 206 l 25
 0 308 l 25
308 819 m 29
 410 819 l 29
 410 512 l 1
 614 512 l 25
 614 410 l 25
 308 410 l 1
 308 819 l 29
0 512 m 25
 102 512 l 1
 102 819 l 29
 206 819 l 29
 206 410 l 1
 0 410 l 25
 0 512 l 25
EndSplineSet
EndChar

StartChar: SF540000
Encoding: 512 9578 512
Width: 614
VWidth: 0
Flags: W
HStem: 206 102<0 214 320 640> 410 102<0 214 320 640>
VStem: 206 102<-214 214 320 428 534 854>
LayerCount: 2
Back
Fore
SplineSet
0 512 m 25
 206 512 l 1
 205 819 l 29
 307 819 l 29
 308 512 l 1
 614 512 l 25
 614 410 l 25
 308 410 l 25
 308 308 l 25
 614 308 l 25
 614 206 l 25
 308 206 l 25
 308 -206 l 25
 206 -206 l 25
 206 206 l 25
 0 206 l 25
 0 308 l 25
 206 308 l 25
 206 410 l 25
 0 410 l 25
 0 512 l 25
EndSplineSet
EndChar

StartChar: SF530000
Encoding: 513 9579 513
Width: 614
VWidth: 0
Flags: W
HStem: 308 102<0 106 214 320 428 640>
VStem: 102 102<-214 320 428 854> 308 102<-214 320 428 854>
LayerCount: 2
Back
Fore
SplineSet
0 410 m 25
 102 410 l 1
 102 819 l 29
 206 819 l 29
 206 410 l 1
 308 410 l 1
 308 819 l 29
 410 819 l 29
 410 410 l 1
 614 410 l 25
 614 308 l 25
 410 308 l 25
 410 -206 l 25
 308 -206 l 25
 308 308 l 25
 206 308 l 25
 206 -206 l 25
 102 -206 l 25
 102 308 l 25
 0 308 l 25
 0 410 l 25
EndSplineSet
EndChar

StartChar: SF440000
Encoding: 514 9580 514
Width: 614
VWidth: 0
Flags: W
HStem: 206 102<0 106 428 640> 410 102<0 106 428 640>
VStem: 0 206<214 320 428 534> 102 102<-214 214 534 854> 308 308<214 320 428 534> 308 102<-214 214 534 854>
LayerCount: 2
Back
Fore
SplineSet
308 308 m 25xc8
 614 308 l 25
 614 206 l 25xc8
 410 206 l 25
 410 -206 l 25
 308 -206 l 25xc4
 308 308 l 25xc8
0 308 m 25xe0
 206 308 l 25xe0
 206 -206 l 25
 102 -206 l 25
 102 206 l 25xd0
 0 206 l 25
 0 308 l 25xe0
308 819 m 29xc4
 410 819 l 29
 410 512 l 1xc4
 614 512 l 25
 614 410 l 25
 308 410 l 1xc8
 308 819 l 29xc4
0 512 m 25xe0
 102 512 l 1
 102 819 l 29
 206 819 l 29xd0
 206 410 l 1
 0 410 l 25
 0 512 l 25xe0
EndSplineSet
EndChar

StartChar: uni256D
Encoding: 515 9581 515
Width: 614
VWidth: 0
Flags: W
HStem: 206 102<320 428> 308 102<428 640>
VStem: 206 102<-214 214> 308 102<214 320>
LayerCount: 2
Back
Fore
SplineSet
206 -206 m 25xa0
 206 206 l 25
 308 206 l 25xa0
 308 308 l 25
 410 308 l 25x90
 410 410 l 25
 614 410 l 25
 614 308 l 25x50
 410 308 l 25
 410 206 l 25x90
 308 206 l 25
 308 -206 l 25
 206 -206 l 25xa0
EndSplineSet
EndChar

StartChar: uni256E
Encoding: 516 9582 516
Width: 614
VWidth: 0
Flags: W
HStem: 206 102<106 214> 308 102<0 106>
VStem: 0 102<320 428> 102 102<214 320> 206 102<-214 214>
LayerCount: 2
Back
Fore
SplineSet
0 410 m 25x60
 102 410 l 25x60
 102 308 l 25xa0
 206 308 l 25
 206 206 l 25x90
 308 206 l 25
 308 -206 l 25
 206 -206 l 25x88
 206 206 l 25
 102 206 l 25x90
 102 308 l 25xa0
 0 308 l 25
 0 410 l 25x60
EndSplineSet
EndChar

StartChar: uni256F
Encoding: 517 9583 517
Width: 614
VWidth: 0
Flags: W
HStem: 308 102<0 106> 410 102<106 214>
VStem: 0 102<320 428> 102 102<428 534> 206 102<534 854>
LayerCount: 2
Back
Fore
SplineSet
0 410 m 25xa0
 102 410 l 25xa0
 102 512 l 25
 206 512 l 1x50
 205 819 l 29
 307 819 l 29
 308 512 l 1x48
 206 512 l 25
 206 410 l 25x50
 102 410 l 25
 102 308 l 25
 0 308 l 25
 0 410 l 25xa0
EndSplineSet
EndChar

StartChar: uni2570
Encoding: 518 9584 518
Width: 614
VWidth: 0
Flags: W
HStem: 308 102<428 640> 410 102<320 428>
VStem: 206 102<534 854> 308 102<428 534>
LayerCount: 2
Back
Fore
SplineSet
205 819 m 29x60
 307 819 l 29
 308 512 l 1x60
 410 512 l 25x50
 410 410 l 25
 614 410 l 25
 614 308 l 25
 410 308 l 25
 410 410 l 25x90
 308 410 l 25x50
 308 512 l 25
 206 512 l 1
 205 819 l 29x60
EndSplineSet
EndChar

StartChar: uni2571
Encoding: 519 9585 519
Width: 614
VWidth: 0
Flags: W
HStem: 206 102<214 320> 308 102<320 428>
VStem: 0 102<-214 0> 102 102<0 214> 206 102<214 320> 308 102<320 428> 410 102<428 640> 512 102<640 854>
LayerCount: 2
Back
Fore
SplineSet
512 819 m 1x41
 614 819 l 5
 614 614 l 1x41
 512 614 l 25
 512 410 l 25x42
 410 410 l 25
 410 308 l 25x44
 308 308 l 25
 308 206 l 25x88
 206 206 l 25
 206 0 l 25x90
 102 0 l 25
 102 -206 l 25
 0 -206 l 25
 0 0 l 25
 102 0 l 25xa0
 102 206 l 25
 206 206 l 25x90
 206 308 l 25
 308 308 l 25x88
 308 410 l 25
 410 410 l 25x44
 410 614 l 25
 512 614 l 1x42
 512 819 l 1x41
EndSplineSet
EndChar

StartChar: uni2572
Encoding: 520 9586 520
Width: 614
VWidth: 0
Flags: W
HStem: 206 102<320 428> 308 102<214 320>
VStem: 0 102<640 854> 102 102<428 640> 206 102<320 428> 308 102<214 320> 410 102<0 214> 512 102<-214 0>
LayerCount: 2
Back
Fore
SplineSet
0 819 m 1x60
 102 819 l 5
 102 614 l 1x60
 206 614 l 25
 206 410 l 25x50
 308 410 l 25x48
 308 308 l 25x88
 410 308 l 25
 410 206 l 25x84
 512 206 l 25
 512 0 l 25x82
 614 0 l 25
 614 -206 l 25
 512 -206 l 25x81
 512 0 l 25
 410 0 l 25x82
 410 206 l 25
 308 206 l 25x84
 308 308 l 25x88
 206 308 l 25x48
 206 410 l 25
 102 410 l 25x50
 102 614 l 25
 0 614 l 1
 0 819 l 1x60
EndSplineSet
EndChar

StartChar: uni2573
Encoding: 521 9587 521
Width: 614
VWidth: 0
Flags: W
HStem: -206 206<0 106 534 640> 0 206<106 214 428 534> 410 206<106 214 428 534> 614 206<0 106 534 640>
VStem: 0 102<-214 0 640 854> 102 102<0 214 428 640> 410 102<0 214 428 640> 512 102<-214 0 640 854>
LayerCount: 2
Back
Fore
SplineSet
0 819 m 1x18
 102 819 l 1x18
 102 614 l 1x28
 206 614 l 25
 206 410 l 25
 410 410 l 25
 410 614 l 25
 512 614 l 1x26
 512 819 l 1
 614 819 l 5
 614 614 l 1x11
 512 614 l 25
 512 410 l 25
 410 410 l 25
 410 206 l 25
 512 206 l 25x62
 512 0 l 25x82
 614 0 l 25
 614 -206 l 25
 512 -206 l 25x81
 512 0 l 25x82
 410 0 l 25
 410 206 l 25
 206 206 l 25
 206 0 l 25x46
 102 0 l 25
 102 -206 l 25
 0 -206 l 25
 0 0 l 25
 102 0 l 25x88
 102 206 l 25
 206 206 l 25
 206 410 l 25
 102 410 l 25x64
 102 614 l 25x68
 0 614 l 1
 0 819 l 1x18
EndSplineSet
EndChar

StartChar: uni2574
Encoding: 522 9588 522
Width: 614
VWidth: 0
Flags: W
HStem: 308 102<0 320>
VStem: 0 308<320 428>
LayerCount: 2
Back
Fore
SplineSet
0 410 m 25
 308 410 l 25
 308 308 l 25
 0 308 l 25
 0 410 l 25
EndSplineSet
EndChar

StartChar: uni2575
Encoding: 523 9589 523
Width: 614
VWidth: 0
Flags: W
VStem: 206 102<320 854>
LayerCount: 2
Back
Fore
SplineSet
205 819 m 1
 307 819 l 5
 308 308 l 1
 206 308 l 1
 205 819 l 1
EndSplineSet
EndChar

StartChar: uni2576
Encoding: 524 9590 524
Width: 614
VWidth: 0
Flags: W
HStem: 308 102<214 640>
LayerCount: 2
Back
Fore
SplineSet
206 410 m 25
 614 410 l 25
 614 308 l 25
 206 308 l 25
 206 410 l 25
EndSplineSet
EndChar

StartChar: uni2577
Encoding: 525 9591 525
Width: 614
VWidth: 0
Flags: W
VStem: 206 102<-214 428>
LayerCount: 2
Back
Fore
SplineSet
206 410 m 25
 308 410 l 25
 308 -206 l 25
 206 -206 l 25
 206 410 l 25
EndSplineSet
EndChar

StartChar: uni2578
Encoding: 526 9592 526
Width: 614
VWidth: 0
Flags: W
HStem: 206 206<0 320>
VStem: 0 308<214 428>
LayerCount: 2
Back
Fore
SplineSet
0 410 m 25
 308 410 l 25
 308 206 l 25
 0 206 l 25
 0 410 l 25
EndSplineSet
EndChar

StartChar: uni2579
Encoding: 527 9593 527
Width: 614
VWidth: 0
Flags: W
VStem: 206 206<320 854>
LayerCount: 2
Back
Fore
SplineSet
205 819 m 1
 410 819 l 5
 410 308 l 1
 206 308 l 1
 205 819 l 1
EndSplineSet
EndChar

StartChar: uni257A
Encoding: 528 9594 528
Width: 614
VWidth: 0
Flags: W
HStem: 206 206<214 640>
LayerCount: 2
Back
Fore
SplineSet
206 410 m 25
 614 410 l 25
 614 206 l 25
 206 206 l 25
 206 410 l 25
EndSplineSet
EndChar

StartChar: uni257B
Encoding: 529 9595 529
Width: 614
VWidth: 0
Flags: W
VStem: 206 206<-214 428>
LayerCount: 2
Back
Fore
SplineSet
206 410 m 25
 410 410 l 25
 410 -206 l 25
 206 -206 l 25
 206 410 l 25
EndSplineSet
EndChar

StartChar: uni257C
Encoding: 530 9596 530
Width: 614
VWidth: 0
Flags: W
HStem: 206 206<214 640> 308 102<0 214>
LayerCount: 2
Back
Fore
SplineSet
0 410 m 25x40
 614 410 l 25
 614 206 l 25
 206 206 l 25x80
 206 308 l 25
 0 308 l 25
 0 410 l 25x40
EndSplineSet
EndChar

StartChar: uni257D
Encoding: 531 9597 531
Width: 614
VWidth: 0
Flags: W
VStem: 206 206<-214 428> 206 102<428 854>
LayerCount: 2
Back
Fore
SplineSet
205 819 m 1x40
 307 819 l 5
 308 410 l 1x40
 410 410 l 25
 410 -206 l 25
 206 -206 l 1x80
 205 819 l 1x40
EndSplineSet
EndChar

StartChar: uni257E
Encoding: 532 9598 532
Width: 614
VWidth: 0
Flags: W
HStem: 206 206<0 320> 308 102<320 640>
LayerCount: 2
Back
Fore
SplineSet
0 410 m 25x80
 614 410 l 25
 614 308 l 25
 308 308 l 25x40
 308 206 l 25
 0 206 l 25
 0 410 l 25x80
EndSplineSet
EndChar

StartChar: uni257F
Encoding: 533 9599 533
Width: 614
VWidth: 0
Flags: W
VStem: 206 206<320 854> 206 102<-214 320>
LayerCount: 2
Back
Fore
SplineSet
205 819 m 1x80
 410 819 l 5
 410 308 l 1x80
 308 308 l 25
 308 -206 l 25
 206 -206 l 1x40
 205 819 l 1x80
EndSplineSet
EndChar

StartChar: block
Encoding: 534 9608 534
Width: 614
VWidth: 0
Flags: W
VStem: 0 614<-214 854>
LayerCount: 2
Back
Fore
SplineSet
0 819 m 1
 614 819 l 5
 614 -206 l 1
 0 -206 l 1
 0 819 l 1
EndSplineSet
EndChar

StartChar: ltshade
Encoding: 535 9617 535
Width: 614
VWidth: 0
Flags: W
HStem: -206 102<0 106 320 428> -102 102<214 320 534 640> 0 102<106 214 428 534> 102 102<0 106 320 428> 206 102<214 320 534 640> 308 102<106 214 428 534> 410 102<0 106 320 428> 512 102<214 320 534 640> 614 102<106 214 428 534> 717 102<0 106 320 428>
VStem: 0 102<-214 -106 106 214 428 534 746 854> 102 102<0 106 320 428 640 746> 206 102<-106 0 214 320 534 640> 308 102<-214 -106 106 214 428 534 746 854> 410 102<0 106 320 428 640 746> 512 102<-106 0 214 320 534 640>
LayerCount: 2
Back
Fore
SplineSet
0 -102 m 25x8020
 102 -102 l 25
 102 -206 l 25
 0 -206 l 25
 0 -102 l 25x8020
0 206 m 25x1020
 102 206 l 25x1020
 102 102 l 25x2020
 206 102 l 25x2010
 206 0 l 25x4010
 308 0 l 25x4008
 308 -102 l 25x8008
 410 -102 l 25
 410 -206 l 25
 308 -206 l 25x8004
 308 -102 l 25x8008
 206 -102 l 25x4008
 206 0 l 25x4010
 102 0 l 25x2010
 102 102 l 25x2020
 0 102 l 25
 0 206 l 25x1020
0 512 m 25x0220
 102 512 l 25x0220
 102 410 l 25x0420
 206 410 l 25x0410
 206 308 l 25x0810
 308 308 l 25x0808
 308 206 l 25x1008
 410 206 l 25x1004
 410 102 l 25x2004
 512 102 l 25x2002
 512 0 l 25x4002
 614 0 l 25
 614 -102 l 25
 512 -102 l 25x4001
 512 0 l 25x4002
 410 0 l 25x2002
 410 102 l 25x2004
 308 102 l 25x1004
 308 206 l 25x1008
 206 206 l 25x0808
 206 308 l 25x0810
 102 308 l 25x0410
 102 410 l 25x0420
 0 410 l 25
 0 512 l 25x0220
308 819 m 25x0044
 410 819 l 25x0044
 410 717 l 25x0084
 512 717 l 25x0082
 512 614 l 25x0102
 614 614 l 25
 614 512 l 25
 512 512 l 25x0101
 512 614 l 25x0102
 410 614 l 25x0082
 410 717 l 25x0084
 308 717 l 25
 308 819 l 25x0044
0 819 m 25x0060
 102 819 l 25x0060
 102 717 l 25x00a0
 206 717 l 25x0090
 206 614 l 25x0110
 308 614 l 25x0108
 308 512 l 25x0208
 410 512 l 25x0204
 410 410 l 25x0404
 512 410 l 25x0402
 512 308 l 25x0802
 614 308 l 25
 614 206 l 25
 512 206 l 25x0801
 512 308 l 25x0802
 410 308 l 25x0402
 410 410 l 25x0404
 308 410 l 25x0204
 308 512 l 25x0208
 206 512 l 25x0108
 206 614 l 25x0110
 102 614 l 25x0090
 102 717 l 25x00a0
 0 717 l 25
 0 819 l 25x0060
EndSplineSet
EndChar

StartChar: shade
Encoding: 536 9618 536
Width: 614
VWidth: 0
Flags: W
HStem: -206 102<106 214 320 428 534 640> -102 102<0 106 214 320 428 534> 0 102<106 214 320 428 534 640> 102 102<0 106 214 320 428 534> 206 102<106 214 320 428 534 640> 308 102<0 106 214 320 428 534> 410 102<106 214 320 428 534 640> 512 102<0 106 214 320 428 534> 614 102<106 214 320 428 534 640> 717 102<0 106 214 320 428 534>
VStem: 0 102<-106 0 106 214 320 428 534 640 746 854> 102 102<-214 -106 0 106 214 320 428 534 640 746> 206 102<-106 0 106 214 320 428 534 640 746 854> 308 102<-214 -106 0 106 214 320 428 534 640 746> 410 102<-106 0 106 214 320 428 534 640 746 854> 512 102<-214 -106 0 106 214 320 428 534 640 746>
LayerCount: 2
Back
Fore
SplineSet
0 819 m 25x0060
 102 819 l 25x0060
 102 717 l 25x00a0
 206 717 l 25x0090
 206 819 l 25
 308 819 l 25x0048
 308 717 l 25x0088
 410 717 l 25x0084
 410 819 l 25
 512 819 l 25x0042
 512 717 l 25x0082
 614 717 l 25
 614 614 l 25x0081
 512 614 l 25x0102
 512 717 l 25x0082
 410 717 l 25x0084
 410 614 l 25x0104
 308 614 l 25x0108
 308 717 l 25x0088
 206 717 l 25x0090
 206 614 l 25x0110
 308 614 l 25x0108
 308 512 l 25x0208
 410 512 l 25x0204
 410 614 l 25x0104
 512 614 l 25x0102
 512 512 l 25x0202
 614 512 l 25
 614 410 l 25x0201
 512 410 l 25x0402
 512 512 l 25x0202
 410 512 l 25x0204
 410 410 l 25x0404
 308 410 l 25x0408
 308 512 l 25x0208
 206 512 l 25x0210
 206 410 l 25x0410
 308 410 l 25x0408
 308 308 l 25x0808
 410 308 l 25x0804
 410 410 l 25x0404
 512 410 l 25x0402
 512 308 l 25x0802
 614 308 l 25
 614 206 l 25x0801
 512 206 l 25x1002
 512 308 l 25x0802
 410 308 l 25x0804
 410 206 l 25x1004
 308 206 l 25x1008
 308 308 l 25x0808
 206 308 l 25x0810
 206 206 l 25x1010
 308 206 l 25x1008
 308 102 l 25x2008
 410 102 l 25x2004
 410 206 l 25x1004
 512 206 l 25x1002
 512 102 l 25x2002
 614 102 l 25
 614 0 l 25x2001
 512 0 l 25x4002
 512 102 l 25x2002
 410 102 l 25x2004
 410 0 l 25x4004
 308 0 l 25x4008
 308 102 l 25x2008
 206 102 l 25x2010
 206 0 l 25x4010
 308 0 l 25x4008
 308 -102 l 25x8008
 410 -102 l 25x8004
 410 0 l 25x4004
 512 0 l 25x4002
 512 -102 l 25x8002
 614 -102 l 25
 614 -206 l 25
 512 -206 l 25x8001
 512 -102 l 25x8002
 410 -102 l 25
 410 -206 l 25
 308 -206 l 25x8004
 308 -102 l 25x8008
 206 -102 l 25x8010
 206 0 l 25x4010
 102 0 l 25x4020
 102 -102 l 25x8020
 206 -102 l 25
 206 -206 l 25
 102 -206 l 25x8010
 102 -102 l 25x8020
 0 -102 l 25
 0 0 l 25
 102 0 l 25x4020
 102 102 l 25x2020
 206 102 l 25x2010
 206 206 l 25x1010
 102 206 l 25x1020
 102 102 l 25x2020
 0 102 l 25
 0 206 l 25
 102 206 l 25x1020
 102 308 l 25x0820
 206 308 l 25x0810
 206 410 l 25x0410
 102 410 l 25x0420
 102 308 l 25x0820
 0 308 l 25
 0 410 l 25
 102 410 l 25x0420
 102 512 l 25x0220
 206 512 l 25x0210
 206 614 l 25x0110
 102 614 l 25x0120
 102 512 l 25x0220
 0 512 l 25
 0 614 l 25
 102 614 l 25x0120
 102 717 l 25x00a0
 0 717 l 25
 0 819 l 25x0060
EndSplineSet
EndChar

StartChar: filledbox
Encoding: 537 9632 537
Width: 614
VWidth: 0
Flags: W
HStem: -206 512<0 640>
VStem: 0 614<-214 320>
LayerCount: 2
Back
Fore
SplineSet
0 308 m 25
 614 308 l 25
 614 -206 l 25
 0 -206 l 25
 0 308 l 25
EndSplineSet
EndChar

StartChar: uni25B6
Encoding: 538 9654 538
Width: 614
VWidth: 0
Flags: W
HStem: 0 0G<106 214> 308 102<428 534> 717 0G<106 214>
VStem: 102 308<214 320 428 534> 102 206<106 214 534 640> 102 102<0 106 640 746>
LayerCount: 2
Back
Fore
SplineSet
102 717 m 25xe4
 206 717 l 25
 206 614 l 25xe4
 308 614 l 25
 308 512 l 25xe8
 410 512 l 25
 410 410 l 25
 512 410 l 25
 512 308 l 25
 410 308 l 25
 410 206 l 25xf0
 308 206 l 25
 308 102 l 25xe8
 206 102 l 25
 206 0 l 25
 102 0 l 25
 102 717 l 25xe4
EndSplineSet
EndChar

StartChar: uni25C0
Encoding: 539 9664 539
Width: 614
VWidth: 0
Flags: W
HStem: 0 0G<428 534> 308 102<106 214> 717 0G<428 534>
VStem: 206 308<214 320 428 534> 308 206<106 214 534 640> 410 102<0 106 640 746>
LayerCount: 2
Back
Fore
SplineSet
410 717 m 25xe4
 512 717 l 25
 512 0 l 25
 410 0 l 25
 410 102 l 25xe4
 308 102 l 25
 308 206 l 25xe8
 206 206 l 25
 206 308 l 25
 102 308 l 25
 102 410 l 25
 206 410 l 25
 206 512 l 25xf0
 308 512 l 25
 308 614 l 25xe8
 410 614 l 25
 410 717 l 25xe4
EndSplineSet
EndChar

StartChar: diamond
Encoding: 540 9830 540
Width: 614
VWidth: 0
Flags: W
HStem: 0 0G<214 320> 206 308<0 106 428 534> 717 0G<214 320>
VStem: 102 308<106 214 534 640> 206 102<0 106 640 746>
LayerCount: 2
Back
Fore
SplineSet
102 614 m 25xf0
 206 614 l 25
 206 717 l 25
 308 717 l 25
 308 614 l 25xe8
 410 614 l 25
 410 512 l 25
 512 512 l 25
 512 206 l 25
 410 206 l 25
 410 102 l 25xf0
 308 102 l 25
 308 0 l 25
 206 0 l 25
 206 102 l 25xe8
 102 102 l 25
 102 206 l 25
 0 206 l 25
 0 512 l 25
 102 512 l 25
 102 614 l 25xf0
EndSplineSet
EndChar

StartChar: uni2714
Encoding: 541 10004 541
Width: 614
VWidth: 0
Flags: W
HStem: 0 102<214 320> 102 102<106 214> 512 102<534 640>
VStem: 102 102<106 214> 308 102<106 320> 410 102<320 534> 512 102<534 640>
LayerCount: 2
Back
Fore
SplineSet
102 206 m 25x78
 206 206 l 25x78
 206 102 l 25
 308 102 l 25
 308 308 l 25
 410 308 l 25xb8
 410 512 l 25
 512 512 l 25xb4
 512 614 l 25
 614 614 l 25
 614 512 l 25xb2
 512 512 l 25
 512 308 l 25xb4
 410 308 l 25
 410 102 l 25x78
 308 102 l 25
 308 0 l 25
 206 0 l 25
 206 102 l 25xb8
 102 102 l 25
 102 206 l 25x78
EndSplineSet
EndChar

StartChar: uni271A
Encoding: 542 10010 542
Width: 614
VWidth: 0
Flags: W
HStem: 0 0G<214 428> 206 206<0 214 428 640> 614 0G<214 428>
VStem: 206 206<0 214 428 640>
LayerCount: 2
Back
Fore
SplineSet
0 410 m 25
 206 410 l 25
 206 614 l 25
 410 614 l 25
 410 410 l 25
 614 410 l 25
 614 206 l 25
 410 206 l 25
 410 0 l 25
 206 0 l 25
 206 206 l 25
 0 206 l 25
 0 410 l 25
EndSplineSet
EndChar

StartChar: H18533
Encoding: 543 9679 543
Width: 614
VWidth: 0
Flags: W
HStem: 206 308<0 106 428 534> 614 0G<106 428>
VStem: 102 308<106 214 534 640>
LayerCount: 2
Back
Fore
SplineSet
102 614 m 25
 410 614 l 25
 410 512 l 25
 512 512 l 25
 512 206 l 25
 410 206 l 25
 410 102 l 25
 102 102 l 25
 102 206 l 25
 0 206 l 25
 0 512 l 25
 102 512 l 25
 102 614 l 25
EndSplineSet
EndChar

